<svg width="265" height="76" viewBox="0 0 265 76" fill="none" xmlns="http://www.w3.org/2000/svg">
<g clip-path="url(#clip0_145_671)">
<path d="M254.285 0.824219H10.8654C5.18233 0.824219 0.575317 5.52886 0.575317 11.3323V65.3161C0.575317 71.1196 5.18233 75.8242 10.8654 75.8242H254.285C259.968 75.8242 264.575 71.1196 264.575 65.3161V11.3323C264.575 5.52886 259.968 0.824219 254.285 0.824219Z" fill="black"/>
<path fill-rule="evenodd" clip-rule="evenodd" d="M18.8012 14.6282C17.9537 14.8998 17.4038 15.7917 17.4038 17.1417L17.4098 59.6322C17.4098 60.966 17.9417 61.8457 18.7655 62.1397L41.6422 38.3626L18.8012 14.6282Z" fill="url(#paint0_linear_145_671)"/>
<path fill-rule="evenodd" clip-rule="evenodd" d="M18.7655 62.1418C19.359 62.3506 20.1034 62.2533 20.9132 61.7911L48.8298 45.8343L41.6422 38.3647L18.7655 62.1418Z" fill="url(#paint1_linear_145_671)"/>
<path fill-rule="evenodd" clip-rule="evenodd" d="M48.8337 45.8343L58.3536 40.3958C60.283 39.2891 60.283 37.487 58.3536 36.3823L48.796 30.9255L41.6402 38.3627L48.8317 45.8363" fill="url(#paint2_linear_145_671)"/>
<path fill-rule="evenodd" clip-rule="evenodd" d="M48.796 30.9236L20.9152 14.9911C20.1232 14.5371 19.3928 14.4337 18.8032 14.6242L41.6422 38.3587L48.798 30.9195" fill="url(#paint3_linear_145_671)"/>
<path d="M128.713 40.2054C124.203 40.2277 120.562 43.9919 120.576 48.6176C120.59 53.2432 124.254 56.9831 128.764 56.977C133.274 56.9689 136.924 53.2169 136.926 48.5912C136.942 47.483 136.741 46.3828 136.333 45.3557C135.925 44.3286 135.32 43.3954 134.552 42.6115C133.788 41.8297 132.876 41.2137 131.873 40.8002C130.869 40.3868 129.794 40.1845 128.713 40.2054ZM128.713 53.6811C127.718 53.7515 126.726 53.5141 125.865 52.9999C125.005 52.4857 124.316 51.7186 123.889 50.7986C123.46 49.8769 123.311 48.8449 123.461 47.8358C123.611 46.8267 124.054 45.8868 124.733 45.1372C125.409 44.3895 126.291 43.8679 127.262 43.6408C128.234 43.4136 129.25 43.4915 130.177 43.8642C131.106 44.239 131.903 44.89 132.465 45.7329C133.027 46.5757 133.328 47.5715 133.33 48.5912C133.361 49.2379 133.265 49.8844 133.048 50.4928C132.831 51.1012 132.498 51.6594 132.067 52.1345C131.638 52.6085 131.12 52.9896 130.544 53.2553C129.967 53.5209 129.345 53.6657 128.713 53.6811ZM110.806 40.2054C106.294 40.2176 102.644 43.9757 102.652 48.6034C102.658 53.2331 106.32 56.9791 110.83 56.975C115.344 56.973 119 53.2189 119 48.5912C119.016 47.483 118.814 46.3828 118.407 45.3557C117.999 44.3286 117.393 43.3954 116.626 42.6115C115.861 41.8297 114.95 41.2137 113.947 40.8002C112.943 40.3868 111.868 40.1845 110.786 40.2054H110.806ZM110.806 53.6811C109.811 53.7556 108.817 53.5218 107.954 53.01C107.091 52.4983 106.399 51.7325 105.969 50.8128C105.537 49.8915 105.385 48.859 105.533 47.8487C105.681 46.8384 106.123 45.8967 106.801 45.1453C107.476 44.3962 108.357 43.8731 109.329 43.6445C110.3 43.4159 111.317 43.4925 112.245 43.8642C113.175 44.2384 113.973 44.8891 114.535 45.732C115.098 46.5749 115.4 47.571 115.401 48.5912C115.433 49.2377 115.337 49.8842 115.121 50.4926C114.905 51.101 114.571 51.6592 114.141 52.1345C113.712 52.6085 113.194 52.9896 112.617 53.2553C112.041 53.5209 111.418 53.6657 110.786 53.6811H110.806ZM89.4758 42.7899V46.3412H97.7849C97.6555 48.0129 96.9778 49.5912 95.8615 50.8209C95.0321 51.6886 94.0336 52.3688 92.9305 52.8175C91.8274 53.2662 90.6444 53.4734 89.458 53.4257C84.3566 53.4257 80.2259 49.1851 80.2259 43.9554C80.2259 38.7257 84.3586 34.4851 89.456 34.4851C91.7982 34.4446 94.0611 35.3608 95.7483 37.0291L98.1898 34.5236C97.0543 33.3427 95.6975 32.4074 94.2004 31.7736C92.7033 31.1398 91.0965 30.8204 89.4758 30.8345C87.1869 30.7449 84.9169 31.2892 82.9063 32.4097C80.8956 33.5302 79.2191 35.1852 78.0544 37.1993C76.8847 39.2181 76.2677 41.5206 76.2677 43.8662C76.2677 46.2118 76.8847 48.5144 78.0544 50.5331C79.2191 52.5473 80.8956 54.2022 82.9063 55.3227C84.9169 56.4432 87.1869 56.9875 89.4758 56.898C91.1235 56.9739 92.7678 56.6874 94.2976 56.0579C95.8274 55.4284 97.2069 54.4706 98.3427 53.2493C100.36 50.9742 101.435 47.9898 101.344 44.9223C101.35 44.1745 101.286 43.4278 101.151 42.6926L89.4758 42.7899ZM176.624 45.5527C176.126 44.0415 175.189 42.7207 173.939 41.7656C172.688 40.8105 171.183 40.2664 169.623 40.2054C168.57 40.2038 167.528 40.4234 166.561 40.8506C165.595 41.2777 164.725 41.9034 164.005 42.6885C163.284 43.476 162.727 44.4058 162.37 45.4208C162.013 46.4359 161.863 47.5148 161.929 48.5912C161.905 49.6931 162.099 50.7886 162.498 51.8127C162.897 52.8367 163.493 53.7685 164.251 54.5527C165.007 55.3347 165.91 55.9525 166.906 56.3692C167.902 56.7858 168.97 56.9925 170.045 56.977C171.392 56.9834 172.72 56.6477 173.908 56.0002C175.097 55.3527 176.109 54.4137 176.854 53.2676L174.065 51.2932C173.651 52.0043 173.062 52.5929 172.357 53.0013C171.652 53.4097 170.856 53.6237 170.045 53.6223C169.211 53.654 168.386 53.4279 167.68 52.9738C166.973 52.5196 166.417 51.8583 166.083 51.0764L177.027 46.4405L176.624 45.5527ZM165.468 48.3541C165.429 47.7446 165.509 47.1333 165.703 46.5557C165.897 45.978 166.202 45.4455 166.6 44.9892C166.996 44.5335 167.478 44.1635 168.017 43.901C168.556 43.6385 169.141 43.4888 169.738 43.4608C170.359 43.4197 170.978 43.5661 171.518 43.8819C172.058 44.1977 172.495 44.6688 172.775 45.2365L165.468 48.3541ZM156.581 56.4824H160.178V31.8216H156.581V56.4824ZM150.696 42.0804H150.561C150.02 41.4595 149.357 40.9628 148.614 40.6228C147.872 40.2828 147.067 40.1074 146.254 40.1081C144.147 40.2174 142.163 41.15 140.711 42.7126C139.26 44.2753 138.453 46.3482 138.457 48.502C138.452 50.6562 139.259 52.7297 140.711 54.2927C142.162 55.8558 144.147 56.7887 146.254 56.898C147.069 56.9114 147.878 56.7415 148.623 56.4003C149.367 56.0591 150.029 55.555 150.561 54.9236H150.678V56.1277C150.678 59.3446 149.005 61.0615 146.311 61.0615C145.413 61.0389 144.541 60.7433 143.808 60.2126C143.075 59.6819 142.513 58.94 142.194 58.0818L139.06 59.4237C139.647 60.8938 140.651 62.151 141.943 63.0335C143.235 63.916 144.757 64.3834 146.311 64.3757C150.523 64.3757 154.005 61.8297 154.005 55.6351V40.7H150.696V42.0804ZM146.581 53.6811C145.338 53.5661 144.182 52.9799 143.34 52.0378C142.499 51.0958 142.034 49.8662 142.036 48.5912C142.036 45.9419 144.009 43.7324 146.581 43.5014C147.197 43.5343 147.799 43.693 148.354 43.9681C148.908 44.2432 149.403 44.629 149.809 45.1027C150.633 46.0595 151.041 47.3182 150.946 48.5912C150.999 49.2234 150.925 49.8599 150.731 50.4626C150.537 51.0652 150.225 51.6214 149.815 52.098C149.406 52.5733 148.907 52.9587 148.347 53.2309C147.788 53.503 147.18 53.6562 146.561 53.6811H146.581ZM193.472 31.8216H184.875V56.4824H188.472V47.1318H193.492C194.864 47.2316 196.237 46.9427 197.458 46.2967C198.68 45.6508 199.703 44.6729 200.415 43.4709C201.131 42.2664 201.509 40.8845 201.509 39.4757C201.509 38.0668 201.131 36.6849 200.415 35.4804C199.703 34.2788 198.68 33.3014 197.458 32.6558C196.236 32.0102 194.864 31.7215 193.492 31.8216H193.472ZM193.472 43.6595H188.452V35.2534H193.549C195.828 35.2534 197.674 37.1486 197.674 39.4858C197.674 41.823 195.828 43.7182 193.549 43.7182L193.472 43.6595ZM215.648 40.1081C214.337 40.0289 213.031 40.3436 211.893 41.0132C210.755 41.6828 209.833 42.6782 209.243 43.8764L212.436 45.2365C213.079 44.0203 214.362 43.3108 215.706 43.4223C216.629 43.3108 217.556 43.5845 218.278 44.1824C219.003 44.7804 219.461 45.65 219.552 46.5986V46.8541C218.398 46.2268 217.109 45.9015 215.801 45.9074C212.359 45.9074 208.877 47.8818 208.877 51.4514C208.947 52.9919 209.62 54.4351 210.743 55.4568C211.865 56.4784 213.343 56.9912 214.84 56.8777C216.686 57.0135 218.455 56.1074 219.457 54.5101H219.572V56.4824H223.034V46.9939C223.034 42.6723 219.84 40.1669 215.745 40.1669L215.648 40.1081ZM215.205 53.6223C214.034 53.6223 212.399 53.0101 212.399 51.5304C212.399 49.5581 214.437 48.9074 216.243 48.9074C217.387 48.8784 218.517 49.1648 219.515 49.7365C219.396 50.8021 218.905 51.7882 218.131 52.513C217.357 53.2379 216.352 53.6527 215.303 53.6811L215.205 53.6223ZM235.65 40.7L231.536 51.3926H231.421L227.149 40.7H223.304L229.708 55.6554L226.055 63.9601H229.805L239.65 40.7H235.65ZM203.319 56.4824H206.916V31.8216H203.319V56.4824Z" fill="white"/>
<path fill-rule="evenodd" clip-rule="evenodd" d="M76.2679 18.7735C76.2679 15.3681 78.7352 13.179 81.802 13.179C83.8584 13.179 85.2002 14.1823 86.0399 15.4148L84.5372 16.3067C84.2246 15.8635 83.814 15.5019 83.3387 15.2515C82.8633 15.001 82.3368 14.8688 81.802 14.8654C79.7178 14.8654 78.1655 16.4871 78.1655 18.7735C78.1655 21.0256 79.7158 22.6796 81.802 22.6796C82.8778 22.6796 83.8266 22.1769 84.299 21.7067V20.0364H81.139V18.3661H86.1331V22.404C85.5933 23.0328 84.9269 23.5352 84.1793 23.8766C83.4318 24.2181 82.6208 24.3906 81.802 24.3823C78.7352 24.3823 76.2679 22.1627 76.2679 18.7735ZM88.4218 24.1736V13.3553H95.6471V15.0276H90.2698V17.8148H95.5359V19.485H90.2698V22.5013H95.6451V24.1736H88.4218ZM100.764 24.1736V15.0276H97.5705V13.3553H105.808V15.0276H102.612V24.1736H100.764ZM112.235 13.3553H114.083V24.1736H112.235V13.3553ZM119.236 24.1736V15.0276H116.041V13.3553H124.278V15.0276H121.084V24.1736H119.236ZM130.249 18.7735C130.249 15.5445 132.476 13.179 135.64 13.179C138.784 13.179 141.031 15.5445 141.031 18.7735C141.031 21.9985 138.784 24.3681 135.64 24.3681C132.476 24.3681 130.249 21.9985 130.249 18.7735ZM139.134 18.7735C139.134 16.5337 137.758 14.8654 135.64 14.8654C133.504 14.8654 132.147 16.5337 132.147 18.7735C132.147 20.9931 133.504 22.6796 135.64 22.6796C137.758 22.6796 139.134 20.9931 139.134 18.7735ZM150.541 24.1736L145.041 16.4364V24.1736H143.193V13.3553H145.09L150.48 20.8492V13.3553H152.33V24.1736H150.541Z" fill="white"/>
</g>
<defs>
<linearGradient id="paint0_linear_145_671" x1="1229.32" y1="14.6282" x2="1229.32" y2="4765.78" gradientUnits="userSpaceOnUse">
<stop stop-color="#1E79AF"/>
<stop offset="1" stop-color="#63FFD3"/>
</linearGradient>
<linearGradient id="paint1_linear_145_671" x1="2565.75" y1="383.359" x2="730.567" y2="2770.44" gradientUnits="userSpaceOnUse">
<stop stop-color="#DC4057"/>
<stop offset="1" stop-color="#9E36BB"/>
</linearGradient>
<linearGradient id="paint2_linear_145_671" x1="949.662" y1="30.9255" x2="949.662" y2="1489.59" gradientUnits="userSpaceOnUse">
<stop stop-color="#FF9676"/>
<stop offset="1" stop-color="#FFD074"/>
</linearGradient>
<linearGradient id="paint3_linear_145_671" x1="542.032" y1="14.5335" x2="2379.2" y2="2816.14" gradientUnits="userSpaceOnUse">
<stop stop-color="#51C6AD"/>
<stop offset="1" stop-color="#D5FFA1"/>
</linearGradient>
<clipPath id="clip0_145_671">
<rect width="264" height="75" fill="white" transform="translate(0.575317 0.824219)"/>
</clipPath>
</defs>
</svg>
