<svg width="265" height="75" viewBox="0 0 265 75" fill="none" xmlns="http://www.w3.org/2000/svg">
<g clip-path="url(#clip0_145_683)">
<path d="M254.285 0H10.8654C5.18233 0 0.575317 4.70464 0.575317 10.5081V64.4919C0.575317 70.2954 5.18233 75 10.8654 75H254.285C259.968 75 264.575 70.2954 264.575 64.4919V10.5081C264.575 4.70464 259.968 0 254.285 0Z" fill="black"/>
<path fill-rule="evenodd" clip-rule="evenodd" d="M96.506 58.4945H92.4153L90.1745 51.2673H82.3857L80.2512 58.4945H76.2686L83.9852 33.8898H88.7514L96.506 58.4945ZM89.499 48.2352H83.063L85.0534 41.8104C85.5758 39.7674 85.9559 38.2217 86.1918 37.1753H86.2639C86.8565 39.6084 87.2582 41.154 87.4725 41.8104L89.499 48.2352ZM116.351 49.4055C116.351 52.4229 115.556 54.8079 113.968 56.5588C112.545 58.1174 110.778 58.8957 108.668 58.8957C106.391 58.8957 104.756 58.0563 103.76 56.3776H103.688V65.7236H99.8473V46.5934C99.8473 44.6964 99.7987 42.7496 99.705 40.7528H103.082L103.297 43.5649H103.369C104.65 41.4461 106.593 40.3886 109.201 40.3886C111.24 40.3886 112.943 41.215 114.304 42.8698C115.67 44.5264 116.351 46.7043 116.351 49.4055ZM112.438 49.5497C112.438 47.8229 112.06 46.3992 111.3 45.2788C110.47 44.1104 109.355 43.5261 107.957 43.5261C107.009 43.5261 106.148 43.8515 105.379 44.4931C104.608 45.1402 104.104 45.9851 103.868 47.0316C103.749 47.5197 103.689 47.919 103.689 48.2333V51.1915C103.689 52.482 104.075 53.571 104.846 54.4603C105.617 55.3496 106.618 55.7933 107.85 55.7933C109.297 55.7933 110.423 55.2202 111.228 54.0776C112.035 52.9331 112.438 51.4245 112.438 49.5497ZM136.231 49.4055C136.231 52.4229 135.437 54.8079 133.847 56.5588C132.425 58.1174 130.658 58.8957 128.549 58.8957C126.272 58.8957 124.637 58.0563 123.642 56.3776H123.57V65.7236H119.73V46.5934C119.73 44.6964 119.681 42.7496 119.588 40.7528H122.965L123.179 43.5649H123.251C124.53 41.4461 126.474 40.3886 129.084 40.3886C131.121 40.3886 132.823 41.215 134.189 42.8698C135.549 44.5264 136.231 46.7043 136.231 49.4055ZM132.319 49.5497C132.319 47.8229 131.939 46.3992 131.179 45.2788C130.348 44.1104 129.237 43.5261 127.837 43.5261C126.888 43.5261 126.029 43.8515 125.258 44.4931C124.487 45.1402 123.985 45.9851 123.749 47.0316C123.631 47.5197 123.57 47.919 123.57 48.2333V51.1915C123.57 52.482 123.956 53.571 124.723 54.4603C125.494 55.3478 126.496 55.7933 127.731 55.7933C129.178 55.7933 130.303 55.2202 131.109 54.0776C131.916 52.9331 132.319 51.4245 132.319 49.5497ZM158.459 51.5946C158.459 53.6875 157.751 55.3903 156.33 56.7048C154.768 58.1414 152.594 58.8588 149.801 58.8588C147.221 58.8588 145.153 58.3485 143.588 57.326L144.478 54.0406C146.164 55.0871 148.014 55.6121 150.029 55.6121C151.476 55.6121 152.602 55.2757 153.41 54.6064C154.215 53.9371 154.617 53.0385 154.617 51.9181C154.617 50.9197 154.286 50.0785 153.621 49.3963C152.96 48.714 151.856 48.0799 150.314 47.4938C146.117 45.8871 144.02 43.5335 144.02 40.4385C144.02 38.4158 144.755 36.7574 146.227 35.4669C147.693 34.1746 149.649 33.5293 152.095 33.5293C154.277 33.5293 156.089 33.9194 157.535 34.6978L156.575 37.9111C155.224 37.1568 153.697 36.7796 151.987 36.7796C150.636 36.7796 149.581 37.1216 148.824 37.802C148.185 38.4103 147.864 39.1517 147.864 40.0299C147.864 41.0024 148.23 41.8067 148.965 42.439C149.604 43.0232 150.766 43.6555 152.452 44.3378C154.514 45.1901 156.029 46.1866 157.004 47.3292C157.975 48.4681 158.459 49.8936 158.459 51.5946ZM171.157 43.711H166.924V52.3249C166.924 54.5158 167.669 55.6103 169.164 55.6103C169.851 55.6103 170.42 55.5493 170.87 55.4273L170.976 58.4206C170.22 58.7108 169.224 58.8569 167.99 58.8569C166.473 58.8569 165.288 58.3817 164.432 57.4333C163.58 56.483 163.152 54.8892 163.152 52.6503V43.7073H160.63V40.7491H163.152V37.5007L166.924 36.3322V40.7491H171.157V43.711ZM190.256 49.4776C190.256 52.2047 189.495 54.4437 187.979 56.1945C186.388 57.9972 184.277 58.8957 181.645 58.8957C179.109 58.8957 177.09 58.0323 175.584 56.3055C174.078 54.5786 173.325 52.3988 173.325 49.7716C173.325 47.0223 174.1 44.7704 175.654 43.0195C177.205 41.2668 179.298 40.3904 181.93 40.3904C184.466 40.3904 186.507 41.2539 188.047 42.9825C189.521 44.6595 190.256 46.8245 190.256 49.4776ZM186.271 49.6052C186.271 47.9689 185.931 46.5656 185.241 45.3953C184.436 43.9791 183.285 43.2728 181.793 43.2728C180.249 43.2728 179.077 43.9809 178.272 45.3953C177.582 46.5675 177.241 47.993 177.241 49.6791C177.241 51.3154 177.582 52.7187 178.272 53.8872C179.102 55.3034 180.262 56.0097 181.759 56.0097C183.225 56.0097 184.376 55.2886 185.207 53.8502C185.914 52.6577 186.271 51.2396 186.271 49.6052ZM202.738 44.2194C202.358 44.1473 201.953 44.1104 201.528 44.1104C200.177 44.1104 199.132 44.6336 198.397 45.6819C197.758 46.6063 197.437 47.7748 197.437 49.1855V58.4945H193.599L193.635 46.3401C193.635 44.2952 193.586 42.4334 193.491 40.7547H196.836L196.976 44.1492H197.082C197.488 42.9825 198.127 42.0433 199.003 41.3389C199.858 40.7047 200.782 40.3886 201.778 40.3886C202.133 40.3886 202.454 40.4145 202.738 40.4607V44.2194ZM219.914 48.7843C219.914 49.4906 219.869 50.0859 219.773 50.5721H208.252C208.297 52.3249 208.854 53.6653 209.924 54.5897C210.895 55.4162 212.15 55.8303 213.692 55.8303C215.398 55.8303 216.954 55.5511 218.354 54.9909L218.955 57.7272C217.32 58.4594 215.389 58.8236 213.161 58.8236C210.48 58.8236 208.376 58.0138 206.845 56.3961C205.318 54.7783 204.552 52.6059 204.552 49.8807C204.552 47.2054 205.264 44.9775 206.689 43.2007C208.18 41.3038 210.196 40.3553 212.732 40.3553C215.223 40.3553 217.109 41.3038 218.39 43.2007C219.404 44.7075 219.914 46.5712 219.914 48.7843ZM216.252 47.7619C216.277 46.5934 216.027 45.5839 215.506 44.7316C214.841 43.6352 213.82 43.0879 212.446 43.0879C211.19 43.0879 210.169 43.6223 209.389 44.6946C208.749 45.5469 208.369 46.5693 208.252 47.76L216.252 47.7619Z" fill="white"/>
<path fill-rule="evenodd" clip-rule="evenodd" d="M85.97 18.7512C85.97 20.9321 85.3327 22.5738 84.06 23.6763C82.8812 24.6936 81.2059 25.2032 79.036 25.2032C77.9601 25.2032 77.0394 25.155 76.2686 25.0586V13.1424C77.2741 12.9756 78.3572 12.8904 79.527 12.8904C81.594 12.8904 83.152 13.3518 84.2026 14.2745C85.3797 15.3177 85.97 16.8094 85.97 18.7512ZM83.9752 18.805C83.9752 17.3912 83.6105 16.3072 82.8812 15.5512C82.1519 14.7971 81.0868 14.4191 79.6841 14.4191C79.0884 14.4191 78.5811 14.4598 78.1605 14.5451V23.6041C78.3933 23.6411 78.8194 23.6578 79.4386 23.6578C80.8864 23.6578 82.0038 23.2446 82.7909 22.4182C83.578 21.5918 83.9752 20.3874 83.9752 18.805ZM96.547 20.6561C96.547 21.9994 96.1733 23.1001 95.4259 23.9636C94.6424 24.8511 93.6044 25.294 92.3082 25.294C91.059 25.294 90.0643 24.8696 89.3223 24.0173C88.5822 23.1668 88.2121 22.0939 88.2121 20.8006C88.2121 19.4479 88.593 18.338 89.3584 17.4764C90.1239 16.6148 91.1529 16.1831 92.449 16.1831C93.6983 16.1831 94.702 16.6074 95.462 17.4579C96.1841 18.2843 96.547 19.3516 96.547 20.6561ZM94.5847 20.7191C94.5847 19.913 94.415 19.2219 94.0774 18.6456C93.6802 17.9489 93.1152 17.6006 92.3804 17.6006C91.6204 17.6006 91.0427 17.9489 90.6456 18.6456C90.3062 19.2219 90.1383 19.9241 90.1383 20.7543C90.1383 21.5603 90.308 22.2514 90.6456 22.8277C91.0554 23.5244 91.6258 23.8728 92.3624 23.8728C93.0845 23.8728 93.6513 23.5189 94.0593 22.8092C94.4095 22.2218 94.5847 21.5251 94.5847 20.7191ZM110.729 16.3609L108.066 25.0957H106.333L105.23 21.3027C104.95 20.3559 104.723 19.4146 104.546 18.4807H104.512C104.347 19.4405 104.12 20.38 103.828 21.3027L102.656 25.0957H100.903L98.3992 16.3609H100.343L101.306 20.5134C101.538 21.4954 101.73 22.4312 101.883 23.3169H101.918C102.058 22.5868 102.291 21.6566 102.62 20.5319L103.828 16.3628H105.369L106.526 20.443C106.806 21.438 107.034 22.396 107.209 23.3187H107.261C107.389 22.4201 107.582 21.4621 107.839 20.443L108.871 16.3628L110.729 16.3609ZM120.537 25.0957H118.645V20.0928C118.645 18.5511 118.075 17.7803 116.93 17.7803C116.369 17.7803 115.916 17.9915 115.564 18.4159C115.215 18.8402 115.038 19.3405 115.038 19.913V25.0939H113.146V18.8569C113.146 18.0897 113.123 17.2578 113.078 16.3572H114.74L114.829 17.7229H114.881C115.101 17.2985 115.43 16.9483 115.861 16.6685C116.374 16.3424 116.948 16.1775 117.576 16.1775C118.371 16.1775 119.031 16.4406 119.557 16.9687C120.21 17.6154 120.537 18.5808 120.537 19.863V25.0957ZM123.864 12.353H125.754V25.0957H123.864V12.353ZM136.893 20.6561C136.893 21.9994 136.519 23.1001 135.772 23.9636C134.988 24.8511 133.948 25.294 132.654 25.294C131.403 25.294 130.408 24.8696 129.668 24.0173C128.928 23.1668 128.558 22.0939 128.558 20.8006C128.558 19.4479 128.939 18.338 129.704 17.4764C130.469 16.6148 131.498 16.1831 132.793 16.1831C134.044 16.1831 135.046 16.6074 135.808 17.4579C136.53 18.2843 136.893 19.3516 136.893 20.6561ZM134.928 20.7191C134.928 19.913 134.759 19.2219 134.421 18.6456C134.026 17.9489 133.459 17.6006 132.726 17.6006C131.964 17.6006 131.387 17.9489 130.991 18.6456C130.652 19.2219 130.484 19.9241 130.484 20.7543C130.484 21.5603 130.654 22.2514 130.991 22.8277C131.401 23.5244 131.971 23.8728 132.708 23.8728C133.43 23.8728 133.995 23.5189 134.403 22.8092C134.755 22.2218 134.928 21.5251 134.928 20.7191ZM146.049 25.0957H144.35L144.209 24.0896H144.157C143.576 24.8919 142.747 25.294 141.671 25.294C140.868 25.294 140.218 25.029 139.729 24.5028C139.285 24.0247 139.063 23.4299 139.063 22.7239C139.063 21.6566 139.496 20.8432 140.368 20.2799C141.238 19.7166 142.462 19.4405 144.038 19.4535V19.2904C144.038 18.1398 143.449 17.5653 142.27 17.5653C141.431 17.5653 140.691 17.7821 140.052 18.212L139.667 16.9372C140.458 16.4351 141.435 16.1831 142.586 16.1831C144.81 16.1831 145.926 17.3875 145.926 19.7963V23.013C145.926 23.8857 145.968 24.5806 146.049 25.0957ZM144.085 22.0939V20.7469C141.998 20.7098 140.954 21.2972 140.954 22.5071C140.954 22.963 141.074 23.3039 141.317 23.5318C141.561 23.7597 141.871 23.8728 142.242 23.8728C142.657 23.8728 143.045 23.7375 143.399 23.4688C143.754 23.1983 143.973 22.8555 144.054 22.4349C144.074 22.3404 144.085 22.2255 144.085 22.0939ZM156.799 25.0957H155.12L155.032 23.693H154.979C154.443 24.7603 153.53 25.294 152.246 25.294C151.221 25.294 150.367 24.8808 149.69 24.0544C149.013 23.2279 148.675 22.1551 148.675 20.8376C148.675 19.4239 149.042 18.2787 149.778 17.4041C150.492 16.5889 151.365 16.1812 152.405 16.1812C153.548 16.1812 154.348 16.5759 154.803 17.3671H154.839V12.353H156.732V22.7425C156.732 23.593 156.754 24.3768 156.799 25.0957ZM154.839 21.4121V19.9556C154.839 19.7036 154.821 19.4998 154.786 19.3442C154.68 18.8772 154.45 18.4844 154.102 18.1676C153.75 17.8507 153.326 17.6914 152.837 17.6914C152.131 17.6914 151.578 17.9786 151.172 18.5548C150.77 19.1311 150.566 19.8667 150.566 20.7654C150.566 21.6289 150.759 22.3293 151.147 22.8685C151.557 23.4429 152.109 23.7301 152.8 23.7301C153.421 23.7301 153.918 23.4911 154.295 23.0111C154.66 22.5683 154.839 22.0346 154.839 21.4121ZM172.98 20.6561C172.98 21.9994 172.606 23.1001 171.859 23.9636C171.075 24.8511 170.039 25.294 168.741 25.294C167.493 25.294 166.499 24.8696 165.755 24.0173C165.015 23.1668 164.645 22.0939 164.645 20.8006C164.645 19.4479 165.026 18.338 165.791 17.4764C166.557 16.6148 167.586 16.1831 168.883 16.1831C170.131 16.1831 171.136 16.6074 171.895 17.4579C172.617 18.2843 172.98 19.3516 172.98 20.6561ZM171.019 20.7191C171.019 19.913 170.849 19.2219 170.512 18.6456C170.113 17.9489 169.55 17.6006 168.813 17.6006C168.055 17.6006 167.477 17.9489 167.078 18.6456C166.739 19.2219 166.571 19.9241 166.571 20.7543C166.571 21.5603 166.741 22.2514 167.078 22.8277C167.488 23.5244 168.058 23.8728 168.795 23.8728C169.517 23.8728 170.086 23.5189 170.494 22.8092C170.842 22.2218 171.019 21.5251 171.019 20.7191ZM183.152 25.0957H181.262V20.0928C181.262 18.5511 180.692 17.7803 179.545 17.7803C178.984 17.7803 178.531 17.9915 178.181 18.4159C177.83 18.8402 177.655 19.3405 177.655 19.913V25.0939H175.761V18.8569C175.761 18.0897 175.74 17.2578 175.695 16.3572H177.356L177.444 17.7229H177.496C177.718 17.2985 178.047 16.9483 178.477 16.6685C178.991 16.3424 179.563 16.1775 180.193 16.1775C180.986 16.1775 181.647 16.4406 182.172 16.9687C182.827 17.6154 183.152 18.5808 183.152 19.863V25.0957ZM195.885 17.8155H193.801V22.0587C193.801 23.1371 194.171 23.6763 194.904 23.6763C195.244 23.6763 195.525 23.6467 195.747 23.5856L195.796 25.0586C195.423 25.2032 194.931 25.2754 194.327 25.2754C193.579 25.2754 192.998 25.042 192.577 24.575C192.155 24.1081 191.946 23.3224 191.946 22.2199V17.8155H190.702V16.3609H191.946V14.76L193.8 14.1856V16.3591H195.883L195.885 17.8155ZM205.9 25.0957H204.007V20.1298C204.007 18.5641 203.436 17.7803 202.293 17.7803C201.416 17.7803 200.817 18.2343 200.488 19.1422C200.432 19.3331 200.4 19.5665 200.4 19.8408V25.0939H198.51V12.353H200.4V17.6172H200.436C201.031 16.6593 201.885 16.1812 202.992 16.1812C203.775 16.1812 204.424 16.4443 204.938 16.9724C205.579 17.6302 205.9 18.6086 205.9 19.9019V25.0957ZM216.232 20.3151C216.232 20.6635 216.206 20.9562 216.161 21.1953H210.487C210.513 22.0587 210.783 22.7165 211.309 23.1723C211.789 23.58 212.408 23.7838 213.166 23.7838C214.006 23.7838 214.771 23.6467 215.461 23.3706L215.757 24.7196C214.95 25.079 214 25.2588 212.901 25.2588C211.583 25.2588 210.545 24.8604 209.794 24.0636C209.04 23.2668 208.666 22.1977 208.666 20.8562C208.666 19.5387 209.014 18.4418 209.717 17.5672C210.449 16.6333 211.441 16.1664 212.692 16.1664C213.916 16.1664 214.845 16.6333 215.473 17.5672C215.981 18.3084 216.232 19.2256 216.232 20.3151ZM214.426 19.813C214.441 19.2367 214.316 18.7401 214.06 18.3214C213.731 17.7821 213.231 17.5116 212.554 17.5116C211.937 17.5116 211.433 17.7747 211.049 18.3028C210.735 18.7234 210.549 19.2256 210.487 19.813H214.426Z" fill="white"/>
<path fill-rule="evenodd" clip-rule="evenodd" d="M50.3908 38.9175C50.4496 45.9789 56.412 48.3132 56.4851 48.3388C56.4495 48.5033 55.5513 51.7077 53.315 54.9615C51.4475 57.8259 49.4909 60.6263 46.3832 60.6775C43.3645 60.7488 42.3488 58.855 38.8865 58.855C35.3921 58.855 34.3104 60.6263 31.4147 60.7488C28.4549 60.8603 26.1936 57.6906 24.2584 54.8518C20.3898 49.0553 17.3783 38.5172 21.4162 31.3461C23.3728 27.8292 26.9402 25.5643 30.7536 25.504C33.717 25.4418 36.4666 27.5568 38.2878 27.5568C40.0733 27.5568 43.4732 25.0269 46.9784 25.4053C48.4449 25.4492 52.6182 25.9994 55.3108 30.0264C55.0934 30.1598 50.3391 33.026 50.3908 38.9175ZM44.6885 21.5922C43.0634 23.5591 40.4635 25.0635 37.9314 24.8697C37.5999 22.2155 38.8829 19.3931 40.3192 17.6712C41.9425 15.7171 44.7616 14.22 47.0158 14.1177C47.3116 16.8761 46.246 19.5942 44.6885 21.5922Z" fill="white"/>
</g>
<defs>
<clipPath id="clip0_145_683">
<rect width="264" height="75" fill="white" transform="translate(0.575317)"/>
</clipPath>
</defs>
</svg>
