<svg width="247" height="230" viewBox="0 0 247 230" fill="none" xmlns="http://www.w3.org/2000/svg">
<path d="M127.038 196.678C179.866 196.678 222.691 194.346 222.691 191.47C222.691 188.595 179.866 186.263 127.038 186.263C74.2104 186.263 31.3851 188.595 31.3851 191.47C31.3851 194.346 74.2104 196.678 127.038 196.678Z" fill="#F5F5F5"/>
<path d="M99.1105 55.039C95.2674 57.9922 91.5131 62.7532 93.7134 67.919C95.9137 73.0848 109.993 73.6046 112.954 71.4794C116.802 68.7194 113.402 56.4282 110.403 56.3546C110.176 51.796 102.322 52.5688 99.1105 55.039Z" fill="#263238"/>
<path d="M93.728 104.788C93.728 104.788 95.2722 130.98 96.9742 145.162C97.1468 158.479 100.428 188.563 100.428 188.563H104.034C104.641 173.636 109.095 159.698 106.135 146.533C113.042 120.681 108.311 104.806 108.311 104.806L93.728 104.788Z" fill="#FFB573"/>
<path d="M97.655 104.806C97.655 104.806 105.08 133.86 107.112 146.234C109.253 159.233 112.44 184.46 112.292 188.554H115.405C115.405 188.554 120.635 163.033 115.795 146.694C119.786 109.894 109.939 104.834 109.939 104.834L97.655 104.806Z" fill="#FFB573"/>
<path d="M79.8506 71.2034C79.6188 69.6347 76.5305 69.5014 76.5305 69.5014L75.0505 68.8068C74.7907 68.6584 74.4793 68.6101 74.1819 68.6719C73.8846 68.7337 73.6247 68.9008 73.457 69.138L72.9637 69.9016C72.82 70.2021 72.7962 70.5406 72.8966 70.8561C72.997 71.1715 73.215 71.4432 73.5113 71.622L73.9602 71.9256C74.724 72.4345 75.6276 72.7298 76.565 72.7766L77.9316 72.8456C78.2317 72.8617 78.5325 72.8274 78.8196 72.7444C79.1596 72.6447 79.4496 72.4339 79.6363 72.1508C79.823 71.8677 79.8939 71.5313 79.8358 71.2034H79.8506Z" fill="#FFB573"/>
<path d="M96.116 80.3803C95.9285 80.5597 95.8298 80.6471 95.6917 80.7621L95.302 81.0841C95.0454 81.2865 94.779 81.4751 94.5176 81.6637C93.9848 82.0317 93.4421 82.3721 92.8846 82.6941C91.7659 83.3219 90.5906 83.8575 89.3721 84.2949C86.9452 85.1752 84.3687 85.6426 81.7648 85.6749H81.5379C81.419 85.6726 81.3004 85.6634 81.1827 85.6473C80.951 85.6157 80.7241 85.5586 80.5068 85.4771C80.141 85.3365 79.8064 85.1338 79.5201 84.8791C79.1494 84.5395 78.847 84.1407 78.6272 83.7015C78.3195 83.0795 78.0894 82.4267 77.9415 81.7557C77.6799 80.601 77.5149 79.4291 77.4481 78.2505C77.3145 75.9932 77.364 73.7297 77.5961 71.4793C77.6236 71.2278 77.7493 70.9945 77.9493 70.8238C78.1492 70.6531 78.4095 70.5568 78.6806 70.5534C78.9517 70.55 79.2147 70.6397 79.4195 70.8053C79.6244 70.9709 79.7567 71.201 79.7915 71.4517V71.4793C80.0579 73.6229 80.3638 75.7987 80.7782 77.8825C80.9608 78.8917 81.213 79.8889 81.533 80.8679C81.6604 81.2684 81.8358 81.6541 82.0559 82.0179C82.1447 82.1513 82.2335 82.2157 82.194 82.1697C82.1287 82.1038 82.0476 82.0534 81.9572 82.0225C81.8772 81.9886 81.7925 81.9654 81.7056 81.9535H81.5724C82.633 81.8632 83.685 81.7002 84.7199 81.4659C85.7454 81.2271 86.7512 80.9197 87.7293 80.5459C88.7033 80.1572 89.642 79.6957 90.5363 79.1659C90.9853 78.9083 91.4194 78.6369 91.8387 78.3471C92.0459 78.2045 92.2433 78.0573 92.4406 77.9101L92.7268 77.6893L92.9438 77.5099L93.0721 77.4041C93.5023 77.0448 94.066 76.8564 94.6431 76.8791C95.2201 76.9017 95.7649 77.1337 96.1612 77.5254C96.5575 77.9171 96.7741 78.4377 96.7647 78.9762C96.7553 79.5146 96.5208 80.0284 96.111 80.4079L96.116 80.3803Z" fill="#FFB573"/>
<path d="M98.5431 75.2743C94.6408 74.6671 90.5461 77.1419 88.4247 79.1567C87.3295 82.2295 90.8372 85.9647 90.8372 85.9647C90.8372 85.9647 95.8347 83.1035 97.6353 81.1485C99.436 79.1935 100.793 75.6239 98.5431 75.2743Z" fill="#E0E0E0"/>
<path d="M110.63 104.457C110.63 104.457 116.135 108.1 117.171 120.212C117.586 124.982 118.331 144.012 119.9 152.2C114.251 155.963 97.3394 155.448 94.6901 153.249C95.44 136.689 88.6517 114.724 93.5752 104.622C101.725 103.689 110.63 104.457 110.63 104.457Z" fill="#263238"/>
<path opacity="0.2" d="M105.045 139.191C105.119 132.232 104.019 122.654 100.679 116.978C101.819 124.062 105.045 139.191 105.045 139.191Z" fill="black"/>
<path d="M90.99 80.8864C90.99 84.8286 87.6205 86.8986 91.434 89.9346C91.661 93.3386 91.9274 99.4336 93.0472 104.986C94.2066 106.49 102.682 106.366 111.488 104.586C110.339 99.8246 110.763 92.069 113.777 81.4614C113.938 80.8727 113.966 80.2595 113.861 79.66C113.755 79.0606 113.518 78.488 113.164 77.978C112.811 77.468 112.348 77.0316 111.804 76.6962C111.261 76.3608 110.65 76.1336 110.008 76.0288C109.283 75.9092 108.528 75.7988 107.729 75.7068C104.975 75.3282 102.195 75.1345 99.4113 75.1272C98.5134 75.1272 97.581 75.1824 96.693 75.2376C95.1503 75.3265 93.7019 75.9601 92.6424 77.0095C91.583 78.0589 90.9921 79.4452 90.99 80.8864Z" fill="#E0E0E0"/>
<path d="M108.98 87.731L98.6451 89.9134C98.2518 89.9964 98.0052 90.361 98.0942 90.7277L101.44 104.505C101.53 104.872 101.921 105.102 102.314 105.019L112.649 102.837C113.042 102.754 113.289 102.389 113.2 102.022L109.854 88.2446C109.765 87.8779 109.374 87.648 108.98 87.731Z" fill="#FF1616"/>
<path d="M100.433 80.2101C100.433 80.2101 98.7603 82.0777 97.3789 82.5101L97.2211 83.4301C98.9678 83.2221 100.58 82.4468 101.775 81.2405L100.433 80.2101Z" fill="#FF1616"/>
<path d="M95.889 79.0831C95.889 79.0831 95.82 81.5119 96.5402 82.6987L96.0025 83.4899C94.8395 82.2558 94.1794 80.6795 94.1377 79.0371L95.889 79.0831Z" fill="#FF1616"/>
<path d="M107.389 66.9575C106.728 69.4047 105.953 73.9173 107.729 75.6975C107.729 75.6975 101.113 77.3811 96.8016 82.9011C94.8282 77.1005 99.4311 75.1179 99.4311 75.1179C102.445 74.6579 102.485 72.6063 102.07 70.6375L107.389 66.9575Z" fill="#FFB573"/>
<path opacity="0.2" d="M105.223 68.4617L102.075 70.6467C102.177 71.101 102.237 71.5628 102.253 72.0267C103.398 71.9531 105.026 70.8997 105.213 69.8003C105.3 69.358 105.303 68.905 105.223 68.4617Z" fill="black"/>
<path d="M110.457 62.5967C109.189 66.5619 108.745 68.2685 106.076 69.8279C102.061 72.1693 97.1962 69.7589 97.1666 65.4993C97.1666 61.6629 99.2238 55.8393 103.797 55.2045C108.37 54.5697 111.745 58.6269 110.457 62.5967Z" fill="#FFB573"/>
<path d="M107.142 56.8053C105.943 60.6279 106.969 64.6253 109.416 65.0853C112.815 63.9031 112.648 60.3841 111.779 58.7741C110.911 57.1641 107.833 54.6019 107.142 56.8053Z" fill="#263238"/>
<path d="M109.002 63.6731C107.112 64.2573 106.747 65.4395 106.747 65.4395C106.747 65.4395 108.045 64.5839 109.288 64.7449C109.107 64.4122 109.01 64.0459 109.002 63.6731Z" fill="#263238"/>
<path d="M104.281 62.2242C104.197 62.5508 103.945 62.7716 103.713 62.721C103.481 62.6704 103.358 62.353 103.442 62.0264C103.526 61.6998 103.778 61.4744 104.01 61.5296C104.242 61.5848 104.345 61.8976 104.281 62.2242Z" fill="#263238"/>
<path d="M99.9052 61.2535C99.8212 61.5801 99.5695 61.8009 99.3375 61.7457C99.1055 61.6905 98.9821 61.3823 99.066 61.0511C99.1499 60.7199 99.4017 60.5037 99.6337 60.5589C99.8657 60.6141 99.994 60.9223 99.9052 61.2535Z" fill="#263238"/>
<path d="M99.7423 60.6003L98.9476 60.1725C98.9476 60.1725 99.229 60.8901 99.7423 60.6003Z" fill="#263238"/>
<path d="M100.734 61.7871C100.233 62.4607 99.6311 63.0647 98.9476 63.5811C99.0977 63.7432 99.2833 63.8734 99.4919 63.9631C99.7005 64.0527 99.9272 64.0997 100.157 64.1009L100.734 61.7871Z" fill="#ED893E"/>
<path d="M110.482 66.5757C110.221 66.8617 109.896 67.0919 109.531 67.2506C109.166 67.4094 108.768 67.4929 108.366 67.4957C107.334 67.4681 107.157 66.3641 107.724 65.4579C108.218 64.6391 109.382 63.6685 110.28 64.1331C111.178 64.5977 111.182 65.8305 110.482 66.5757Z" fill="#FFB573"/>
<path d="M105.105 60.8165C105.052 60.792 105.011 60.7491 104.992 60.6969C104.912 60.4564 104.775 60.2359 104.59 60.0525C104.405 59.8691 104.178 59.7276 103.925 59.6389C103.871 59.6249 103.824 59.5915 103.796 59.546C103.767 59.5004 103.759 59.4463 103.772 59.3951C103.779 59.3698 103.79 59.3461 103.807 59.3252C103.823 59.3044 103.844 59.287 103.868 59.274C103.893 59.2611 103.919 59.2529 103.947 59.25C103.974 59.2471 104.002 59.2495 104.029 59.2571C104.352 59.3619 104.644 59.536 104.882 59.7653C105.119 59.9946 105.295 60.2728 105.396 60.5773C105.406 60.6017 105.411 60.6278 105.409 60.6538C105.408 60.6799 105.401 60.7054 105.388 60.7288C105.376 60.7521 105.358 60.7728 105.337 60.7895C105.315 60.8062 105.29 60.8185 105.263 60.8257C105.211 60.8413 105.155 60.838 105.105 60.8165Z" fill="#263238"/>
<path d="M98.3162 59.2939C98.2602 59.2956 98.2056 59.2775 98.1633 59.2433C98.1244 59.2056 98.1027 59.1553 98.1027 59.103C98.1027 59.0507 98.1244 59.0004 98.1633 58.9627C98.3832 58.7255 98.6614 58.5415 98.974 58.4261C99.2867 58.3108 99.6246 58.2676 99.959 58.3003C100.015 58.3093 100.066 58.3383 100.1 58.3811C100.134 58.424 100.149 58.4774 100.142 58.5303C100.133 58.5821 100.103 58.6287 100.057 58.6597C100.012 58.6908 99.9554 58.7038 99.8998 58.6959C99.6351 58.6713 99.368 58.707 99.1213 58.7999C98.8747 58.8929 98.656 59.0403 98.4839 59.2295C98.4626 59.2508 98.4366 59.2677 98.4076 59.2788C98.3787 59.2899 98.3475 59.295 98.3162 59.2939Z" fill="#263238"/>
<path d="M104.109 61.5755L103.314 61.1431C103.314 61.1431 103.595 61.8653 104.109 61.5755Z" fill="#263238"/>
<path d="M103.851 94.2356L99.9047 93.5226L100.349 97.75C100.349 97.75 103.309 97.6304 104.996 96.37L105.154 95.818C104.971 94.9026 104.749 94.5668 103.851 94.2356Z" fill="#FFB573"/>
<path d="M97.5319 95.3258L97.9907 97.1152C98.0578 97.3722 98.2256 97.5964 98.4612 97.7437C98.6968 97.891 98.983 97.9507 99.2635 97.911L100.369 97.75L99.9246 93.5226L98.2423 94.093C97.9825 94.1817 97.7667 94.3563 97.6358 94.5835C97.5048 94.8107 97.4679 95.0748 97.5319 95.3258Z" fill="#FFB573"/>
<path d="M112.677 79.1199C113.876 81.2614 114.923 83.4741 115.81 85.7439C116.254 86.8801 116.673 88.0439 117.008 89.2353C117.374 90.4698 117.622 91.7321 117.748 93.0073C117.778 93.3431 117.793 93.6881 117.798 94.0377V94.1619V94.3597C117.786 94.4953 117.759 94.6293 117.719 94.7599C117.646 95.0135 117.533 95.2554 117.383 95.4775C117.155 95.8082 116.856 96.0915 116.505 96.3101C116.076 96.5762 115.603 96.7737 115.104 96.8943C114.726 96.9917 114.343 97.067 113.955 97.1197C112.61 97.2774 111.253 97.3252 109.9 97.2623C107.333 97.1519 104.779 96.8659 102.258 96.4067C101.985 96.3646 101.739 96.2279 101.569 96.0241C101.399 95.8203 101.318 95.5642 101.341 95.307C101.365 95.0498 101.492 94.8104 101.696 94.6365C101.901 94.4627 102.168 94.3671 102.445 94.3689C104.912 94.3275 107.408 94.2677 109.811 94.0975C110.961 94.0232 112.104 93.8694 113.23 93.6375C113.459 93.588 113.685 93.5234 113.905 93.4443C114.014 93.4162 114.116 93.3659 114.201 93.2971C114.107 93.3494 114.028 93.4239 113.974 93.5133C113.909 93.6102 113.859 93.7156 113.826 93.8261C113.809 93.8881 113.796 93.9511 113.787 94.0147C113.784 94.0453 113.784 94.0761 113.787 94.1067C113.787 93.8721 113.743 93.6467 113.703 93.3891C113.272 91.2572 112.599 89.1739 111.695 87.1745C110.802 85.0999 109.781 82.9885 108.735 80.9967V80.9599C108.523 80.4786 108.513 79.9404 108.708 79.4526C108.902 78.9648 109.286 78.5631 109.784 78.3276C110.282 78.0921 110.856 78.04 111.393 78.1818C111.93 78.3235 112.39 78.6486 112.682 79.0923L112.677 79.1199Z" fill="#FFB573"/>
<path d="M110.265 76.1713C113.091 76.6589 114.349 79.0279 116.402 83.7567C115.775 86.9399 110.758 88.6143 110.758 88.6143C110.758 88.6143 107.877 83.8533 107.305 81.3279C106.732 78.8025 107.413 75.6791 110.265 76.1713Z" fill="#E0E0E0"/>
<path d="M104.29 188.6C104.267 188.539 104.222 188.487 104.163 188.452C104.104 188.418 104.034 188.404 103.965 188.411L100.62 188.365C100.278 188.344 99.936 188.413 99.6334 188.563C98.1021 189.455 96.3822 190.028 94.5915 190.242C93.8811 190.343 94.2017 191.461 95.8791 191.48C98.6467 191.507 99.1499 191.314 101.513 191.337C103.531 191.36 102.569 191.443 104.172 191.48C104.557 191.48 104.873 191.254 104.823 191.02L104.29 188.6Z" fill="#263238"/>
<path d="M115.83 188.6C115.806 188.539 115.761 188.488 115.702 188.453C115.643 188.419 115.573 188.404 115.504 188.411L112.776 188.365C112.434 188.343 112.091 188.411 111.789 188.563C110.803 189.203 110.941 189.943 108.691 190.242C107.981 190.343 108.331 191.461 110.008 191.48C112.776 191.507 112.608 191.337 113.733 191.337C114.858 191.337 114.167 191.443 115.775 191.48C116.16 191.48 116.471 191.254 116.412 191.02L115.83 188.6Z" fill="#263238"/>
<path d="M98.6122 80.9186C100.013 80.9738 102.584 82.0456 103.407 83.191C104.572 82.064 109.12 79.4466 109.199 75.9C108.642 75.4008 107.941 75.0649 107.181 74.934C107.181 74.934 101.113 77.671 98.6122 80.9186Z" fill="#FAFAFA"/>
<path d="M96.3428 80.7346C96.3428 80.7346 95.9629 77.8688 99.6827 75.0858C99.3078 74.8006 97.8376 75.1226 97.8376 75.1226C97.8376 75.1226 93.4913 76.866 93.6196 81.3786C94.4028 80.8416 95.3798 80.6105 96.3428 80.7346Z" fill="#FAFAFA"/>
<path d="M95.7905 81.9489C95.2525 82.1835 95.0403 83.8165 95.7905 84.1983C96.5408 84.5801 96.4667 83.0207 96.9011 82.4871C97.3355 81.9535 96.7333 81.5395 95.7905 81.9489Z" fill="#FF1616"/>
<path d="M96.4514 82.5838C96.0664 83.0438 96.565 84.6078 97.3942 84.6032C98.2235 84.5986 97.5077 83.2232 97.6706 82.5424C97.8335 81.8616 97.1079 81.7742 96.4514 82.5838Z" fill="#FF1616"/>
<path d="M96.5649 83.7475C95.6423 82.4181 95.5782 89.4239 97.813 92.1839C97.665 89.4653 99.2289 85.6105 96.5649 83.7475Z" fill="#FF1616"/>
<path d="M96.481 83.6877C96.0715 82.3353 94.0143 88.2601 95.1539 91.1535C95.8002 88.8121 98.2126 85.9233 96.481 83.6877Z" fill="#FF1616"/>
<path d="M103.358 65.3659C103.573 65.2786 103.78 65.174 103.975 65.0531C103.986 65.0428 103.995 65.0307 104.001 65.0172C104.007 65.0038 104.01 64.9894 104.01 64.9749C104.01 64.9604 104.007 64.946 104.001 64.9326C103.995 64.9191 103.986 64.907 103.975 64.8967C103.954 64.8722 103.925 64.8558 103.892 64.8507C103.859 64.8456 103.825 64.8522 103.797 64.8691C103.357 65.1442 102.857 65.3238 102.333 65.3946C101.808 65.4655 101.274 65.4258 100.768 65.2785C100.753 65.2724 100.737 65.2691 100.721 65.2688C100.705 65.2686 100.689 65.2713 100.674 65.2768C100.658 65.2824 100.645 65.2907 100.633 65.3012C100.621 65.3118 100.612 65.3244 100.605 65.3383C100.594 65.367 100.596 65.3986 100.61 65.4262C100.624 65.4538 100.649 65.4751 100.679 65.4855C101.558 65.755 102.512 65.7124 103.358 65.3659Z" fill="#263238"/>
<path d="M89.0415 68.6089H63.8369V69.3725H89.0415V68.6089Z" fill="#FF1616"/>
<path d="M88.4395 69.3726H64.4387L65.4945 69.9062H87.3838L88.4395 69.3726Z" fill="#FF1616"/>
<path opacity="0.2" d="M88.4395 69.3726H64.4387L65.4945 69.9062H87.3838L88.4395 69.3726Z" fill="black"/>
<path d="M71.9131 48.1528C71.7656 48.1516 71.6244 48.0964 71.5201 47.9992C71.4158 47.902 71.3566 47.7704 71.3553 47.633V45.8896C71.3566 45.7521 71.4158 45.6205 71.5201 45.5233C71.6244 45.4261 71.7656 45.371 71.9131 45.3698C72.0606 45.371 72.2017 45.4261 72.3061 45.5233C72.4104 45.6205 72.4696 45.7521 72.4708 45.8896V47.633C72.4696 47.7704 72.4104 47.902 72.3061 47.9992C72.2017 48.0964 72.0606 48.1516 71.9131 48.1528Z" fill="#263238"/>
<path d="M72.8108 45.7837V45.5537C72.8108 45.3302 72.6163 45.1489 72.3764 45.1489H71.4485C71.2086 45.1489 71.0141 45.3302 71.0141 45.5537V45.7837C71.0141 46.0073 71.2086 46.1885 71.4485 46.1885H72.3764C72.6163 46.1885 72.8108 46.0073 72.8108 45.7837Z" fill="#263238"/>
<path d="M72.8058 51.9385V46.9659C72.8058 46.9118 72.7831 46.8598 72.7425 46.8211C72.7019 46.7825 72.6467 46.7601 72.5887 46.7589H71.2369C71.1789 46.7601 71.1237 46.7825 71.0831 46.8211C71.0426 46.8598 71.0199 46.9118 71.0199 46.9659V51.9385C71.02 52.3122 70.9353 52.6817 70.7712 53.0227C70.607 53.3636 70.3673 53.6682 70.0677 53.9165C69.7693 54.1666 69.5303 54.4722 69.3663 54.8137C69.2023 55.1552 69.1169 55.525 69.1156 55.8991V68.6549H74.7051V55.8991C74.7047 55.5248 74.6197 55.1548 74.4557 54.8132C74.2916 54.4716 74.0522 54.166 73.753 53.9165C73.4548 53.6675 73.2163 53.3625 73.0531 53.0217C72.8899 52.6809 72.8056 52.3118 72.8058 51.9385Z" fill="#FF1616"/>
<path d="M74.705 57.408H71.0149V65.6558H74.705V57.408Z" fill="#E0E0E0"/>
<path d="M79.9447 68.6089H79.2783C79.5002 68.6228 79.7228 68.6228 79.9447 68.6089Z" fill="#FF1616"/>
<path d="M83.9655 68.6089H83.2942C83.5177 68.6228 83.7419 68.6228 83.9655 68.6089Z" fill="#FF1616"/>
<path opacity="0.2" d="M79.0514 58.88V60.973C79.0514 62.6382 80.0677 64.0228 81.3553 64.193V67.873C81.3553 68.4388 80.7633 68.5998 80.3045 68.6366H82.9339C82.4751 68.5998 81.8831 68.4388 81.8831 67.873V64.193C83.1707 64.0274 84.187 62.6428 84.187 60.973V58.88H79.0514Z" fill="#FF1616"/>
<path d="M109.619 56.9112C107.645 57.6932 101.035 57.9324 98.4446 57.408C101.123 53.8798 107.142 52.8448 109.619 56.9112Z" fill="#263238"/>
<path d="M115.839 69.5151C115.82 69.5147 115.802 69.5104 115.785 69.5025C115.767 69.4945 115.753 69.4831 115.741 69.4691C115.677 69.3863 114.221 67.3899 114.192 62.0447C114.192 59.8137 113.457 58.0197 112.218 57.1135C111.897 56.8656 111.517 56.6915 111.11 56.6052C110.703 56.519 110.28 56.5229 109.875 56.6167C109.859 56.62 109.843 56.6204 109.827 56.6178C109.811 56.6152 109.795 56.6097 109.782 56.6016C109.768 56.5934 109.756 56.5829 109.747 56.5705C109.737 56.5581 109.731 56.5441 109.727 56.5293C109.723 56.5145 109.723 56.4992 109.726 56.4842C109.729 56.4693 109.735 56.455 109.743 56.4422C109.752 56.4294 109.763 56.4183 109.777 56.4095C109.79 56.4008 109.805 56.3946 109.821 56.3913C110.261 56.2936 110.719 56.2913 111.161 56.3846C111.602 56.4779 112.014 56.6643 112.366 56.9295C113.674 57.8817 114.429 59.7447 114.443 62.0401C114.473 67.3025 115.923 69.3173 115.923 69.3357C115.933 69.348 115.94 69.362 115.943 69.3768C115.947 69.3916 115.947 69.407 115.945 69.4219C115.942 69.4369 115.936 69.4512 115.927 69.464C115.918 69.4769 115.907 69.488 115.894 69.4967C115.877 69.5063 115.859 69.5126 115.839 69.5151Z" fill="#263238"/>
<path d="M151.34 42.4351C152.716 44.1923 152.712 46.9293 152.243 48.4151C149.776 47.3709 150.161 44.3717 150.161 44.3717L151.34 42.4351Z" fill="#263238"/>
<path d="M158.715 64.1838L160.136 65.642L161.616 67.1232C162.603 68.103 163.59 69.0598 164.606 69.9798C165.099 70.4398 165.592 70.8998 166.12 71.3046C166.648 71.7094 167.107 72.1418 167.625 72.5144C168.143 72.887 168.612 73.2182 169.07 73.5034C169.416 73.7194 169.779 73.9101 170.156 74.0738L169.401 73.9634C169.177 73.9382 168.951 73.9853 168.76 74.0968C168.76 74.0968 168.878 74.0968 169.046 74.0048C169.504 73.7431 169.929 73.4346 170.314 73.0848C171.324 72.1898 172.268 71.2324 173.141 70.219C174.083 69.1656 175 68.0432 175.913 66.907C176.826 65.7708 177.738 64.607 178.636 63.4616L178.681 63.411C178.995 63.0241 179.445 62.7523 179.953 62.6429C180.46 62.5336 180.992 62.5935 181.457 62.8124C181.922 63.0312 182.289 63.3951 182.496 63.8407C182.703 64.2863 182.735 64.7854 182.588 65.251C182.088 66.7048 181.51 68.1341 180.856 69.5336C180.21 70.9136 179.495 72.2936 178.686 73.6736C177.846 75.1089 176.876 76.474 175.785 77.7538C175.134 78.5104 174.4 79.2011 173.594 79.8146C173.06 80.2171 172.476 80.557 171.853 80.8266C170.938 81.2241 169.936 81.4163 168.927 81.3878C168.741 81.3813 168.556 81.3582 168.375 81.3188L168.168 81.2774C167.087 81.0359 166.042 80.6729 165.055 80.1964C164.228 79.8038 163.429 79.3628 162.662 78.8762C161.255 77.9934 159.914 77.0237 158.646 75.9736C157.403 74.9662 156.249 73.9128 155.129 72.841C154.576 72.2982 154.024 71.7554 153.496 71.1942C152.968 70.633 152.46 70.0856 151.902 69.4462C151.28 68.6037 151.015 67.5762 151.157 66.5618C151.299 65.5475 151.839 64.6181 152.672 63.953C153.506 63.2878 154.574 62.9339 155.671 62.9596C156.767 62.9852 157.815 63.3885 158.612 64.0918L158.715 64.1838Z" fill="#E0E0E0"/>
<path d="M180.846 65.9456L185.242 66.1434L183.816 60.6234C183.816 60.6234 179.727 60.904 179.07 62.8636C179.002 63.0821 179.016 63.316 179.11 63.526L179.919 65.3338C179.995 65.5073 180.123 65.6569 180.287 65.7653C180.452 65.8736 180.646 65.9361 180.846 65.9456Z" fill="#FF8B7B"/>
<path d="M189.164 62.8682L188.315 61.0282C188.15 60.6716 187.855 60.3809 187.482 60.2074C187.109 60.034 186.683 59.9891 186.278 60.0806L183.811 60.6464L185.237 66.1664L188.197 65.0532C188.417 64.9722 188.617 64.8507 188.786 64.6959C188.955 64.5411 189.088 64.3562 189.178 64.1522C189.268 63.9483 189.314 63.7295 189.311 63.5089C189.309 63.2883 189.259 63.0704 189.164 62.8682Z" fill="#FF8B7B"/>
<path d="M148.321 142.388C143.654 123.248 140.768 100.17 140.768 100.17L159.904 99.8844C159.904 99.8844 159.638 130.985 159.677 144.012C159.726 157.559 160.733 187.372 160.733 187.372H154.926C154.926 187.372 147.433 159.132 148.321 142.388Z" fill="#263238"/>
<path d="M146.831 115.98L143.802 120.166C144.705 125.391 145.775 131.146 147.023 136.786C147.546 128.119 147.457 118.05 146.831 115.98Z" fill="black"/>
<path d="M168.479 190.026C168.479 190.026 160.482 188.269 159.88 187.087H155.44L155.469 191.47H158.212L158.632 191.066L159.327 191.47C161.547 191.47 167.447 191.388 168.844 190.923C168.871 190.757 168.852 190.587 168.788 190.43C168.724 190.272 168.618 190.133 168.479 190.026Z" fill="#263238"/>
<path d="M130.521 141.85C132.736 122.599 132.667 109.738 135.366 100.252L152.79 100.009C152.79 100.009 145.533 130.543 142.164 143.249C138.794 155.954 133.027 187.363 133.027 187.363H127.65C127.65 187.363 125.958 156.736 130.521 141.85Z" fill="#263238"/>
<path d="M133.985 104.001C133.6 106.301 132.228 119.908 130.807 124.862C142.426 129.669 160.186 127.779 160.733 124.66C160.57 118.882 160.24 104.001 160.24 104.001H133.985Z" fill="#E0E0E0"/>
<path opacity="0.1" d="M134.631 106.527C135.442 107.753 136.422 108.874 137.546 109.862C137.546 109.862 135.04 109.443 134.631 106.527Z" fill="black"/>
<path opacity="0.1" d="M157.985 109.733C158.652 108.807 159.192 107.807 159.594 106.757C159.594 106.757 159.708 109.107 157.985 109.733Z" fill="black"/>
<path opacity="0.1" d="M134.739 108.261C135.007 109.182 135.404 110.067 135.919 110.892C135.449 110.626 135.082 110.228 134.87 109.755C134.658 109.283 134.612 108.76 134.739 108.261Z" fill="black"/>
<path d="M138.04 190.026C138.04 190.026 133.052 188.269 132.48 187.087H128.04L127.951 191.47H131.587L132.016 191.066L132.702 191.47C134.922 191.47 136.969 191.388 138.38 190.923C138.414 190.759 138.4 190.589 138.34 190.432C138.28 190.274 138.176 190.134 138.04 190.026Z" fill="#263238"/>
<path d="M134.724 61.8471C140.881 61.1341 149.672 61.2031 155.568 62.1507C157.041 62.3997 158.393 63.0742 159.432 64.0788C160.471 65.0835 161.146 66.3673 161.36 67.7489C162.598 76.0519 161.532 90.5603 160.743 105.165C147.275 109.462 133.067 105.105 133.067 105.105C132.573 102.161 133.678 92.5061 134.418 87.3541C133.308 82.0319 130.965 75.9369 129.396 68.8667C129.206 68.0758 129.196 67.2564 129.366 66.4615C129.537 65.6667 129.885 64.9141 130.387 64.2524C130.889 63.5908 131.535 63.0348 132.282 62.6205C133.029 62.2061 133.861 61.9426 134.724 61.8471Z" fill="#263238"/>
<path opacity="0.1" d="M134.724 61.8471C140.881 61.1341 149.672 61.2031 155.568 62.1507C157.041 62.3997 158.393 63.0742 159.432 64.0788C160.471 65.0835 161.146 66.3673 161.36 67.7489C162.598 76.0519 161.532 90.5603 160.743 105.165C147.275 109.462 133.067 105.105 133.067 105.105C132.573 102.161 133.678 92.5061 134.418 87.3541C133.308 82.0319 130.965 75.9369 129.396 68.8667C129.206 68.0758 129.196 67.2564 129.366 66.4615C129.537 65.6667 129.885 64.9141 130.387 64.2524C130.889 63.5908 131.535 63.0348 132.282 62.6205C133.029 62.2061 133.861 61.9426 134.724 61.8471Z" fill="white"/>
<path d="M140.817 50.8853L147.823 56.2442C146.915 58.4936 146.629 60.8442 150.585 61.732C151.572 62.951 150.092 65.09 148.336 65.9226C144.182 65.0394 141.789 63.9998 140.176 61.9344C140.684 60.3152 141.493 54.2111 140.817 50.8853Z" fill="#FF8B7B"/>
<path opacity="0.2" d="M143.738 53.1208L147.823 56.2397C147.601 56.7597 147.436 57.299 147.329 57.8497C145.746 57.9555 143.545 56.4697 143.447 55.1172C143.411 54.4407 143.51 53.7639 143.738 53.1208Z" fill="black"/>
<path d="M139.811 47.2328C140.452 51.3314 140.6 53.7602 143.022 55.683C146.668 58.5764 151.957 56.2212 152.647 52.003C153.264 48.2172 152.114 42.1498 147.64 40.8802C146.647 40.5986 145.594 40.5569 144.579 40.7589C143.565 40.961 142.622 41.4002 141.839 42.0353C141.056 42.6704 140.459 43.4805 140.105 44.3897C139.75 45.2989 139.649 46.2772 139.811 47.2328Z" fill="#FF8B7B"/>
<path d="M139.771 49.1234C140.223 49.5798 140.806 49.9047 141.452 50.059C142.097 50.2132 142.776 50.1902 143.407 49.9928C142.352 48.9946 143.378 45.3422 142.322 43.8564C144.364 44.2336 152.317 45.31 153.077 42.7386C153.901 39.9786 150.61 37.7752 148.765 37.5682C149.308 38.7182 149.258 39.5508 147.236 39.1782C145.213 38.8056 136.875 37.0116 137.798 40.6548C135.114 40.6548 134.932 44.298 136.895 46.0414C137.971 46.9686 138.935 48.002 139.771 49.1234Z" fill="#263238"/>
<path d="M138.291 40.48C136.683 40.1074 137.186 38.7274 137.546 38.5848C136.042 38.9252 135.494 40.3052 137.31 40.94C139.125 41.5748 138.291 40.48 138.291 40.48Z" fill="#263238"/>
<path d="M138.573 49.749C138.722 50.1981 138.966 50.6151 139.289 50.9759C139.613 51.3367 140.01 51.6342 140.457 51.8512C141.666 52.4262 142.544 51.4786 142.43 50.2918C142.337 49.22 141.602 47.633 140.28 47.5318C139.989 47.5183 139.699 47.573 139.437 47.6909C139.174 47.8088 138.948 47.9861 138.778 48.2067C138.608 48.4272 138.5 48.684 138.465 48.9534C138.429 49.2229 138.466 49.4964 138.573 49.749Z" fill="#FF8B7B"/>
<path d="M145.982 47.38C146.012 47.7158 146.229 47.9734 146.476 47.955C146.723 47.9366 146.881 47.6422 146.851 47.311C146.822 46.9798 146.604 46.7176 146.358 46.736C146.111 46.7544 145.953 47.0442 145.982 47.38Z" fill="#263238"/>
<path d="M150.284 47.2834C150.314 47.6192 150.531 47.8768 150.778 47.8538C151.025 47.8308 151.178 47.5456 151.148 47.2098C151.119 46.874 150.901 46.621 150.655 46.6394C150.408 46.6578 150.255 46.9476 150.284 47.2834Z" fill="#263238"/>
<path d="M149.411 47.7343C149.93 48.723 150.594 49.6395 151.384 50.4575C150.797 51.0647 149.692 50.9175 149.692 50.9175L149.411 47.7343Z" fill="#FF5652"/>
<path d="M145.317 46.3128C145.283 46.3217 145.247 46.3217 145.213 46.3128C145.187 46.3037 145.162 46.2897 145.142 46.2717C145.122 46.2536 145.105 46.2318 145.094 46.2077C145.083 46.1836 145.078 46.1577 145.078 46.1315C145.078 46.1053 145.083 46.0793 145.095 46.0552C145.213 45.7599 145.405 45.495 145.655 45.2822C145.904 45.0695 146.205 44.9151 146.531 44.8316C146.587 44.8213 146.644 44.8319 146.692 44.8612C146.739 44.8906 146.771 44.9362 146.783 44.988C146.794 45.0399 146.782 45.0937 146.751 45.1377C146.719 45.1817 146.67 45.2123 146.615 45.2226C146.357 45.2908 146.119 45.4151 145.923 45.5855C145.726 45.7558 145.576 45.9673 145.484 46.2024C145.469 46.2326 145.445 46.2585 145.416 46.2778C145.387 46.2971 145.352 46.3092 145.317 46.3128Z" fill="#263238"/>
<path d="M152.782 45.7792C152.746 45.7794 152.711 45.771 152.68 45.7549C152.649 45.7388 152.622 45.7155 152.604 45.6872C152.472 45.4722 152.288 45.2895 152.066 45.1543C151.843 45.0191 151.59 44.9352 151.325 44.9098C151.298 44.9092 151.27 44.9035 151.245 44.893C151.219 44.8825 151.196 44.8674 151.177 44.8486C151.158 44.8298 151.142 44.8077 151.132 44.7835C151.122 44.7592 151.117 44.7334 151.118 44.7074C151.121 44.6545 151.145 44.6047 151.187 44.5686C151.228 44.5325 151.283 44.513 151.34 44.5142C151.675 44.5426 151.997 44.6451 152.28 44.8132C152.564 44.9812 152.8 45.2099 152.969 45.4802C152.997 45.5251 153.006 45.5783 152.993 45.6288C152.98 45.6793 152.947 45.7233 152.9 45.7516C152.865 45.7736 152.823 45.7833 152.782 45.7792Z" fill="#263238"/>
<path d="M140.176 61.9345C140.176 61.9345 147.364 72.1189 150.097 79.3041C152.791 70.8723 153.101 64.1241 150.59 61.7321C149.781 62.6843 146.525 63.9723 140.176 61.9345Z" fill="#E0E0E0"/>
<path d="M137.724 69.46L137.028 71.3L136.338 73.2136C135.879 74.4878 135.46 75.7666 135.07 77.0224C134.872 77.6526 134.7 78.2782 134.542 78.8946C134.384 79.511 134.231 80.1228 134.123 80.707C134.014 81.2912 133.93 81.857 133.876 82.363C133.848 82.7505 133.848 83.1393 133.876 83.5268L133.619 82.8552C133.412 82.4918 133.2 82.3952 133.19 82.3952C133.18 82.3952 133.259 82.4872 133.412 82.5884C133.871 82.8409 134.36 83.0446 134.868 83.1956C136.179 83.6066 137.519 83.9355 138.878 84.18C140.324 84.4468 141.814 84.64 143.318 84.87C144.823 85.1 146.372 85.261 147.862 85.4588H147.931C148.451 85.5282 148.928 85.7672 149.278 86.1332C149.627 86.4993 149.826 86.9689 149.84 87.4588C149.854 87.9487 149.681 88.4273 149.352 88.8097C149.023 89.1922 148.56 89.4538 148.045 89.5482C146.437 89.8327 144.815 90.0415 143.185 90.1738C141.557 90.3118 139.914 90.3808 138.252 90.3716C136.499 90.3686 134.749 90.2255 133.022 89.9438C132.009 89.7674 131.017 89.4945 130.062 89.1296C129.427 88.8852 128.827 88.5668 128.277 88.182C127.466 87.6235 126.807 86.8957 126.353 86.0568C126.269 85.9006 126.201 85.7373 126.15 85.5692L126.096 85.3806C125.808 84.3792 125.651 83.349 125.627 82.3124C125.603 81.448 125.638 80.583 125.731 79.7226C125.889 78.1509 126.161 76.591 126.545 75.0536C126.895 73.554 127.339 72.105 127.818 70.6744C128.064 69.9614 128.311 69.253 128.587 68.5492C128.864 67.8454 129.14 67.1692 129.48 66.4102C129.925 65.4187 130.767 64.6275 131.826 64.2039C132.886 63.7804 134.081 63.7577 135.158 64.1407C136.235 64.5237 137.11 65.2823 137.598 66.2561C138.086 67.23 138.149 68.3426 137.773 69.3588L137.724 69.46Z" fill="#E0E0E0"/>
<path d="M148.562 86.0523L152.923 86.5583L150.516 91.7609C150.516 91.7609 146.535 90.8409 146.249 88.7985C146.22 88.5727 146.278 88.3448 146.411 88.1545L147.536 86.5031C147.644 86.3455 147.798 86.2196 147.98 86.1398C148.161 86.0601 148.363 86.0297 148.562 86.0523Z" fill="#FF8B7B"/>
<path d="M156.194 90.4084L155.02 92.1012C154.793 92.4266 154.449 92.6661 154.049 92.7773C153.65 92.8885 153.221 92.8641 152.84 92.7084L150.516 91.7608L152.924 86.5582L155.642 88.1268C155.841 88.2413 156.013 88.3916 156.149 88.5689C156.284 88.7462 156.381 88.9469 156.432 89.1594C156.484 89.3719 156.489 89.5918 156.448 89.8062C156.407 90.0207 156.321 90.2254 156.194 90.4084Z" fill="#FF8B7B"/>
<path d="M140.526 60.3521C139.61 60.4877 138.77 60.9094 138.143 61.5481C140.097 63.9788 142.881 65.7151 146.037 66.47C145.81 65.7662 146.491 63.71 147.24 62.974C144.483 62.5922 140.526 60.3521 140.526 60.3521Z" fill="#FAFAFA"/>
<path d="M148.104 60.605C149.039 60.7635 149.928 61.1036 150.713 61.6032C150.713 61.6032 153.476 64.4782 150.22 66.102C150.442 65.3982 148.74 63.5214 147.216 62.974C149.969 62.5922 148.104 60.605 148.104 60.605Z" fill="#FAFAFA"/>
<path d="M147.522 64.6117C145.341 63.5215 142.642 62.3393 143.392 64.2483C144.142 66.1573 143.151 66.8197 144.127 67.4683C145.104 68.1169 147.087 66.3367 147.744 66.0883C148.4 65.8399 147.522 64.6117 147.522 64.6117Z" fill="#FF1616"/>
<path d="M149.066 64.5978C150.728 63.5536 152.81 62.422 152.44 64.285C152.07 66.148 152.988 66.7966 152.263 67.4268C151.537 68.057 149.672 66.2952 149.08 66.0468C148.488 65.7984 149.066 64.5978 149.066 64.5978Z" fill="#FF1616"/>
<path d="M147.225 64.4645C147.719 64.1885 148.923 63.8389 149.519 64.5887C150.116 65.3385 149.924 66.5943 149.1 66.7461C148.806 66.8016 148.501 66.7817 148.218 66.6885C147.935 66.5954 147.684 66.4325 147.492 66.2171C147.675 65.9422 147.748 65.6161 147.7 65.2957C147.651 64.9754 147.483 64.6812 147.225 64.4645Z" fill="#FF1616"/>
<path d="M133.328 187.51L127.344 187.666L127.028 184.506L133.979 184.892L133.328 187.51Z" fill="black"/>
<path d="M160.945 187.501L154.483 187.666L153.767 184.929L160.985 184.276L160.945 187.501Z" fill="black"/>
<path d="M146.86 84.9805C143.838 84.1474 140.722 83.6457 137.576 83.4855C136.905 83.5223 136.648 97.6581 136.703 103.44C136.703 104.222 146.352 104.066 148.819 103.712C148.957 102.097 148.987 90.3119 149.628 86.6273C149.677 86.339 149.621 86.0438 149.469 85.7887C149.317 85.5336 149.078 85.3332 148.789 85.2197C148.178 84.9899 147.515 84.9076 146.86 84.9805Z" fill="white"/>
<path d="M197.373 62.353H169.983V63.0798H197.373V62.353Z" fill="#FF1616"/>
<path d="M196.801 63.0798H170.555L171.562 63.5904H195.799L196.801 63.0798Z" fill="#FF1616"/>
<path opacity="0.2" d="M196.801 63.0798H170.555L171.562 63.5904H195.799L196.801 63.0798Z" fill="black"/>
<path d="M184.808 52.0858C184.809 52.2943 184.743 52.4984 184.62 52.6723C184.496 52.8461 184.32 52.9819 184.114 53.0623C183.907 53.1427 183.68 53.1642 183.461 53.1241C183.241 53.084 183.039 52.984 182.881 52.8369C182.722 52.6898 182.614 52.5021 182.57 52.2976C182.526 52.0931 182.549 51.8811 182.634 51.6884C182.719 51.4956 182.864 51.3308 183.05 51.2149C183.236 51.0989 183.454 51.037 183.678 51.037C183.826 51.0364 183.973 51.0631 184.11 51.1155C184.247 51.1679 184.372 51.2451 184.477 51.3426C184.582 51.44 184.665 51.5558 184.722 51.6834C184.779 51.8109 184.808 51.9477 184.808 52.0858Z" fill="#FF1616"/>
<path d="M195.519 58.9812C194.758 56.7848 193.311 54.85 191.365 53.4244L191.67 53.061C193.696 54.5443 195.201 56.5576 195.992 58.8432L195.519 58.9812Z" fill="#FF1616"/>
<path d="M189.653 52.3664C189.1 52.0818 188.524 51.8373 187.931 51.635L188.099 51.2026C188.716 51.4191 189.314 51.679 189.889 51.98L189.653 52.3664Z" fill="#FF1616"/>
<path d="M183.678 52.0858C180.707 52.0858 177.857 53.1864 175.756 55.1456C173.655 57.1047 172.474 59.7618 172.474 62.5324H194.882C194.882 59.7618 193.701 57.1047 191.6 55.1456C189.499 53.1864 186.649 52.0858 183.678 52.0858Z" fill="#FF1616"/>
<path opacity="0.3" d="M174.019 61.5986H176.914C177.015 61.5969 177.111 61.5631 177.187 61.5027C177.264 61.4424 177.316 61.3592 177.334 61.2674C177.916 58.4062 179.746 55.913 182.657 53.7464C182.723 53.6969 182.77 53.6287 182.791 53.5521C182.811 53.4756 182.805 53.3948 182.772 53.322C182.739 53.2492 182.682 53.1884 182.608 53.1488C182.535 53.1092 182.45 53.0929 182.366 53.1024C180.165 53.3733 178.118 54.3048 176.534 55.7563C174.951 57.2077 173.917 59.1002 173.589 61.1478C173.582 61.2044 173.587 61.2619 173.605 61.3165C173.623 61.3711 173.654 61.4214 173.694 61.4641C173.735 61.5068 173.785 61.5409 173.841 61.5641C173.897 61.5873 173.957 61.599 174.019 61.5986Z" fill="white"/>
<path d="M148.035 52.1134C148.265 52.1228 148.497 52.112 148.725 52.0812C148.756 52.0756 148.783 52.059 148.801 52.0348C148.818 52.0107 148.825 51.9811 148.819 51.9524C148.811 51.9224 148.791 51.8962 148.764 51.8784C148.737 51.8607 148.704 51.8527 148.671 51.8558C148.156 51.9273 147.63 51.889 147.132 51.7441C146.635 51.5991 146.18 51.3511 145.8 51.0186C145.789 51.0076 145.775 50.9988 145.76 50.9929C145.746 50.9869 145.73 50.9838 145.713 50.9838C145.697 50.9838 145.681 50.9869 145.666 50.9929C145.651 50.9988 145.638 51.0076 145.627 51.0186C145.606 51.0406 145.594 51.0693 145.594 51.0991C145.594 51.1289 145.606 51.1576 145.627 51.1796C146.28 51.7555 147.136 52.0878 148.035 52.1134Z" fill="#263238"/>
</svg>
