<svg width="247" height="230" viewBox="0 0 247 230" fill="none" xmlns="http://www.w3.org/2000/svg">
<path d="M125.777 196.678C72.949 196.678 30.1237 194.346 30.1237 191.47C30.1237 188.595 72.949 186.263 125.777 186.263C178.604 186.263 221.43 188.595 221.43 191.47C221.43 194.346 178.604 196.678 125.777 196.678Z" fill="#F5F5F5"/>
<path d="M180.177 191.47H182.15" stroke="#FF1616" stroke-linecap="round" stroke-linejoin="round"/>
<path d="M185.88 191.47H236.274" stroke="#FF1616" stroke-linecap="round" stroke-linejoin="round" stroke-dasharray="7.57 7.57"/>
<path d="M238.139 191.47H240.112" stroke="#FF1616" stroke-linecap="round" stroke-linejoin="round"/>
<path d="M62.7498 81.3607L119.673 82.2408L118.991 120.558L62.0683 119.678L62.7498 81.3607Z" fill="#FF1616"/>
<path opacity="0.3" d="M85.3138 81.7048L119.729 82.2369L119.048 120.554L84.6324 120.022L85.3138 81.7048Z" fill="white"/>
<path opacity="0.3" d="M80.1277 84.2867L90.0388 84.4716L89.9836 87.0476L80.0724 86.8627L80.1277 84.2867Z" fill="white"/>
<path opacity="0.3" d="M79.8334 114.083L89.7432 114.236L89.6974 116.812L79.7876 116.659L79.8334 114.083Z" fill="white"/>
<path d="M73.2265 105.887C70.0141 105.887 67.41 103.14 67.41 99.751C67.41 96.362 70.0141 93.6146 73.2265 93.6146C76.4388 93.6146 79.0429 96.362 79.0429 99.751C79.0429 103.14 76.4388 105.887 73.2265 105.887Z" stroke="white" stroke-miterlimit="10"/>
<path d="M72.9847 94.5485V95.5789" stroke="white" stroke-linecap="round" stroke-linejoin="round"/>
<path d="M72.7332 103.988V105.018" stroke="white" stroke-linecap="round" stroke-linejoin="round"/>
<path d="M78.1302 99.5486H77.0196" stroke="white" stroke-linecap="round" stroke-linejoin="round"/>
<path d="M69.2205 99.5532H68.11" stroke="white" stroke-linecap="round" stroke-linejoin="round"/>
<path d="M72.9897 99.5486L72.9852 96.3746" stroke="white" stroke-width="0.5" stroke-linecap="round" stroke-linejoin="round"/>
<path d="M72.7726 99.7556L70.3652 102" stroke="white" stroke-width="0.5" stroke-linecap="round" stroke-linejoin="round"/>
<path d="M72.4514 99.5532C72.4514 99.6523 72.4829 99.7493 72.542 99.8317C72.6011 99.9142 72.6852 99.9785 72.7835 100.016C72.8818 100.054 72.9899 100.064 73.0943 100.045C73.1987 100.026 73.2945 99.9779 73.3698 99.9077C73.445 99.8376 73.4962 99.7483 73.517 99.651C73.5378 99.5537 73.5271 99.4529 73.4864 99.3613C73.4457 99.2697 73.3767 99.1914 73.2882 99.1363C73.1998 99.0812 73.0958 99.0518 72.9894 99.0518C72.9185 99.0512 72.8483 99.0637 72.7827 99.0887C72.7171 99.1137 72.6576 99.1506 72.6075 99.1973C72.5574 99.2439 72.5178 99.2995 72.491 99.3606C72.4642 99.4217 72.4507 99.4872 72.4514 99.5532Z" fill="white"/>
<path opacity="0.3" d="M73.2265 107.511C68.9733 107.511 65.5255 104.037 65.5255 99.751C65.5255 95.4652 68.9733 91.9908 73.2265 91.9908C77.4796 91.9908 80.9274 95.4652 80.9274 99.751C80.9274 104.037 77.4796 107.511 73.2265 107.511Z" fill="white"/>
<path d="M137.182 167.049C136.324 167.661 119.092 165.931 123.547 137.425C123.547 137.425 115.372 139.362 114.494 139.233C114.494 139.233 102.501 156.377 111.233 164.869C119.965 173.36 132.979 173.88 132.979 173.88L137.182 167.049Z" fill="#FF1616"/>
<path opacity="0.3" d="M137.182 167.049C136.324 167.661 119.092 165.931 123.547 137.425C123.547 137.425 115.372 139.362 114.494 139.233C114.494 139.233 102.501 156.377 111.233 164.869C119.965 173.36 132.979 173.88 132.979 173.88L137.182 167.049Z" fill="black"/>
<path d="M118.085 141.836C118.041 141.836 122.9 141.924 124.528 140.038C126.156 138.152 127.257 134.78 124.297 132.48C121.337 130.18 103.956 120.244 95.7719 119.462C87.5874 118.68 78.8258 123.602 78.8258 123.602L89.541 130.99L112.614 136.197L118.085 141.836Z" fill="#263238"/>
<path d="M133.798 162.559L133.349 166.681L128.041 166.262L128.84 162.026L133.798 162.559Z" fill="#FFC3BD"/>
<path d="M134.829 166.382L127.128 166.281L126.581 169.906C126.581 169.906 133.793 169.998 136.758 169.63C139.723 169.262 139.259 167.822 139.259 167.822C139.259 167.822 135.786 167.9 134.829 166.382Z" fill="#263238"/>
<path d="M67.6233 176.815C66.4734 166.278 73.2958 157 82.8616 156.093C92.4274 155.185 101.114 162.991 102.264 173.528C103.414 184.065 96.5915 193.343 87.0257 194.25C77.4599 195.158 68.7731 187.352 67.6233 176.815Z" fill="#263238"/>
<path d="M97.0447 116.513C97.0447 116.513 96.2455 133.612 106.911 134.099C117.577 134.587 129.038 133.497 129.038 133.497L125.678 164.22L135.678 164.795C135.678 164.795 142.856 138.731 143.986 132.181C145.115 125.631 144.134 120.998 136.719 118.091C129.304 115.184 97.0447 116.513 97.0447 116.513Z" fill="#FF1616"/>
<path d="M156.733 170.761L143.448 134.78L125.688 116.5C125.688 116.5 141.188 116.555 148.638 120.548C156.087 124.54 156.363 129.338 157.73 135.047C159.096 140.755 164.577 167.776 164.577 167.776L156.733 170.761Z" fill="#FF1616"/>
<path opacity="0.7" d="M97.0447 116.513C97.0447 116.513 113.552 115.828 125.658 116.513C125.658 116.513 141.159 116.569 148.608 120.561C156.058 124.554 156.363 129.338 157.73 135.047C159.096 140.755 164.577 167.776 164.577 167.776L156.733 170.761L143.448 134.78C141.213 144.753 135.678 164.777 135.678 164.777L125.678 164.22L129.042 133.515C129.042 133.515 117.587 134.605 106.916 134.118C96.2455 133.63 97.0447 116.513 97.0447 116.513Z" fill="black"/>
<path d="M124.297 88.78L130.429 89.4746C130.429 89.4746 131.494 99.9856 132.486 102.028C132.486 102.028 151.346 104.443 159.072 104.236L162.994 106.72L163.132 111.039L159.289 111.145L158.051 108.408C158.051 108.408 155.456 108.302 154.854 106.941C154.854 106.941 134.815 111.453 127.434 106.301C127.424 106.306 122.975 100.211 124.297 88.78Z" fill="#FFC3BD"/>
<path d="M106.724 60.6326C106.724 60.6326 104.805 62.9326 105.535 64.9244C105.737 65.4924 106.092 66.0024 106.566 66.4053C107.04 66.8082 107.618 67.0902 108.243 67.2244C108.243 67.2244 108.604 70.4122 110.621 70.5042C112.639 70.5962 111.963 63.48 111.963 63.48L106.724 60.6326Z" fill="#263238"/>
<path d="M122.259 116.592L123.606 96.0434L131.963 90.8638C131.963 90.8638 129.23 81.88 124.001 80.3574C118.771 78.8348 107.365 75.3434 100.449 77.0776C93.5322 78.8118 94.3265 86.4202 95.5154 92.0644L96.8474 92.3588C96.8474 92.3588 97.0546 114.6 97.0645 116.513L122.259 116.592Z" fill="#263238"/>
<path d="M107.222 78.3473C109.96 80.8175 115.545 82.2895 117.089 81.0613C118.633 79.8331 116.684 78.7061 115.234 77.3169C114.45 76.5533 114.474 75.1227 114.657 73.9819C114.753 73.4071 114.895 72.8397 115.081 72.2845C120.207 72.0223 122.333 69.7867 122.545 65.8445C122.757 61.9023 120.843 57.3253 120.843 57.3253L117.222 54.4457C117.222 54.4457 112.289 55.1357 108.342 57.6657C105.994 59.1561 106.689 62.0909 107.661 64.2575C108.073 65.1797 108.568 66.0677 109.141 66.9117C109.694 72.3075 107.222 78.3473 107.222 78.3473Z" fill="#FFC3BD"/>
<path d="M119.694 66.9301C119.694 66.9301 117.72 67.0175 116.857 65.8767" stroke="#263238" stroke-linecap="round" stroke-linejoin="round"/>
<path d="M116.551 62.2748C116.551 62.6244 116.778 62.9004 117.044 62.8958C117.311 62.8912 117.503 62.6014 117.494 62.2518C117.484 61.9022 117.266 61.6262 117 61.6308C116.733 61.6354 116.536 61.9252 116.551 62.2748Z" fill="#263238"/>
<path d="M121.05 62.3853C121.05 62.7349 121.277 63.0109 121.544 63.0063C121.81 63.0017 122.003 62.7119 121.993 62.3623C121.983 62.0127 121.766 61.7367 121.499 61.7413C121.233 61.7459 121.035 62.0403 121.05 62.3853Z" fill="#263238"/>
<path d="M119.486 65.2418L119.688 62.422L121.134 65.0992C120.909 65.278 120.629 65.3876 120.334 65.4131C120.039 65.4386 119.743 65.3788 119.486 65.2418Z" fill="#ED847E"/>
<path d="M116.788 60.0668C116.41 59.9699 116.007 60.0013 115.651 60.1554C115.295 60.3096 115.009 60.5765 114.844 60.9086" stroke="#263238" stroke-linecap="round" stroke-linejoin="round"/>
<path d="M122.442 60.5866C122.442 60.5866 121.534 59.6666 120.468 59.9012" stroke="#263238" stroke-linecap="round" stroke-linejoin="round"/>
<path d="M107.627 64.2574C113.271 64.446 113.971 58.4798 113.971 58.4798C116.763 59.8598 120.824 57.3298 120.824 57.3298L117.202 54.441C117.202 54.441 112.269 55.1402 108.322 57.661C105.959 59.156 106.655 62.1 107.627 64.2574Z" fill="#263238"/>
<path d="M122.639 59.0778C122.639 59.0778 125.56 57.2654 124.272 55.959C122.984 54.6526 115.096 57.1366 109.201 60.1818C109.201 60.1818 122.703 51.7592 126.374 54.4226C129.408 56.626 122.678 59.685 122.881 59.6804L122.639 59.0778Z" fill="#FF1616"/>
<path d="M106.167 58.4614C106.175 59.4153 106.369 60.3598 106.739 61.249L120 55.269C119.45 54.6775 118.792 54.1821 118.056 53.8062C117.271 53.3876 116.418 53.0924 115.53 52.9322C114.589 52.7644 113.625 52.7334 112.674 52.8402C107.824 53.36 106.142 56.8376 106.167 58.4614Z" fill="#FF1616"/>
<path d="M164.893 119.356C164.893 119.356 179.871 138.676 167.537 168.415" stroke="#263238" stroke-linecap="round" stroke-linejoin="round"/>
<path d="M145.125 129.393C145.125 129.393 145.125 129.43 145.125 129.504C145.125 129.577 145.125 129.619 145.125 129.702V129.748C145.303 131.608 145.633 133.454 146.112 135.268C146.793 137.949 147.696 140.502 148.441 142.554C151.598 151.271 151.233 160.664 151.233 160.664C152.279 159.45 154.193 158.585 156.585 157.978C165.298 155.747 180.088 156.943 180.088 156.943C182.989 147.453 181.953 132.6 179.067 124.283C176.181 115.966 168.179 117.843 168.179 117.843C168.179 117.843 159.733 118.073 158.672 117.967C156.731 117.748 154.766 117.785 152.836 118.077C146.314 119.191 144.745 123.998 145.125 129.393Z" fill="#FF1616"/>
<path d="M80.0986 165.6C94.8987 178.057 123.468 179.363 144.726 177.983L156.635 158.005L161.46 149.914L145.959 130.433L145.14 129.407C145.14 129.407 145.14 129.444 145.14 129.518C145.14 129.591 145.14 129.633 145.14 129.715V129.761C145.352 133.234 146.724 161.106 135.767 167.941L135.678 168.001C134.195 168.895 132.475 169.385 130.71 169.418C110.607 169.961 111.169 145.498 116.28 140.259L81.3961 133.722C81.3961 133.722 74.5091 149.891 80.0986 165.6Z" fill="#FF1616"/>
<path d="M118.9 134.955C118.9 134.955 122.17 137.485 120.483 140.88C118.796 144.274 102.531 137.683 96.1271 136.482C89.7236 135.281 82.3137 134.108 79.1268 133.497C75.9398 132.885 76.2161 124.361 78.8209 123.607C81.4257 122.852 106.941 127.057 111.174 129.366C113.969 130.948 116.561 132.824 118.9 134.955Z" fill="#263238"/>
<path d="M110.71 66.3642C111.021 66.0517 111.21 65.6501 111.245 65.2249C111.28 64.7996 111.159 64.3759 110.903 64.0228C110.113 62.9188 108.52 61.1662 106.99 62.4772C104.849 64.3172 108.505 67.6614 110.019 66.8518C110.273 66.7204 110.506 66.5563 110.71 66.3642Z" fill="#FFC3BD"/>
<path opacity="0.2" d="M122.639 59.0778C122.639 59.0778 125.56 57.2654 124.272 55.959C123.7 55.3794 121.988 55.499 119.674 56.1154C118.186 56.4889 116.729 56.9608 115.313 57.5276C113.28 58.351 111.12 59.4044 109.201 60.1818C109.201 60.1818 122.703 51.7592 126.374 54.4226C129.408 56.626 123.098 59.4826 122.876 59.6758L122.767 59.3032L122.639 59.0778Z" fill="black"/>
<path d="M121.252 58.2913C121.252 58.2913 124.213 58.7513 122.17 61.7229L121.252 58.2913Z" fill="#263238"/>
<path d="M118.416 56.4788C118.416 56.4788 122.881 55.016 124.124 55.844C125.367 56.672 124.065 58.2498 122.644 59.064L121.504 59.202L120.833 57.316L119.097 57.1182L118.416 56.4788Z" fill="#263238"/>
<path opacity="0.3" d="M112.333 54.2294L113.404 55.706L118.056 53.82C117.271 53.4015 116.418 53.1062 115.53 52.946L112.333 54.2294Z" fill="white"/>
<path opacity="0.1" d="M113.368 71.8796C113.676 72.6431 114.118 73.3535 114.676 73.9818C114.773 73.407 114.914 72.8397 115.101 72.2844C114.502 72.2455 113.916 72.1084 113.368 71.8796Z" fill="black"/>
<path d="M157.597 112.332C157.794 115.52 159.274 118.128 161.09 118.772C161.404 118.885 161.74 118.933 162.076 118.915C164.316 118.795 165.944 115.662 165.717 111.923C165.49 108.183 163.487 105.248 161.247 105.368C160.335 105.414 159.531 105.961 158.904 106.84C157.982 108.1 157.464 110.115 157.597 112.332Z" fill="#F5F5F5"/>
<path d="M157.597 112.332C157.794 115.52 159.274 118.128 161.09 118.772C163.162 118.662 164.666 115.768 164.454 112.332C164.242 108.896 162.397 106.168 160.325 106.278C159.791 106.316 159.286 106.518 158.889 106.853C157.982 108.1 157.464 110.115 157.597 112.332Z" fill="white"/>
<path d="M77.6418 157.518C81.4553 155.02 96.211 152.568 96.211 152.568C105.175 152.568 113.044 160.089 114.129 170.076C115.017 178.199 111.169 185.573 104.968 188.936C104.968 188.936 104.45 189.138 103.581 189.456C100.296 190.665 91.9584 193.596 87.03 194.24" fill="#263238"/>
<path opacity="0.3" d="M67.6233 176.815C66.4734 166.278 73.2958 157 82.8616 156.093C92.4274 155.185 101.114 162.991 102.264 173.528C103.414 184.065 96.5915 193.343 87.0257 194.25C77.4599 195.158 68.7731 187.352 67.6233 176.815Z" fill="black"/>
<path d="M144.317 176.202C143.167 165.665 149.99 156.387 159.555 155.479C169.121 154.572 177.808 162.378 178.958 172.915C180.108 183.452 173.285 192.73 163.719 193.637C154.154 194.545 145.467 186.739 144.317 176.202Z" fill="#263238"/>
<path d="M150.996 158.994L159.817 193.527C161.104 193.721 162.412 193.757 163.709 193.632H163.808C165.5 193.228 164.745 193.665 166.442 193.14C170.759 191.811 177.029 189.46 177.029 189.46C183.675 186.447 187.429 179.119 186.516 170.747C185.411 160.604 177.607 153.028 168.421 153.649C168.421 153.649 164.06 154.399 159.57 155.489C157.597 155.949 155.624 156.497 154 157.067C152.926 157.604 151.918 158.251 150.996 158.994Z" fill="#263238"/>
<path opacity="0.3" d="M144.316 176.18C145.303 185.265 151.899 192.317 159.827 193.508C161.114 193.703 162.422 193.738 163.719 193.614H163.818C165.624 193.432 167.38 192.944 168.998 192.174C175.663 189.023 179.881 181.369 178.958 172.905C177.809 162.375 169.141 154.578 159.58 155.471H159.555C157.614 155.654 155.73 156.19 154.01 157.049C152.935 157.587 151.928 158.235 151.006 158.981C146.285 162.808 143.537 169.229 144.316 176.18Z" fill="black"/>
<path d="M146.719 164.082C147.008 163.652 147.338 163.247 147.705 162.872C149.911 160.066 154.953 159.017 158.253 159.266C160.783 159.496 163.212 160.309 165.322 161.63C167.73 163.084 169.452 165.31 171.839 166.837C176.368 169.754 183.24 169.671 187.789 166.667C188.045 166.497 188.289 166.311 188.519 166.111C188.983 165.661 189.292 165.092 189.407 164.478C189.581 163.71 189.518 162.913 189.225 162.178C188.238 159.592 184.947 157.32 182.87 155.935C178.66 153.165 173.707 151.54 168.564 151.239C153.897 150.296 147.641 161.975 146.719 164.082Z" fill="#FF1616"/>
<path opacity="0.3" d="M147.735 164.45C150.888 160.209 154.933 159.017 158.234 159.266C160.764 159.496 163.193 160.308 165.303 161.63C167.711 163.084 169.432 165.31 171.82 166.837C176.349 169.754 183.221 169.671 187.77 166.667C188.026 166.497 188.27 166.311 188.5 166.111C188.963 165.661 189.272 165.092 189.388 164.478C189.562 163.71 189.498 162.913 189.205 162.178C187.681 163.82 183.241 167.776 177.227 165.858C169.728 163.443 167.898 156.267 159.881 156.331C153.512 156.4 149.59 161 147.735 164.45Z" fill="black"/>
<g opacity="0.3">
<path opacity="0.3" d="M180.724 154.67C178.585 153.253 176.178 152.224 173.63 151.639C171.08 151.034 168.438 150.832 165.816 151.041C163.198 151.276 160.634 151.884 158.213 152.844L157.316 153.212L156.437 153.622C155.845 153.879 155.288 154.201 154.716 154.496C154.143 154.79 153.616 155.153 153.068 155.48C152.52 155.807 152.007 156.188 151.484 156.552C153.636 155.208 155.933 154.078 158.337 153.18C160.736 152.282 163.265 151.72 165.84 151.51C168.411 151.281 171.004 151.436 173.522 151.97C174.786 152.231 176.025 152.588 177.227 153.037C178.446 153.475 179.618 154.022 180.724 154.67Z" fill="black"/>
</g>
<g opacity="0.3">
<path opacity="0.3" d="M164.749 151.381C165.365 149.463 165.734 147.484 165.85 145.484C166.013 143.492 166.048 141.491 166.003 139.504C165.959 137.517 165.811 135.511 165.613 133.524L165.253 130.553C165.095 129.564 164.957 128.575 164.759 127.59L165.208 133.57L165.386 136.551C165.416 137.545 165.48 138.538 165.485 139.532C165.569 141.519 165.529 143.506 165.45 145.512C165.416 146.505 165.332 147.494 165.223 148.483C165.137 149.458 164.978 150.427 164.749 151.381Z" fill="black"/>
</g>
<path opacity="0.3" d="M135.791 167.9C146.092 161.722 146.502 145.783 146.151 135.268C146.087 133.46 146.008 131.818 145.949 130.405C145.841 128.992 145.841 127.573 145.949 126.16C146.99 118.938 152.91 118.068 152.91 118.068H152.885C146.329 119.191 144.76 123.998 145.14 129.393C145.14 129.393 145.14 129.43 145.14 129.504C145.14 129.577 145.14 129.619 145.14 129.702V129.748C145.362 133.221 146.734 161.092 135.791 167.9Z" fill="black"/>
<path opacity="0.2" d="M136.63 113.464C137.493 114.305 148.658 112.148 150.606 113.114C151.43 113.519 151.79 114.954 152.619 116.527C154.948 119.977 158.223 120.52 158.426 120.548C154.518 117.788 153.428 111.145 155.367 106.945C157.306 102.746 164.247 103.836 164.642 103.96C163.458 103.475 162.185 103.208 160.892 103.173C157.138 102.989 152.56 103.974 151.277 106.191C148.672 110.713 137.503 109.696 136.477 110.883C135.451 112.07 135.767 112.622 136.63 113.464Z" fill="black"/>
<path d="M145.372 109.448C146.051 110.616 146.321 111.952 146.146 113.27L136.689 114.264C136.206 113.742 135.848 113.13 135.642 112.468C135.435 111.806 135.383 111.11 135.49 110.428C135.49 110.428 144.859 109.549 145.372 109.448Z" fill="#263238"/>
<path d="M174.089 109.121C174.089 109.121 175.031 107.254 173.902 106.071C176.427 105.86 177.991 105.611 179.619 105.391C179.861 106.076 179.979 106.734 179.126 107.778C178.273 108.822 174.089 109.121 174.089 109.121Z" fill="#263238"/>
<path d="M179.343 120.81C180.981 123.298 182.382 127.282 182.505 133.644" stroke="#FF1616" stroke-linecap="round" stroke-linejoin="round"/>
<path d="M173.951 116.707C175.142 116.964 176.238 117.516 177.123 118.303" stroke="#FF1616" stroke-linecap="round" stroke-linejoin="round"/>
<path d="M100.38 92.7268L106.606 93.4352C106.606 93.4352 107.691 104.103 108.697 106.177C108.697 106.177 127.844 108.634 135.693 108.417L139.674 110.938L139.812 115.327L135.91 115.432L134.652 112.672C134.652 112.672 132.017 112.567 131.411 111.182C131.411 111.182 111.065 115.782 103.572 110.538C103.577 110.52 99.0527 104.333 100.38 92.7268Z" fill="#FFC3BD"/>
<path opacity="0.2" d="M151.075 174.8C151.252 180.587 155.318 185.168 160.157 185.04C160.808 185.021 161.452 184.918 162.071 184.731C165.949 183.581 168.741 179.317 168.588 174.326C168.435 169.496 165.579 165.503 161.825 164.395C161.075 164.17 160.289 164.066 159.501 164.087C154.661 164.22 150.892 169.032 151.075 174.8Z" fill="#FAFAFA"/>
<path d="M155.53 174.8C155.683 179.74 158.49 183.802 162.071 184.745C165.949 183.595 168.741 179.331 168.588 174.34C168.435 169.51 165.579 165.517 161.825 164.409C158.095 165.352 155.377 169.685 155.53 174.8Z" fill="#263238"/>
<path opacity="0.2" d="M75.0617 175.26C75.2443 181.047 79.3093 185.633 84.144 185.5C84.7947 185.484 85.4395 185.38 86.0582 185.191C89.9407 184.041 92.733 179.782 92.5752 174.786C92.4272 169.961 89.5707 165.963 85.8165 164.855C85.0663 164.63 84.2805 164.526 83.4928 164.547C78.6532 164.68 74.8841 169.482 75.0617 175.26Z" fill="#FAFAFA"/>
<path d="M79.5166 175.26C79.6744 180.196 82.4766 184.258 86.0582 185.201C89.9407 184.051 92.733 179.791 92.5752 174.795C92.4272 169.97 89.5708 165.973 85.8165 164.864C82.0819 165.807 79.3587 170.14 79.5166 175.26Z" fill="#263238"/>
<path d="M67.4346 160.016C67.3507 165.706 76.6403 169.473 92.1853 171.847C96.3755 172.534 100.658 172.58 104.864 171.985C111.771 170.922 115.145 168.199 115.145 168.199C115.145 168.199 113.389 148.534 96.0086 146.041C84.1686 144.348 75.2589 148.801 70.74 153.599C68.6137 155.853 67.4593 158.194 67.4346 160.016Z" fill="#FF1616"/>
<path opacity="0.3" d="M67.4346 160.016C67.3508 165.706 76.6403 169.473 92.1853 171.847C96.3755 172.534 100.658 172.58 104.864 171.985C104.119 166.644 100.774 152.637 86.2357 151.184C79.6398 150.521 74.5485 151.763 70.74 153.599C68.6137 155.853 67.4593 158.194 67.4346 160.016Z" fill="black"/>
<g opacity="0.3">
<path opacity="0.3" d="M114.139 168.286C113.819 165.61 113.134 162.982 112.101 160.466C111.086 157.925 109.683 155.533 107.938 153.364C107.055 152.286 106.064 151.289 104.978 150.388C103.901 149.472 102.714 148.675 101.44 148.014C98.9064 146.682 96.0985 145.865 93.2016 145.618C94.6211 145.839 96.0175 146.175 97.3752 146.62C98.061 146.814 98.7072 147.113 99.3486 147.366C99.9921 147.653 100.619 147.971 101.228 148.318C101.85 148.649 102.422 149.049 103.009 149.422C103.596 149.794 104.139 150.236 104.657 150.701C105.71 151.593 106.67 152.578 107.523 153.64C109.256 155.767 110.669 158.106 111.721 160.591C112.268 161.828 112.739 163.094 113.132 164.381C113.551 165.663 113.887 166.967 114.139 168.286Z" fill="black"/>
</g>
<path d="M137.464 161.791L136.438 165.039L125.678 164.202L125.535 159.661L137.464 161.791Z" fill="#FF1616"/>
<path d="M73.404 139.642L49.7288 138.745" stroke="#FF1616" stroke-linecap="round" stroke-linejoin="round"/>
<path d="M41.9045 134.725L38.387 134.591" stroke="#FF1616" stroke-linecap="round" stroke-linejoin="round"/>
<path d="M62.0573 135.488L44.603 134.826" stroke="#FF1616" stroke-linecap="round" stroke-linejoin="round"/>
<path d="M49.8422 146.915L35.2148 146.363" stroke="#FF1616" stroke-linecap="round" stroke-linejoin="round"/>
<path d="M58.8851 147.26L52.5112 147.016" stroke="#FF1616" stroke-linecap="round" stroke-linejoin="round"/>
</svg>
