<svg width="195" height="175" viewBox="0 0 195 175" fill="none" xmlns="http://www.w3.org/2000/svg">
<g clip-path="url(#clip0_1_3766)">
<path d="M124.801 158.016L124.324 151.24C121.201 149.645 117.743 148.852 114.252 148.932C119.164 152.811 118.77 160.563 122.172 165.869C123.245 167.515 124.667 168.894 126.333 169.903C127.999 170.911 129.865 171.524 131.794 171.695L135.881 174.098C136.349 170.94 136.141 167.717 135.272 164.649C134.403 161.582 132.893 158.743 130.847 156.329C129.686 154.987 128.364 153.799 126.912 152.794C126.019 155.415 124.801 158.016 124.801 158.016Z" fill="#F2F2F2"/>
<path d="M100.454 175H194.03C194.11 175 194.186 174.968 194.242 174.911C194.298 174.853 194.33 174.775 194.33 174.694C194.33 174.613 194.298 174.535 194.242 174.477C194.186 174.42 194.11 174.388 194.03 174.388H100.454C100.374 174.388 100.298 174.42 100.242 174.477C100.185 174.535 100.154 174.613 100.154 174.694C100.154 174.775 100.185 174.853 100.242 174.911C100.298 174.968 100.374 175 100.454 175Z" fill="#CCCCCC"/>
<path d="M40.8746 101.88V102.011H40.964C40.9316 101.969 40.9018 101.926 40.8746 101.88ZM41.5628 46.2906C35.3165 54.5904 31.9354 64.7696 31.9473 75.2394C31.9487 76.8337 32.0251 78.4056 32.1766 79.9549C32.2 80.2211 32.2271 80.4873 32.2623 80.7494C33.1301 88.4543 35.8394 95.8229 40.1514 102.206C40.3185 102.456 40.4896 102.702 40.6608 102.949C42.5171 105.608 44.6362 108.064 46.9848 110.28C65.8916 128.118 95.3714 126.918 112.83 107.601C113.098 107.311 113.355 107.017 113.607 106.723C120.753 98.454 124.864 87.9049 125.237 76.8807C125.609 65.8566 122.22 55.0429 115.649 46.2906C115.45 46.0244 115.248 45.7582 115.038 45.496C114.578 44.9041 114.101 44.3241 113.607 43.756C113.355 43.462 113.098 43.168 112.83 42.878C108.471 38.0477 103.179 34.1932 97.2883 31.5579C91.3977 28.9227 85.0363 27.5639 78.6058 27.5674C78.1587 27.5674 77.7153 27.5753 77.272 27.5873C76.9765 27.5952 76.681 27.6071 76.3856 27.623C69.7667 27.944 63.2911 29.7044 57.3913 32.7866C51.4914 35.8687 46.3032 40.2017 42.1732 45.496C41.9632 45.7582 41.7612 46.0244 41.5628 46.2906ZM40.964 102.011C40.9316 101.969 40.9018 101.926 40.8746 101.88V102.011H40.964Z" fill="white"/>
<path d="M40.548 101.392L40.6801 101.117L50.5795 80.7496V80.7456L50.9645 79.9551V79.9511L67.3181 46.2907V46.2867L67.7032 45.4962L67.707 45.4922L75.9889 28.4376L76.3856 27.6232C76.6811 27.6073 76.9766 27.5954 77.272 27.5874L76.8794 28.3978L68.5742 45.4922V45.4962L68.1892 46.2867V46.2907L51.4076 80.8291L51.4038 80.833L41.5044 101.217L41.1156 102.011L41.0534 102.142L40.6607 102.949C40.4895 102.703 40.3184 102.456 40.1514 102.206L40.548 101.392Z" fill="#3F3D56"/>
<path d="M51.2407 79.9551V80.7496H32.2624C32.2273 80.4874 32.2001 80.2212 32.1768 79.9551H51.2407Z" fill="#3F3D56"/>
<path d="M80.7339 86.1524V85.3579H99.7122C99.7474 85.6201 99.7745 85.8863 99.7979 86.1524H80.7339Z" fill="#3F3D56"/>
<path d="M96.6079 83.3843H97.3856V102.775C97.1289 102.811 96.8684 102.839 96.6079 102.862V83.3843Z" fill="#3F3D56"/>
<path d="M115.649 46.2905C115.45 46.0243 115.248 45.7581 115.039 45.4959H113.608V43.7559C113.355 43.4619 113.098 43.1679 112.83 42.8779V45.4959H42.1734C41.9634 45.7581 41.7614 46.0243 41.563 46.2905H112.83V107.601C113.098 107.311 113.355 107.017 113.608 106.723V46.2905H115.649Z" fill="#3F3D56"/>
<path d="M113.218 101.216H40.8735V102.011H113.218V101.216Z" fill="#3F3D56"/>
<path d="M40.8746 101.88V102.011H40.964C40.9316 101.969 40.9018 101.926 40.8746 101.88ZM41.5628 46.2906C35.3165 54.5904 31.9354 64.7696 31.9473 75.2394C31.9487 76.8337 32.0251 78.4056 32.1766 79.9549C32.2 80.2211 32.2271 80.4873 32.2623 80.7494C33.1301 88.4543 35.8394 95.8229 40.1514 102.206C40.3185 102.456 40.4896 102.702 40.6608 102.949C42.5171 105.608 44.6362 108.064 46.9848 110.28C65.8916 128.118 95.3714 126.918 112.83 107.601C113.098 107.311 113.355 107.017 113.607 106.723C120.753 98.454 124.864 87.9049 125.237 76.8807C125.609 65.8566 122.22 55.0429 115.649 46.2906C115.45 46.0244 115.248 45.7582 115.038 45.496C114.578 44.9041 114.101 44.3241 113.607 43.756C113.355 43.462 113.098 43.168 112.83 42.878C108.471 38.0477 103.179 34.1932 97.2883 31.5579C91.3977 28.9227 85.0363 27.5639 78.6058 27.5674C78.1587 27.5674 77.7153 27.5753 77.272 27.5873C76.9765 27.5952 76.681 27.6071 76.3856 27.623C69.7667 27.944 63.2911 29.7044 57.3913 32.7866C51.4914 35.8687 46.3032 40.2017 42.1732 45.496C41.9632 45.7582 41.7612 46.0244 41.5628 46.2906ZM33.0437 80.7494C33.0088 80.4873 32.9816 80.2211 32.9543 79.9549C31.7691 67.8888 35.2058 55.8228 42.5427 46.2905C42.7486 46.0244 42.9548 45.7582 43.1686 45.496C47.1871 40.488 52.1787 36.3863 57.8279 33.4501C63.4772 30.5138 69.6612 28.807 75.989 28.4374C76.2844 28.4215 76.58 28.4056 76.8794 28.3977C77.4509 28.3738 78.0263 28.3619 78.6058 28.3619C85.0717 28.358 91.465 29.7545 97.3642 32.4593C103.263 35.1642 108.534 39.1159 112.83 44.0539C113.098 44.3559 113.358 44.6578 113.607 44.9677C113.759 45.1424 113.903 45.3172 114.043 45.496C114.257 45.7582 114.463 46.0244 114.669 46.2905C121.206 54.7711 124.672 65.3008 124.479 76.0943C124.285 86.8877 120.445 97.2807 113.607 105.511C113.359 105.821 113.098 106.123 112.83 106.425C110.462 109.142 107.793 111.569 104.876 113.655C84.1401 128.483 55.5659 123.328 41.0534 102.142C41.0223 102.099 40.9912 102.055 40.964 102.011C40.9316 101.969 40.9018 101.926 40.8746 101.88C40.7619 101.717 40.653 101.554 40.548 101.391C36.4638 95.2246 33.8901 88.1451 33.0437 80.7494ZM40.964 102.011C40.9316 101.969 40.9018 101.926 40.8746 101.88V102.011H40.964Z" fill="#CCCCCC"/>
<path d="M132.342 126.442H85.7923C85.2232 126.442 84.6775 126.21 84.275 125.799C83.8725 125.388 83.6461 124.83 83.6455 124.249V101.074C83.6461 100.493 83.8725 99.9352 84.275 99.524C84.6775 99.1128 85.2232 98.8815 85.7923 98.8809H132.342C132.912 98.8815 133.457 99.1128 133.86 99.524C134.262 99.9352 134.489 100.493 134.489 101.074V124.249C134.489 124.83 134.262 125.388 133.86 125.799C133.457 126.21 132.912 126.442 132.342 126.442Z" fill="#CACACA"/>
<path d="M111.838 124.577C101.643 124.577 91.013 124.478 87.0466 124.413C86.5248 124.402 86.0278 124.183 85.6619 123.803C85.2959 123.423 85.0899 122.912 85.0879 122.378V101.076C85.0881 100.885 85.1623 100.702 85.2943 100.567C85.4263 100.431 85.6053 100.355 85.7923 100.354H132.341C132.528 100.355 132.707 100.431 132.839 100.565C132.972 100.7 133.046 100.883 133.047 101.074V115.527C133.038 117.887 132.125 120.148 130.503 121.828C128.881 123.507 126.679 124.469 124.37 124.509C120.674 124.558 116.296 124.577 111.838 124.577Z" fill="#E4E4E4"/>
<path d="M127.537 113.672H89.6609C89.4154 113.671 89.1759 113.594 88.9751 113.449C88.7744 113.304 88.6223 113.1 88.5395 112.864L84.2527 100.576C84.1887 100.392 84.1688 100.196 84.1945 100.003C84.2203 99.8099 84.291 99.6261 84.4007 99.4669C84.5104 99.3077 84.656 99.1777 84.8251 99.0879C84.9941 98.9981 85.1819 98.9511 85.3724 98.9508L132.718 98.8833H132.719C132.916 98.8833 133.11 98.9333 133.284 99.0287C133.457 99.1241 133.605 99.262 133.713 99.4301C133.822 99.5981 133.888 99.791 133.905 99.9915C133.923 100.192 133.891 100.394 133.814 100.579L128.631 112.935C128.539 113.153 128.387 113.34 128.192 113.471C127.998 113.602 127.77 113.672 127.537 113.672Z" fill="#CACACA"/>
<path d="M100.639 122.188H87.5784C87.2569 122.188 86.9487 122.057 86.7215 121.825C86.4943 121.592 86.3667 121.277 86.3667 120.949C86.3667 120.62 86.4943 120.305 86.7215 120.073C86.9487 119.84 87.2569 119.709 87.5784 119.709H100.639C100.961 119.709 101.269 119.84 101.496 120.073C101.723 120.305 101.851 120.62 101.851 120.949C101.851 121.277 101.723 121.592 101.496 121.825C101.269 122.057 100.961 122.188 100.639 122.188Z" fill="#CACACA"/>
<path d="M108.997 116.702C110.635 116.702 111.963 115.346 111.963 113.672C111.963 111.998 110.635 110.642 108.997 110.642C107.359 110.642 106.031 111.998 106.031 113.672C106.031 115.346 107.359 116.702 108.997 116.702Z" fill="#3F3D56"/>
<path d="M14.9928 6.2662C22.2803 1.02259 31.3081 -1.04842 40.0901 0.508778C48.8721 2.06597 56.689 7.12381 61.8212 14.5696C72.5083 30.0748 83.232 70.7331 75.6621 94.2867C53.0831 69.9189 18.395 67.3868 6.86588 54.1118C-5.45334 39.9269 -0.182684 17.1855 14.9928 6.2662Z" fill="#FF1616"/>
<path d="M34.8004 41.3763C40.8537 41.3763 45.7609 36.3625 45.7609 30.1776C45.7609 23.9928 40.8537 18.979 34.8004 18.979C28.7471 18.979 23.8398 23.9928 23.8398 30.1776C23.8398 36.3625 28.7471 41.3763 34.8004 41.3763Z" fill="white"/>
<path d="M84.9275 106.482C88.8923 106.482 92.1064 103.198 92.1064 99.1474C92.1064 95.0964 88.8923 91.8125 84.9275 91.8125C80.9626 91.8125 77.7485 95.0964 77.7485 99.1474C77.7485 103.198 80.9626 106.482 84.9275 106.482Z" fill="#FF1616"/>
<path opacity="0.2" d="M23.0739 27.5939C22.3482 28.8638 21.8743 30.2674 21.6795 31.7245C21.4847 33.1815 21.5726 34.6635 21.9384 36.0859C22.3041 37.5082 22.9404 38.843 23.8111 40.0141C24.6817 41.1851 25.7695 42.1695 27.0125 42.911C28.2555 43.6525 29.6292 44.1366 31.0553 44.3357C32.4814 44.5348 33.9319 44.4449 35.324 44.0712C36.7161 43.6976 38.0225 43.0474 39.1686 42.1579C40.3148 41.2683 41.2783 40.1569 42.004 38.8869C40.0476 40.6405 37.5443 41.6254 34.942 41.6655C32.3398 41.7056 29.8086 40.7981 27.8013 39.1056C25.7941 37.4131 24.4419 35.0459 23.9868 32.4278C23.5317 29.8098 24.0034 27.1116 25.3174 24.8164C24.4278 25.6125 23.6702 26.5505 23.0739 27.5939Z" fill="#231F20"/>
<path opacity="0.2" d="M6.84522 54.1644C18.3743 67.4395 53.0624 69.9716 75.6414 94.3393C76.3462 92.1108 76.8886 89.832 77.2644 87.5217C54.6966 65.3692 21.9396 62.5696 10.8004 49.7435C0.830603 38.2639 2.38255 21.1812 11.3802 9.29492C-0.959919 20.9822 -4.44418 41.1653 6.84522 54.1644Z" fill="#231F20"/>
<path d="M150.15 101.067L145.495 99.6187C143.469 102.115 141.789 109.345 141.789 109.345L135.419 119.922C135.078 120.087 134.786 120.341 134.571 120.659C134.357 120.976 134.229 121.346 134.199 121.73C134.169 122.114 134.238 122.5 134.401 122.848C134.563 123.196 134.812 123.495 135.123 123.713C135.434 123.932 135.796 124.062 136.172 124.093C136.548 124.123 136.925 124.051 137.266 123.885C137.607 123.719 137.898 123.464 138.112 123.146C138.325 122.828 138.453 122.458 138.482 122.074L148.123 110.115L150.15 101.067Z" fill="#FFB6B6"/>
<path d="M150.061 102.222L150.921 95.0228L148.993 91.7327C148.612 91.0882 148.062 90.5654 147.406 90.2234C146.75 89.8813 146.013 89.7336 145.278 89.7971C144.284 89.8899 143.361 90.3651 142.696 91.1267C142.031 91.8884 141.674 92.8795 141.697 93.8998C141.769 96.994 142.246 100.907 144.108 101.976L144.127 101.987L150.061 102.222Z" fill="#FF1616"/>
<path d="M163.21 167.273L160.419 168.649L153.894 158.304L158.014 156.272L163.21 167.273Z" fill="#FFB6B6"/>
<path d="M164.714 170.199L156.131 174.432L156.078 174.322C155.651 173.416 155.592 172.374 155.917 171.425C156.241 170.476 156.92 169.697 157.806 169.26L158.8 167.272L162.3 167.044L163.049 166.675L164.714 170.199Z" fill="#2F2E41"/>
<path d="M142.433 171.129L139.334 171.129L137.859 158.914L142.434 158.914L142.433 171.129Z" fill="#FFB6B6"/>
<path d="M142.543 174.433L133.012 174.432V174.309C133.012 173.304 133.403 172.34 134.098 171.629C134.794 170.918 135.738 170.519 136.721 170.519H136.722L138.463 169.169L141.711 170.519L142.543 170.519L142.543 174.433Z" fill="#2F2E41"/>
<path d="M139.362 114.48L135.81 139.504L136.777 142.796L135.508 145.128L137.371 162.68L136.615 164.381L138.727 165.712H143.026L143.254 147.171L144.316 144.449V142.949L146.477 131.643L146.976 149.243L147.666 150.603C150.236 156.562 153.699 158.513 156.147 162.967L160.446 160.588L160.355 158.814C161.219 158.367 159.059 157.061 158.851 156.096L158.475 154.366L155.968 149.059L155.872 147.19L156.558 134.479L156.235 117.361L150.597 112.956L139.362 114.48Z" fill="#2F2E41"/>
<path d="M144.942 84.1273C148.026 84.1273 150.527 81.5727 150.527 78.4213C150.527 75.27 148.026 72.7153 144.942 72.7153C141.858 72.7153 139.357 75.27 139.357 78.4213C139.357 81.5727 141.858 84.1273 144.942 84.1273Z" fill="#FFB6B6"/>
<path d="M136.69 125.275L136.609 125.246L137.69 121.656C137.548 121.194 137.521 120.703 137.611 120.227C137.701 119.751 137.905 119.305 138.206 118.93C138.031 118.621 137.31 117.161 138.484 115.921C138.414 115.559 138.061 113.418 139.293 112.372C139.293 112.372 141.683 93.8641 143.023 88.9756C143.062 88.6179 142.748 85.6979 144.551 85.5834C145.502 85.5231 146.929 85.4308 149.071 85.2897C149.347 85.2694 149.509 85.7467 149.755 86.5236C149.921 87.0492 149.066 87.7674 149.273 87.7555L149.287 87.7546L149.301 87.7584C151.299 88.3057 153.052 89.5391 154.264 91.2511C155.477 92.9632 156.075 95.0496 155.959 97.1595L155.323 108.218C155.419 108.663 157.447 121.273 156.917 122.627C156.616 123.395 157.129 123.873 157.503 124.223C157.696 124.403 157.835 124.533 157.816 124.675C157.808 124.714 157.791 124.75 157.765 124.781C157.74 124.811 157.708 124.835 157.671 124.849C157.332 125.022 157.52 126.208 157.717 126.916L157.737 126.988L157.672 127.022C157.596 127.062 151.536 124.222 144.174 124.222C141.399 124.222 139.795 126.381 136.69 125.275Z" fill="#FF1616"/>
<path d="M149.368 81.9294C149.31 81.8989 149.259 81.8563 149.218 81.8043C149.177 81.7523 149.148 81.6921 149.131 81.6276L149.051 81.2964L149.296 81.5569C149.427 81.4462 149.527 81.3021 149.586 81.1393C149.645 80.9764 149.661 80.8005 149.633 80.6293C149.604 80.4581 149.532 80.2976 149.423 80.1641C149.314 80.0306 149.173 79.9288 149.013 79.8689C148.906 79.8322 148.795 79.8047 148.683 79.7869C148.566 79.7677 148.45 79.7392 148.337 79.7016C148.073 79.5849 147.845 79.3965 147.678 79.1568C147.511 78.9172 147.412 78.6355 147.39 78.3422C147.354 77.825 147.41 77.3054 147.556 76.8088C145.092 77.1956 142.579 77.1184 140.142 76.5811C139.766 76.5002 139.407 76.3556 139.078 76.1535C138.476 75.7889 137.975 75.2738 137.622 74.6567C137.575 74.5735 137.556 74.4772 137.566 74.3819C137.577 74.2866 137.617 74.1973 137.681 74.1271C137.726 74.0781 137.78 74.0389 137.839 74.012C137.899 73.9851 137.964 73.9709 138.029 73.9705L137.94 73.7238C137.912 73.6467 137.905 73.5635 137.919 73.4825C137.933 73.4016 137.967 73.3258 138.019 73.263C138.071 73.2002 138.138 73.1525 138.214 73.1249C138.29 73.0973 138.371 73.0907 138.45 73.1057L138.766 73.1661L138.736 72.9516C138.725 72.8716 138.734 72.79 138.763 72.7148C138.792 72.6396 138.839 72.5734 138.901 72.5228C138.963 72.4721 139.036 72.4388 139.114 72.426C139.192 72.4132 139.272 72.4215 139.346 72.45C139.414 72.476 139.487 72.4867 139.559 72.4814C139.631 72.4761 139.702 72.4548 139.765 72.419C139.828 72.3833 139.884 72.3339 139.926 72.2743C139.969 72.2147 139.999 72.1463 140.014 72.0738L140.123 71.5344L140.134 71.5058C140.668 70.5956 141.696 69.934 142.952 69.6905C144.073 69.4735 145.217 69.5831 146.323 69.689C146.793 69.6988 147.254 69.8177 147.671 70.0369C147.86 70.1483 148.015 70.3111 148.119 70.5073C148.223 70.7035 148.271 70.9252 148.259 71.1479C149.348 70.8055 150.518 71.4875 151.096 72.3468C151.783 73.3688 151.894 74.6509 151.914 75.6536C151.961 78.0239 151.483 79.9632 150.494 81.4177C150.352 81.6646 150.137 81.8594 149.881 81.9743C149.815 81.9967 149.747 82.008 149.678 82.0077C149.57 82.0082 149.464 81.9813 149.368 81.9294Z" fill="#2F2E41"/>
<path d="M149.569 104.396L145.47 101.718C142.859 103.562 139.332 110.061 139.332 110.061L130.404 118.489C130.032 118.554 129.683 118.718 129.393 118.965C129.103 119.211 128.881 119.531 128.751 119.893C128.621 120.255 128.586 120.646 128.65 121.026C128.714 121.406 128.875 121.761 129.117 122.058C129.359 122.354 129.673 122.58 130.027 122.712C130.381 122.845 130.763 122.88 131.135 122.814C131.507 122.748 131.855 122.583 132.145 122.336C132.434 122.088 132.655 121.768 132.784 121.405L145.227 112.549L149.569 104.396Z" fill="#FFB6B6"/>
<path d="M149.178 105.483L151.908 98.7883L150.921 95.0886C150.724 94.363 150.333 93.708 149.791 93.1977C149.25 92.6873 148.579 92.3419 147.856 92.2005C146.873 92.0155 145.859 92.2186 145.017 92.7686C144.176 93.3186 143.57 94.1745 143.323 95.1633C142.575 98.1626 142.001 102.062 143.511 103.605L143.527 103.62L149.178 105.483Z" fill="#FF1616"/>
</g>
<defs>
<clipPath id="clip0_1_3766">
<rect width="194.33" height="175" fill="white"/>
</clipPath>
</defs>
</svg>
