<svg width="245" height="306" viewBox="0 0 245 306" fill="none" xmlns="http://www.w3.org/2000/svg">
<g clip-path="url(#clip0_1_3847)">
<path d="M243.749 202.526H9.16357V210.094H45.7492V281.983L53.5514 281.595L53.3165 210.094H195.812V281.983L203.189 283.925L203.38 210.094H243.749V202.526Z" fill="#E6E6E6"/>
<path d="M244.211 179.887H9.62549V187.454H244.211V179.887Z" fill="#E6E6E6"/>
<path d="M244.211 160.969H9.62549V168.536H244.211V160.969Z" fill="#E6E6E6"/>
<path d="M244.211 142.051H9.62549V149.618H244.211V142.051Z" fill="#E6E6E6"/>
<path d="M243.749 202.526H9.16357V210.094H45.7492V281.983L53.5514 281.595L53.3165 210.094H195.812V281.983L203.189 283.925L203.38 210.094H243.749V202.526Z" fill="#E6E6E6"/>
<path d="M244.211 179.887H9.62549V187.454H244.211V179.887Z" fill="#E6E6E6"/>
<path d="M244.211 160.969H9.62549V168.536H244.211V160.969Z" fill="#E6E6E6"/>
<path d="M244.211 142.051H9.62549V149.618H244.211V142.051Z" fill="#E6E6E6"/>
<path d="M69.5598 122.672L38.9126 129.685L25.9639 105.263L52.1695 95.0322L69.5598 122.672Z" fill="#2F2E41"/>
<path d="M177.41 139.789H89.5854V143.145H177.41V139.789Z" fill="#3F3D56"/>
<path d="M161.747 128.601H160.175C160.472 128.092 160.628 127.513 160.628 126.923V121.329C160.628 120.888 160.541 120.452 160.372 120.045C160.204 119.638 159.957 119.268 159.645 118.956C159.333 118.644 158.963 118.397 158.556 118.228C158.149 118.06 157.712 117.973 157.272 117.973H155.958C156.086 117.614 156.152 117.235 156.153 116.854V111.26C156.153 110.819 156.066 110.383 155.897 109.976C155.729 109.569 155.481 109.199 155.17 108.887C154.858 108.575 154.488 108.328 154.081 108.159C153.674 107.991 153.237 107.904 152.796 107.904H114.758C114.317 107.904 113.881 107.991 113.473 108.159C113.066 108.328 112.696 108.575 112.385 108.887C112.073 109.199 111.826 109.569 111.657 109.976C111.488 110.383 111.401 110.819 111.401 111.26V116.854C111.402 117.235 111.468 117.614 111.597 117.973H110.283C109.842 117.973 109.405 118.06 108.998 118.228C108.591 118.397 108.221 118.644 107.909 118.956C107.598 119.268 107.35 119.638 107.182 120.045C107.013 120.452 106.926 120.888 106.926 121.329V126.923C106.926 127.513 107.082 128.092 107.379 128.601H105.808C105.367 128.601 104.93 128.688 104.523 128.857C104.116 129.025 103.746 129.273 103.434 129.584C103.123 129.896 102.875 130.266 102.707 130.673C102.538 131.08 102.451 131.517 102.451 131.958V137.552C102.451 137.992 102.538 138.429 102.707 138.836C102.875 139.243 103.123 139.613 103.434 139.925C103.746 140.237 104.116 140.484 104.523 140.652C104.93 140.821 105.367 140.908 105.808 140.908H161.747C162.187 140.908 162.624 140.821 163.031 140.652C163.438 140.484 163.808 140.237 164.12 139.925C164.432 139.613 164.679 139.243 164.848 138.836C165.016 138.429 165.103 137.992 165.103 137.552V131.958C165.103 131.517 165.016 131.08 164.848 130.673C164.679 130.266 164.432 129.896 164.12 129.584C163.808 129.273 163.438 129.025 163.031 128.857C162.624 128.688 162.187 128.601 161.747 128.601Z" fill="#FF1616"/>
<path d="M155.034 108.743C155.034 107.353 145.517 106.226 133.777 106.226C122.038 106.226 112.521 107.353 112.521 108.743C112.521 109.433 114.871 110.059 118.674 110.514V112.798C118.674 112.984 118.748 113.161 118.879 113.292C119.01 113.423 119.188 113.497 119.373 113.498H119.653C119.838 113.497 120.016 113.423 120.147 113.292C120.278 113.161 120.351 112.984 120.352 112.798V110.694C121.228 110.779 122.165 110.855 123.149 110.922V112.798C123.15 112.984 123.223 113.161 123.354 113.292C123.485 113.423 123.663 113.497 123.848 113.498H124.128C124.313 113.497 124.491 113.423 124.622 113.292C124.753 113.161 124.827 112.984 124.827 112.798V111.026C127.393 111.167 130.235 111.25 133.233 111.258C133.223 111.305 133.218 111.352 133.218 111.4V113.917C133.219 114.103 133.292 114.28 133.423 114.411C133.554 114.542 133.732 114.616 133.917 114.616H134.197C134.382 114.616 134.56 114.542 134.691 114.411C134.822 114.28 134.896 114.103 134.896 113.917V111.4C134.896 111.352 134.891 111.304 134.881 111.257C137.459 111.241 139.914 111.171 142.168 111.056V113.358C142.169 113.543 142.243 113.721 142.374 113.852C142.505 113.983 142.682 114.057 142.868 114.057H143.147C143.333 114.057 143.51 113.983 143.641 113.852C143.772 113.721 143.846 113.543 143.847 113.358V110.96C146.2 110.81 148.285 110.608 150 110.369V112.239C150 112.424 150.074 112.602 150.205 112.733C150.336 112.864 150.514 112.938 150.699 112.938H150.979C151.164 112.938 151.342 112.864 151.473 112.733C151.604 112.602 151.677 112.424 151.678 112.239V110.1C153.799 109.708 155.034 109.243 155.034 108.743Z" fill="#E6E6E6"/>
<path d="M156.153 117.413H111.402V118.532H156.153V117.413Z" fill="#3F3D56"/>
<path d="M160.069 128.042H107.486V129.16H160.069V128.042Z" fill="#3F3D56"/>
<path d="M164.544 138.111H103.57V139.23H164.544V138.111Z" fill="#3F3D56"/>
<path d="M134.337 98.9531H132.659V108.463H134.337V98.9531Z" fill="#E6E6E6"/>
<path d="M135.883 97.7626C135.883 99.6693 134.82 99.7046 133.509 99.7046C132.199 99.7046 130.046 99.3274 131.136 97.7626C132.285 96.1122 134.256 92.9664 133.509 92.7998C133.509 92.7998 135.883 95.8559 135.883 97.7626Z" fill="#F9A825"/>
<path opacity="0.5" d="M134.346 98.9361C134.346 99.6909 133.925 99.7048 133.406 99.7048C132.887 99.7048 132.035 99.5555 132.467 98.9361C132.921 98.2828 133.702 97.0376 133.406 96.9717C133.406 96.9717 134.346 98.1814 134.346 98.9361Z" fill="#FF6584"/>
<path d="M143.846 99.5127H142.168V109.022H143.846V99.5127Z" fill="#E6E6E6"/>
<path d="M145.393 98.3222C145.393 100.229 144.33 100.264 143.019 100.264C141.708 100.264 139.556 99.8869 140.646 98.3222C141.795 96.6718 143.766 93.526 143.019 93.3594C143.019 93.3594 145.393 96.4155 145.393 98.3222Z" fill="#F9A825"/>
<path opacity="0.5" d="M143.855 99.4957C143.855 100.25 143.435 100.264 142.916 100.264C142.397 100.264 141.545 100.115 141.976 99.4957C142.431 98.8424 143.212 97.5972 142.916 97.5312C142.916 97.5312 143.855 98.741 143.855 99.4957Z" fill="#FF6584"/>
<path d="M125.387 99.5127H123.708V109.022H125.387V99.5127Z" fill="#E6E6E6"/>
<path d="M126.933 98.3222C126.933 100.229 125.87 100.264 124.559 100.264C123.248 100.264 121.096 99.8869 122.186 98.3222C123.335 96.6718 125.306 93.526 124.559 93.3594C124.559 93.3594 126.933 96.4155 126.933 98.3222Z" fill="#F9A825"/>
<path opacity="0.5" d="M125.395 99.4957C125.395 100.25 124.975 100.264 124.456 100.264C123.937 100.264 123.085 100.115 123.516 99.4957C123.971 98.8424 124.752 97.5972 124.456 97.5312C124.456 97.5312 125.395 98.741 125.395 99.4957Z" fill="#FF6584"/>
<path d="M227.678 129.549L198.25 124.233C196.192 116.067 193.358 107.439 197.904 100.052C199.233 94.4734 205.205 92.8777 211.261 91.4994C217.339 90.1162 223.776 92.3011 227.457 97.3312C230.075 100.907 230.772 104.492 229.711 108.948C232.63 113.284 231.235 123.898 227.678 129.549Z" fill="#2F2E41"/>
<path d="M183.615 298.329L170.803 289.571L187.651 230.821L205.425 201.454L172.503 221.48L174.22 260.588L157.635 269L153.198 220.488C152.922 217.463 153.52 214.422 154.922 211.727C156.325 209.032 158.472 206.797 161.108 205.288L188.242 189.753L190.387 167.441L220.328 162.845C231.903 177.771 238.052 191.469 232.736 202.571L205.749 237.351L183.615 298.329Z" fill="#2F2E41"/>
<path d="M177.329 291.983C177.329 291.983 175.041 287.375 172.66 288.839C170.28 290.304 163.963 296.925 163.963 296.925C163.963 296.925 152.336 300.25 160.361 303.516C168.386 306.782 171.255 306.111 171.407 305.47C171.56 304.829 173.3 303.212 173.3 303.212L176.351 304.616L181.142 304.403C181.142 304.403 185.877 293.054 183.846 293.053C181.815 293.051 177.512 294.058 177.329 291.983Z" fill="#2F2E41"/>
<path d="M165.731 263.387C165.731 263.387 160.621 262.79 160.549 265.584C160.477 268.378 162.579 277.284 162.579 277.284C162.579 277.284 159.021 288.842 166.137 283.899C173.253 278.956 174.256 276.186 173.802 275.709C173.348 275.231 172.942 272.891 172.942 272.891L175.784 271.1L178.22 266.969C178.22 266.969 171.293 256.808 170.184 258.509C169.074 260.211 167.57 264.366 165.731 263.387Z" fill="#2F2E41"/>
<path d="M208.778 117.306C214.909 117.306 219.879 112.336 219.879 106.205C219.879 100.074 214.909 95.104 208.778 95.104C202.647 95.104 197.677 100.074 197.677 106.205C197.677 112.336 202.647 117.306 208.778 117.306Z" fill="#A0616A"/>
<path d="M215.088 142.26L187.861 142.114C190.844 134.349 194.039 127.206 199.662 127.174C204.096 123.054 203.612 117.489 201.507 111.447L215.362 113.163C214.719 117.157 215.641 120.457 219.132 122.619C215.613 129.385 213.645 135.995 215.088 142.26Z" fill="#A0616A"/>
<path d="M229.293 176.243L191.534 179.04L188.673 161.327C180.788 153.796 181.737 146.211 189.019 138.586L191.677 128.758L197.491 126.973C196.833 127.987 196.491 129.173 196.507 130.381C196.523 131.589 196.897 132.765 197.581 133.761C198.265 134.757 199.229 135.528 200.351 135.976C201.472 136.424 202.702 136.53 203.884 136.28L206.013 135.829C206.802 135.663 207.551 135.341 208.215 134.884C208.879 134.426 209.446 133.842 209.884 133.164L217.547 121.291L221.539 121.785C221.992 121.841 222.415 122.037 222.751 122.345C223.087 122.653 223.318 123.059 223.413 123.505L227.115 141.004C222.466 147.854 229.323 166.93 229.293 176.243Z" fill="#575A89"/>
<path d="M195.64 195.953L199.437 202.826C199.808 203.497 200.032 204.24 200.095 205.004C200.157 205.769 200.057 206.538 199.8 207.261C199.544 207.983 199.137 208.644 198.606 209.198C198.075 209.751 197.433 210.186 196.722 210.474C195.889 210.81 194.985 210.934 194.091 210.835C193.198 210.735 192.343 210.415 191.605 209.903C190.866 209.391 190.266 208.704 189.859 207.903C189.452 207.101 189.25 206.211 189.272 205.313L189.455 197.967L181.587 169.783L182.418 150.327L190.66 151.657L190.487 169.684L195.64 195.953Z" fill="#A0616A"/>
<path d="M217.576 190.185L214.025 197.188C213.678 197.872 213.481 198.622 213.445 199.389C213.41 200.155 213.537 200.92 213.819 201.633C214.101 202.346 214.532 202.992 215.082 203.526C215.632 204.061 216.289 204.473 217.01 204.735C217.855 205.042 218.762 205.134 219.652 205.002C220.541 204.871 221.383 204.521 222.104 203.983C222.824 203.446 223.399 202.737 223.778 201.922C224.156 201.106 224.326 200.21 224.271 199.313L223.828 191.978L230.691 163.532L229.17 144.119L220.981 145.74L221.794 163.749L217.576 190.185Z" fill="#A0616A"/>
<path d="M192.774 153.428L180.175 150.427L184.809 134.906C185.304 133.248 186.241 131.755 187.52 130.589C188.798 129.423 190.37 128.626 192.066 128.285L195.105 127.673L192.774 153.428Z" fill="#575A89"/>
<path d="M217.721 149.22L217.974 139.46L220.343 123.551C220.42 123.036 220.678 122.566 221.07 122.223C221.463 121.881 221.964 121.69 222.485 121.684C222.925 121.679 223.357 121.807 223.724 122.051L234.198 146.436C232.277 150.882 220.193 143.924 217.721 149.22Z" fill="#575A89"/>
<path d="M95.0264 296.125L106.512 285.688L81.7415 229.814L60.0971 203.171L95.4601 218.477L99.1399 257.45L116.725 263.5L114.445 214.839C114.303 211.805 113.292 208.875 111.532 206.399C109.773 203.922 107.338 202.004 104.519 200.871L75.5069 189.217L70.3126 167.412L40.024 166.979C30.612 183.356 26.4064 197.769 33.1986 208.035L64.7142 238.771L95.0264 296.125Z" fill="#2F2E41"/>
<path d="M100.38 288.974C100.38 288.974 102.012 284.095 104.572 285.218C107.131 286.341 114.299 292.03 114.299 292.03C114.299 292.03 126.273 293.724 118.773 298.063C111.274 302.402 108.34 302.132 108.101 301.518C107.861 300.904 105.916 299.542 105.916 299.542L103.087 301.352L98.3119 301.8C98.3119 301.8 92.0605 291.211 94.0723 290.93C96.084 290.649 100.484 291.054 100.38 288.974Z" fill="#2F2E41"/>
<path d="M107.933 259.054C107.933 259.054 112.913 257.76 113.368 260.517C113.824 263.275 112.968 272.386 112.968 272.386C112.968 272.386 118.082 283.344 110.353 279.427C102.625 275.51 101.251 272.905 101.634 272.369C102.018 271.834 102.098 269.46 102.098 269.46L99.037 268.077L96.0562 264.32C96.0562 264.32 101.519 253.303 102.852 254.836C104.185 256.368 106.247 260.277 107.933 259.054Z" fill="#2F2E41"/>
<path d="M43.6723 120.39C49.8032 120.39 54.7733 115.42 54.7733 109.289C54.7733 103.158 49.8032 98.188 43.6723 98.188C37.5414 98.188 32.5713 103.158 32.5713 109.289C32.5713 115.42 37.5414 120.39 43.6723 120.39Z" fill="#FFB9B9"/>
<path d="M42.3827 145.869L69.33 141.979C65.3074 134.698 61.16 128.062 55.5861 128.804C50.6273 125.334 50.3414 119.755 51.5956 113.48L38.1075 117.086C39.2943 120.954 38.8353 124.35 35.6743 126.972C40.091 133.189 42.9493 139.465 42.3827 145.869Z" fill="#FFB9B9"/>
<path d="M40.3459 169.501C49.9211 181.968 59.7409 186.894 70.2983 169.073L71.1687 161.121C77.9435 152.577 75.9595 145.194 67.6981 138.644L63.7133 129.275L57.709 128.307C58.4997 129.221 59.002 130.348 59.1524 131.547C59.3028 132.746 59.0945 133.962 58.5539 135.043C58.0133 136.123 57.1646 137.019 56.115 137.618C55.0655 138.216 53.8621 138.49 52.6569 138.405L50.486 138.252C49.6815 138.195 48.8962 137.979 48.1753 137.617C47.4544 137.256 46.8123 136.755 46.2859 136.144L37.0617 125.438L33.1754 126.476C32.735 126.594 32.3423 126.846 32.0521 127.198C31.7618 127.55 31.5886 127.983 31.5565 128.438L30.2964 146.28C35.8436 152.426 39.035 160.281 40.3459 169.501Z" fill="#FF1616"/>
<path d="M36.0594 161.906L14.8519 157.599L28.9373 144.493L23.5765 134.798L0.809794 159.014C0.418778 159.458 0.157275 160.002 0.0537507 160.585C-0.0497738 161.168 0.00864384 161.769 0.222649 162.321C0.436655 162.873 0.798048 163.356 1.26749 163.717C1.73693 164.078 2.29642 164.304 2.88508 164.369L33.718 167.783L34.9833 173.363C35.1516 174.106 35.4961 174.796 35.9877 175.377C36.4793 175.958 37.1035 176.412 37.8076 176.701C38.5117 176.99 39.2751 177.105 40.033 177.037C40.791 176.968 41.5214 176.719 42.1624 176.308C42.7558 175.929 43.2571 175.421 43.6298 174.824C44.0026 174.226 44.2375 173.553 44.3174 172.853C44.3973 172.153 44.3202 171.444 44.0918 170.777C43.8633 170.111 43.4893 169.504 42.9967 169L36.0594 161.906Z" fill="#FFB9B9"/>
<path d="M69.0317 196.376L66.2168 203.706C65.9418 204.422 65.8219 205.188 65.865 205.954C65.9081 206.72 66.1132 207.468 66.4668 208.148C66.8204 208.829 67.3144 209.427 67.9162 209.902C68.518 210.378 69.2139 210.72 69.9578 210.907C70.8296 211.126 71.7422 211.125 72.6133 210.903C73.4844 210.682 74.2868 210.247 74.9482 209.638C75.6096 209.03 76.1093 208.266 76.4023 207.416C76.6953 206.567 76.7724 205.657 76.6266 204.77L75.4353 197.52L79.3507 168.521L75.8514 149.365L67.8706 151.815L70.5224 169.647L69.0317 196.376Z" fill="#FFB9B9"/>
<path d="M66.0208 153.861L78.0867 149.155L71.3616 134.419C70.6431 132.845 69.5097 131.496 68.083 130.516C66.6562 129.537 64.9899 128.964 63.2625 128.859L60.1685 128.672L66.0208 153.861Z" fill="#FF1616"/>
<path d="M26.2745 147.849L39.1391 143.493L34.6034 128.062C34.4566 127.562 34.1365 127.131 33.7007 126.846C33.2648 126.561 32.7417 126.441 32.2252 126.507C31.7883 126.563 31.3784 126.749 31.0489 127.041L17.9072 138.7C20.4213 142.839 23.0981 142.943 26.2745 147.849Z" fill="#FF1616"/>
<path d="M51.0467 91.2664C51.0467 91.2664 57.8358 92.5435 59.4058 101.011C59.6514 102.439 59.6961 103.894 59.5388 105.334C59.382 106.964 59.6094 110.406 63.1484 114.46C65.4575 117.089 67.6092 119.852 69.5921 122.735L62.4981 124.624L59.3285 112.87C57.7918 107.172 55.4245 101.731 52.3027 96.7223L52.2375 96.6178C52.2375 96.6178 49.8814 102.913 43.5663 103.776L45.5134 101.213C45.5134 101.213 38.131 105.48 33.9485 106.784C33.4711 106.933 33.0435 107.209 32.7115 107.583C32.3796 107.957 32.156 108.414 32.0647 108.906C31.9735 109.398 32.0181 109.905 32.1938 110.373C32.3695 110.841 32.6695 111.252 33.0617 111.563C33.0913 111.586 33.1216 111.609 33.1523 111.633C36.2287 113.969 42.5047 119.545 40.0253 124.938C37.5458 130.331 40.4372 131.315 40.4372 131.315L35.1055 129.286L32.6651 128.241L32.9117 130.046L20.9987 130.295C20.9987 130.295 17.7795 130.276 23.4977 121.683C23.4977 121.683 24.8774 118.461 23.7447 115.999C22.8356 114.135 22.383 112.081 22.4243 110.008C22.7844 101.344 26.4339 83.7194 51.0467 91.2664Z" fill="#2F2E41"/>
<path d="M198.993 97.4614L209.249 103.988L210.181 102.123C216.373 106.597 215.043 118.038 212.046 131.025C212.046 131.025 222.88 135 224.166 131.025C226.454 123.95 224.632 107.251 224.632 107.251L220.903 97.4614L214.843 94.1983L209.715 93.7321C209.715 93.7321 205.053 91.4013 198.993 97.4614Z" fill="#2F2E41"/>
<path d="M214.842 111.912C215.615 111.912 216.241 111.078 216.241 110.048C216.241 109.018 215.615 108.183 214.842 108.183C214.07 108.183 213.444 109.018 213.444 110.048C213.444 111.078 214.07 111.912 214.842 111.912Z" fill="#A0616A"/>
<path d="M106.756 29.4395C107.548 29.4395 108.19 28.7974 108.19 28.0054C108.19 27.2133 107.548 26.5713 106.756 26.5713C105.964 26.5713 105.322 27.2133 105.322 28.0054C105.322 28.7974 105.964 29.4395 106.756 29.4395Z" fill="#E6E6E6"/>
<path d="M127.909 74.6128C128.701 74.6128 129.343 73.9707 129.343 73.1787C129.343 72.3867 128.701 71.7446 127.909 71.7446C127.117 71.7446 126.475 72.3867 126.475 73.1787C126.475 73.9707 127.117 74.6128 127.909 74.6128Z" fill="#E6E6E6"/>
<path d="M122.172 42.3462C122.964 42.3462 123.606 41.7041 123.606 40.9121C123.606 40.1201 122.964 39.478 122.172 39.478C121.38 39.478 120.738 40.1201 120.738 40.9121C120.738 41.7041 121.38 42.3462 122.172 42.3462Z" fill="#E6E6E6"/>
<path d="M98.8687 57.4038C99.6607 57.4038 100.303 56.7618 100.303 55.9697C100.303 55.1777 99.6607 54.5356 98.8687 54.5356C98.0766 54.5356 97.4346 55.1777 97.4346 55.9697C97.4346 56.7618 98.0766 57.4038 98.8687 57.4038Z" fill="#E6E6E6"/>
<path d="M113.846 28.2764C114.718 29.0543 115.403 30.0195 115.849 31.0996C116.295 32.1797 116.491 33.3468 116.422 34.5133C116.353 35.6799 116.021 36.8157 115.451 37.8358C114.881 38.8559 114.087 39.7337 113.13 40.4035C112.4 40.9186 113.098 42.1317 113.836 41.6111C114.954 40.8289 115.887 39.8125 116.572 38.6326C117.257 37.4527 117.677 36.1377 117.802 34.7791C117.903 33.3877 117.688 31.9914 117.175 30.6943C116.661 29.3972 115.861 28.2327 114.835 27.2875C114.174 26.6784 113.183 27.6649 113.846 28.2764Z" fill="#E6E6E6"/>
<path d="M126.753 46.5605C127.625 47.3385 128.31 48.3037 128.756 49.3838C129.202 50.4639 129.398 51.6309 129.329 52.7975C129.26 53.9641 128.928 55.0999 128.358 56.12C127.788 57.14 126.994 58.0179 126.037 58.6877C125.307 59.2027 126.005 60.4159 126.742 59.8953C127.86 59.1131 128.794 58.0967 129.479 56.9168C130.164 55.7369 130.584 54.4219 130.708 53.0633C130.809 51.6719 130.595 50.2756 130.081 48.9785C129.568 47.6814 128.768 46.5169 127.742 45.5717C127.081 44.9626 126.09 45.949 126.753 46.5605Z" fill="#E6E6E6"/>
<path d="M104.771 62.4224C103.745 63.3679 102.946 64.5325 102.433 65.8295C101.919 67.1265 101.704 68.5226 101.805 69.914C101.929 71.2727 102.348 72.5879 103.033 73.7679C103.718 74.9479 104.652 75.9642 105.771 76.7459C106.507 77.266 107.207 76.054 106.477 75.5384C105.519 74.8685 104.725 73.9907 104.155 72.9707C103.585 71.9506 103.253 70.8147 103.184 69.6482C103.115 68.4816 103.311 67.3146 103.757 66.2344C104.203 65.1543 104.888 64.1892 105.76 63.4112C106.423 62.8 105.432 61.813 104.771 62.4224Z" fill="#E6E6E6"/>
<path d="M116.093 53.2438C114.279 53.0466 112.025 53.0749 111.019 54.9094C110.227 56.354 111.188 58.5646 113.018 58.3698C113.184 58.3643 113.342 58.3002 113.466 58.1889C113.589 58.0775 113.669 57.9261 113.691 57.7615C113.713 57.597 113.677 57.4298 113.587 57.2897C113.498 57.1496 113.362 57.0457 113.204 56.9963C111.897 56.5919 110.745 57.8434 110.763 59.1037C110.784 60.5515 112.204 61.4141 113.387 61.8813L113.759 60.5328C113.325 60.4454 112.877 60.4501 112.445 60.5467C112.013 60.6432 111.606 60.8294 111.25 61.0932C110.895 61.357 110.598 61.6925 110.38 62.0781C110.163 62.4637 110.028 62.8907 109.986 63.3315C109.864 65.2899 111.798 66.7092 113.62 66.4548C114.508 66.3309 114.13 64.9832 113.248 65.1063C113.01 65.1399 112.767 65.1206 112.537 65.0498C112.306 64.979 112.095 64.8584 111.916 64.6965C111.738 64.5346 111.597 64.3355 111.504 64.1132C111.412 63.8909 111.369 63.6509 111.379 63.4103C111.39 63.1696 111.453 62.9342 111.564 62.7207C111.676 62.5072 111.833 62.3209 112.025 62.175C112.216 62.029 112.438 61.9271 112.673 61.8763C112.909 61.8256 113.153 61.8273 113.387 61.8813C113.564 61.9231 113.749 61.8948 113.905 61.8025C114.061 61.7102 114.175 61.561 114.223 61.3863C114.271 61.2116 114.25 61.025 114.163 60.8659C114.077 60.7067 113.932 60.5873 113.759 60.5328C113.188 60.3072 112.482 59.9555 112.229 59.3536C112.068 58.9669 112.309 58.1829 112.832 58.3448L113.018 56.9713C112.813 56.9946 112.607 56.939 112.441 56.8158C112.276 56.6927 112.163 56.5111 112.127 56.308C112.093 56.0837 112.123 55.8545 112.211 55.6456C112.3 55.4368 112.444 55.2563 112.628 55.124C113.569 54.3218 114.962 54.5193 116.093 54.6423C116.987 54.7394 116.98 53.3402 116.093 53.2438Z" fill="#E6E6E6"/>
<path d="M95.2987 43.5641C93.4847 43.3669 91.2302 43.3952 90.2243 45.2298C89.4322 46.6743 90.3933 48.885 92.2233 48.6901C92.3893 48.6846 92.548 48.6205 92.6713 48.5092C92.7945 48.3978 92.8744 48.2465 92.8967 48.0819C92.9189 47.9173 92.8822 47.7501 92.793 47.61C92.7037 47.4699 92.5678 47.366 92.4092 47.3166C91.1022 46.9122 89.9507 48.1637 89.969 49.424C89.9901 50.8718 91.4094 51.7345 92.5929 52.2016L92.9647 50.8531C92.5306 50.7657 92.0829 50.7704 91.6508 50.867C91.2186 50.9635 90.8115 51.1497 90.4558 51.4135C90.1002 51.6773 89.8039 52.0129 89.5861 52.3984C89.3683 52.784 89.2339 53.211 89.1915 53.6518C89.0695 55.6102 91.0038 57.0295 92.8257 56.7751C93.7132 56.6512 93.3356 55.3035 92.454 55.4266C92.2154 55.4602 91.9724 55.4409 91.7422 55.3701C91.512 55.2993 91.3001 55.1787 91.1217 55.0168C90.9433 54.855 90.8028 54.6558 90.71 54.4335C90.6172 54.2112 90.5744 53.9712 90.5848 53.7306C90.5952 53.4899 90.6584 53.2545 90.77 53.041C90.8815 52.8275 91.0387 52.6412 91.2304 52.4953C91.422 52.3493 91.6435 52.2474 91.8789 52.1966C92.1144 52.1459 92.3581 52.1476 92.5929 52.2016C92.7692 52.2433 92.9548 52.2151 93.1107 52.1227C93.2666 52.0304 93.3806 51.8812 93.4288 51.7066C93.4769 51.5319 93.4554 51.3454 93.3689 51.1862C93.2823 51.027 93.1374 50.9076 92.9647 50.8531C92.3931 50.6275 91.6872 50.2758 91.4351 49.6739C91.2731 49.2872 91.5142 48.5032 92.0374 48.6651L92.2233 47.2916C92.0183 47.3149 91.8121 47.2593 91.6466 47.1362C91.4811 47.013 91.3687 46.8314 91.3323 46.6283C91.2991 46.404 91.3283 46.1748 91.4167 45.966C91.5052 45.7571 91.6494 45.5766 91.8336 45.4444C92.7744 44.6421 94.1678 44.8396 95.2986 44.9626C96.1921 45.0597 96.1853 43.6605 95.2987 43.5641Z" fill="#E6E6E6"/>
<path d="M135.775 76.0848C137.589 76.282 139.843 76.2536 140.849 74.4191C141.641 72.9745 140.68 70.7639 138.85 70.9588C138.684 70.9643 138.526 71.0283 138.402 71.1397C138.279 71.251 138.199 71.4024 138.177 71.567C138.155 71.7316 138.191 71.8987 138.281 72.0388C138.37 72.1789 138.506 72.2829 138.664 72.3323C139.971 72.7367 141.123 71.4851 141.105 70.2248C141.084 68.777 139.664 67.9144 138.481 67.4472L138.109 68.7957C138.543 68.8831 138.991 68.8784 139.423 68.7819C139.855 68.6853 140.262 68.4991 140.618 68.2353C140.973 67.9715 141.27 67.636 141.488 67.2504C141.705 66.8649 141.84 66.4379 141.882 65.9971C142.004 64.0387 140.07 62.6194 138.248 62.8738C137.36 62.9977 137.738 64.3454 138.62 64.2223C138.858 64.1886 139.101 64.2079 139.331 64.2787C139.562 64.3495 139.773 64.4702 139.952 64.632C140.13 64.7939 140.271 64.993 140.364 65.2153C140.456 65.4376 140.499 65.6776 140.489 65.9183C140.478 66.1589 140.415 66.3944 140.304 66.6079C140.192 66.8213 140.035 67.0077 139.843 67.1536C139.652 67.2995 139.43 67.4015 139.195 67.4522C138.959 67.503 138.715 67.5013 138.481 67.4472C138.304 67.4055 138.119 67.4338 137.963 67.5261C137.807 67.6185 137.693 67.7676 137.645 67.9423C137.597 68.117 137.618 68.3035 137.705 68.4627C137.791 68.6218 137.936 68.7412 138.109 68.7957C138.681 69.0214 139.386 69.373 139.639 69.9749C139.801 70.3616 139.559 71.1456 139.036 70.9838L138.85 72.3573C139.055 72.3339 139.261 72.3895 139.427 72.5127C139.592 72.6359 139.705 72.8174 139.741 73.0205C139.775 73.2449 139.745 73.474 139.657 73.6829C139.568 73.8917 139.424 74.0722 139.24 74.2045C138.299 75.0067 136.906 74.8092 135.775 74.6863C134.881 74.5891 134.888 75.9884 135.775 76.0848Z" fill="#E6E6E6"/>
<path d="M147.312 2.86816C148.104 2.86816 148.746 2.2261 148.746 1.43408C148.746 0.64206 148.104 0 147.312 0C146.52 0 145.878 0.64206 145.878 1.43408C145.878 2.2261 146.52 2.86816 147.312 2.86816Z" fill="#E6E6E6"/>
<path d="M168.464 48.0415C169.256 48.0415 169.898 47.3994 169.898 46.6074C169.898 45.8154 169.256 45.1733 168.464 45.1733C167.672 45.1733 167.03 45.8154 167.03 46.6074C167.03 47.3994 167.672 48.0415 168.464 48.0415Z" fill="#E6E6E6"/>
<path d="M162.728 15.7749C163.52 15.7749 164.162 15.1328 164.162 14.3408C164.162 13.5488 163.52 12.9067 162.728 12.9067C161.936 12.9067 161.294 13.5488 161.294 14.3408C161.294 15.1328 161.936 15.7749 162.728 15.7749Z" fill="#E6E6E6"/>
<path d="M139.424 30.8325C140.216 30.8325 140.858 30.1905 140.858 29.3984C140.858 28.6064 140.216 27.9644 139.424 27.9644C138.632 27.9644 137.99 28.6064 137.99 29.3984C137.99 30.1905 138.632 30.8325 139.424 30.8325Z" fill="#E6E6E6"/>
<path d="M154.403 1.70509C155.275 2.48303 155.959 3.44821 156.405 4.52832C156.852 5.60843 157.047 6.77547 156.979 7.94204C156.91 9.10861 156.578 10.2445 156.007 11.2645C155.437 12.2846 154.644 13.1624 153.686 13.8323C152.957 14.3473 153.654 15.5604 154.392 15.0398C155.51 14.2577 156.444 13.2413 157.129 12.0613C157.813 10.8814 158.233 9.56641 158.358 8.20784C158.459 6.81642 158.244 5.42016 157.731 4.12306C157.217 2.82595 156.418 1.66143 155.391 0.716219C154.731 0.107114 153.739 1.09359 154.403 1.70509Z" fill="#E6E6E6"/>
<path d="M167.309 19.9897C168.181 20.7677 168.866 21.7329 169.312 22.813C169.758 23.8931 169.954 25.0601 169.885 26.2267C169.816 27.3933 169.484 28.5291 168.914 29.5492C168.344 30.5692 167.55 31.4471 166.593 32.1169C165.863 32.6319 166.561 33.8451 167.299 33.3245C168.416 32.5423 169.35 31.5259 170.035 30.346C170.72 29.1661 171.14 27.8511 171.265 26.4925C171.365 25.1011 171.151 23.7048 170.637 22.4077C170.124 21.1106 169.324 19.9461 168.298 19.0009C167.637 18.3918 166.646 19.3782 167.309 19.9897Z" fill="#E6E6E6"/>
<path d="M145.327 35.8511C144.301 36.7966 143.502 37.9612 142.988 39.2582C142.475 40.5552 142.26 41.9513 142.36 43.3427C142.485 44.7014 142.904 46.0166 143.589 47.1966C144.274 48.3766 145.208 49.3929 146.326 50.1746C147.063 50.6948 147.762 49.4827 147.032 48.9671C146.075 48.2973 145.281 47.4194 144.711 46.3994C144.141 45.3793 143.809 44.2435 143.74 43.0769C143.671 41.9103 143.867 40.7433 144.313 39.6632C144.759 38.583 145.444 37.6179 146.316 36.8399C146.979 36.2287 145.988 35.2417 145.327 35.8511Z" fill="#E6E6E6"/>
<path d="M156.649 26.673C154.835 26.4758 152.58 26.5041 151.574 28.3386C150.782 29.7832 151.743 31.9938 153.573 31.7989C153.739 31.7935 153.898 31.7294 154.021 31.6181C154.145 31.5067 154.224 31.3553 154.247 31.1907C154.269 31.0262 154.232 30.859 154.143 30.7189C154.054 30.5788 153.918 30.4748 153.759 30.4254C152.452 30.0211 151.301 31.2726 151.319 32.5329C151.34 33.9807 152.76 34.8433 153.943 35.3105L154.315 33.962C153.881 33.8746 153.433 33.8793 153.001 33.9759C152.569 34.0724 152.162 34.2586 151.806 34.5224C151.45 34.7862 151.154 35.1217 150.936 35.5073C150.718 35.8929 150.584 36.3199 150.542 36.7606C150.42 38.719 152.354 40.1383 154.176 39.884C155.063 39.7601 154.686 38.4124 153.804 38.5355C153.566 38.5691 153.323 38.5498 153.092 38.479C152.862 38.4082 152.65 38.2876 152.472 38.1257C152.293 37.9638 152.153 37.7647 152.06 37.5424C151.967 37.3201 151.925 37.0801 151.935 36.8394C151.945 36.5988 152.008 36.3634 152.12 36.1499C152.232 35.9364 152.389 35.7501 152.58 35.6041C152.772 35.4582 152.994 35.3563 153.229 35.3055C153.464 35.2548 153.708 35.2565 153.943 35.3105C154.119 35.3523 154.305 35.324 154.461 35.2317C154.617 35.1393 154.731 34.9901 154.779 34.8155C154.827 34.6408 154.806 34.4542 154.719 34.2951C154.632 34.1359 154.488 34.0165 154.315 33.962C153.743 33.7364 153.037 33.3847 152.785 32.7828C152.623 32.3961 152.864 31.6121 153.388 31.774L153.573 30.4005C153.368 30.4238 153.162 30.3682 152.997 30.245C152.831 30.1219 152.719 29.9403 152.682 29.7372C152.649 29.5129 152.678 29.2837 152.767 29.0748C152.855 28.866 153 28.6855 153.184 28.5532C154.124 27.751 155.518 27.9485 156.649 28.0715C157.542 28.1686 157.535 26.7694 156.649 26.673Z" fill="#E6E6E6"/>
<path d="M135.855 16.9928C134.041 16.7956 131.786 16.8239 130.78 18.6585C129.988 20.103 130.949 22.3137 132.779 22.1188C132.945 22.1133 133.104 22.0492 133.227 21.9379C133.351 21.8266 133.431 21.6752 133.453 21.5106C133.475 21.346 133.438 21.1788 133.349 21.0387C133.26 20.8986 133.124 20.7947 132.965 20.7453C131.658 20.3409 130.507 21.5924 130.525 22.8527C130.546 24.3005 131.966 25.1632 133.149 25.6303L133.521 24.2818C133.087 24.1944 132.639 24.1992 132.207 24.2957C131.775 24.3922 131.368 24.5784 131.012 24.8422C130.656 25.106 130.36 25.4416 130.142 25.8271C129.924 26.2127 129.79 26.6397 129.748 27.0805C129.626 29.0389 131.56 30.4582 133.382 30.2038C134.269 30.0799 133.892 28.7322 133.01 28.8553C132.772 28.8889 132.529 28.8696 132.298 28.7988C132.068 28.728 131.856 28.6074 131.678 28.4455C131.499 28.2837 131.359 28.0845 131.266 27.8622C131.173 27.6399 131.131 27.3999 131.141 27.1593C131.151 26.9186 131.215 26.6832 131.326 26.4697C131.438 26.2562 131.595 26.0699 131.787 25.924C131.978 25.7781 132.2 25.6761 132.435 25.6254C132.671 25.5746 132.914 25.5763 133.149 25.6303C133.325 25.6721 133.511 25.6438 133.667 25.5515C133.823 25.4592 133.937 25.31 133.985 25.1353C134.033 24.9606 134.012 24.7741 133.925 24.6149C133.839 24.4557 133.694 24.3363 133.521 24.2818C132.949 24.0562 132.243 23.7045 131.991 23.1026C131.829 22.716 132.07 21.9319 132.594 22.0938L132.779 20.7203C132.574 20.7436 132.368 20.6881 132.203 20.5649C132.037 20.4417 131.925 20.2601 131.888 20.0571C131.855 19.8327 131.884 19.6035 131.973 19.3947C132.061 19.1858 132.206 19.0054 132.39 18.8731C133.331 18.0708 134.724 18.2683 135.855 18.3913C136.748 18.4884 136.741 17.0892 135.855 16.9928Z" fill="#E6E6E6"/>
<path d="M176.331 49.514C178.145 49.7112 180.4 49.6828 181.406 47.8483C182.198 46.4037 181.236 44.1931 179.406 44.388C179.24 44.3935 179.082 44.4575 178.958 44.5689C178.835 44.6802 178.755 44.8316 178.733 44.9962C178.711 45.1608 178.748 45.3279 178.837 45.468C178.926 45.6081 179.062 45.7121 179.221 45.7615C180.528 46.1659 181.679 44.9143 181.661 43.654C181.64 42.2062 180.22 41.3436 179.037 40.8764L178.665 42.2249C179.099 42.3123 179.547 42.3076 179.979 42.2111C180.411 42.1145 180.818 41.9283 181.174 41.6645C181.53 41.4007 181.826 41.0652 182.044 40.6796C182.261 40.2941 182.396 39.8671 182.438 39.4263C182.56 37.4679 180.626 36.0486 178.804 36.303C177.917 36.4269 178.294 37.7746 179.176 37.6515C179.414 37.6178 179.657 37.6371 179.888 37.7079C180.118 37.7787 180.33 37.8994 180.508 38.0612C180.686 38.2231 180.827 38.4222 180.92 38.6445C181.013 38.8668 181.055 39.1068 181.045 39.3475C181.035 39.5881 180.971 39.8236 180.86 40.0371C180.748 40.2505 180.591 40.4369 180.399 40.5828C180.208 40.7287 179.986 40.8307 179.751 40.8814C179.515 40.9322 179.272 40.9305 179.037 40.8764C178.861 40.8347 178.675 40.863 178.519 40.9553C178.363 41.0476 178.249 41.1968 178.201 41.3715C178.153 41.5462 178.174 41.7327 178.261 41.8919C178.347 42.051 178.492 42.1704 178.665 42.2249C179.237 42.4506 179.943 42.8022 180.195 43.4042C180.357 43.7908 180.116 44.5748 179.592 44.413L179.406 45.7865C179.611 45.7631 179.818 45.8187 179.983 45.9419C180.149 46.0651 180.261 46.2466 180.297 46.4497C180.331 46.6741 180.301 46.9032 180.213 47.1121C180.125 47.3209 179.98 47.5014 179.796 47.6337C178.855 48.4359 177.462 48.2384 176.331 48.1155C175.438 48.0183 175.444 49.4176 176.331 49.514Z" fill="#E6E6E6"/>
<path d="M225.764 96.8955L223.834 92.6225L222.304 89.228L220.082 84.3075L218.547 80.9125L216.465 76.2916C216.43 76.2169 216.377 76.1525 216.311 76.1048C216.244 76.057 216.166 76.0276 216.084 76.0194C216.002 76.0113 215.92 76.0247 215.845 76.0583C215.77 76.0919 215.706 76.1446 215.657 76.2111L213.508 79.2057L211.844 81.5178L209.434 84.8706L207.774 87.1878L205.364 90.5406L203.704 92.8532L202.47 94.5711C202.419 94.6364 202.389 94.7146 202.382 94.7966C202.374 94.8777 202.387 94.9595 202.419 95.0345C202.452 95.1095 202.505 95.1741 202.572 95.2219C202.639 95.2697 202.717 95.299 202.799 95.3067L225.296 97.5515C225.366 97.5602 225.437 97.552 225.503 97.5276C225.569 97.5032 225.628 97.4633 225.676 97.4113C225.693 97.3958 225.709 97.3785 225.723 97.3598C225.769 97.2927 225.798 97.215 225.806 97.1339C225.815 97.0521 225.801 96.9694 225.764 96.8955Z" fill="#FF1616"/>
<path d="M220.082 84.3076L211.844 81.518L213.508 79.2061L218.547 80.9126L220.082 84.3076Z" fill="#E6E6E6"/>
<path d="M223.834 92.6227L207.774 87.1879L209.434 84.8706L222.304 89.2278L223.834 92.6227Z" fill="#E6E6E6"/>
<path d="M225.675 97.4113C225.628 97.4633 225.569 97.5032 225.503 97.5276C225.437 97.552 225.366 97.5602 225.296 97.5515L214.358 96.4601L203.704 92.8532L205.364 90.5405L225.675 97.4113Z" fill="#E6E6E6"/>
<path d="M216.269 77.8936C218.329 77.8936 219.999 76.224 219.999 74.1643C219.999 72.1047 218.329 70.4351 216.269 70.4351C214.21 70.4351 212.54 72.1047 212.54 74.1643C212.54 76.224 214.21 77.8936 216.269 77.8936Z" fill="#FF1616"/>
<path d="M53.1365 92.1009L50.7917 88.0406L48.9317 84.8148L46.2327 80.1392L44.368 76.9134L41.8368 72.5221C41.7955 72.4512 41.7363 72.3924 41.6651 72.3515C41.5939 72.3106 41.5133 72.2891 41.4312 72.2891C41.3491 72.2891 41.2685 72.3106 41.1973 72.3515C41.1262 72.3924 41.067 72.4512 41.0257 72.5221L39.1843 75.7153L37.7579 78.1813L35.6928 81.7568L34.271 84.2274L32.2059 87.8028L30.7841 90.2689L29.7259 92.1009C29.6825 92.1708 29.6599 92.2516 29.6607 92.3339C29.6611 92.4155 29.6819 92.4956 29.7213 92.567C29.7622 92.6382 29.8213 92.6973 29.8926 92.7383C29.9638 92.7792 30.0447 92.8006 30.1268 92.8001H52.7356C52.8059 92.8018 52.8757 92.7866 52.9389 92.7558C53.0022 92.725 53.0572 92.6794 53.0992 92.6229C53.115 92.6058 53.1291 92.587 53.1411 92.567C53.1805 92.4956 53.2013 92.4155 53.2017 92.3339C53.2025 92.2516 53.1799 92.1708 53.1365 92.1009Z" fill="#FF1616"/>
<path d="M46.2324 80.1391L37.7578 78.1815L39.184 75.7153L44.3678 76.9133L46.2324 80.1391Z" fill="#E6E6E6"/>
<path d="M50.7917 88.0406L34.271 84.2276L35.6931 81.7568L48.9317 84.8148L50.7917 88.0406Z" fill="#E6E6E6"/>
<path d="M53.0993 92.6229C53.0573 92.6793 53.0023 92.7249 52.939 92.7557C52.8758 92.7865 52.806 92.8017 52.7357 92.8H41.7436L30.7842 90.2687L32.206 87.8027L53.0993 92.6229Z" fill="#E6E6E6"/>
<path d="M41.4309 74.1539C43.4906 74.1539 45.1602 72.4842 45.1602 70.4246C45.1602 68.365 43.4906 66.6953 41.4309 66.6953C39.3713 66.6953 37.7017 68.365 37.7017 70.4246C37.7017 72.4842 39.3713 74.1539 41.4309 74.1539Z" fill="#FF1616"/>
</g>
<defs>
<clipPath id="clip0_1_3847">
<rect width="244.211" height="306" fill="white"/>
</clipPath>
</defs>
</svg>
