<svg width="195" height="175" viewBox="0 0 195 175" fill="none" xmlns="http://www.w3.org/2000/svg">
<g clip-path="url(#clip0_1_3810)">
<path d="M193.24 0.478403C190.814 2.24568 188.378 3.94167 185.932 5.56637C185.755 5.68456 185.578 5.80275 185.401 5.91813C182.359 7.92743 179.305 9.82228 176.238 11.6027C176.086 11.6927 175.934 11.78 175.782 11.8672C170.665 14.8221 165.531 17.457 160.378 19.7721C160.203 19.8509 160.029 19.9297 159.854 20.0057C156.665 21.424 153.474 22.7167 150.282 23.8836C150.11 23.9455 149.936 24.0102 149.764 24.0693C149.567 24.1425 149.37 24.2128 149.173 24.2832C143.788 26.2022 138.313 27.7852 132.774 29.025C132.569 29.07 132.367 29.1151 132.165 29.1601C128.398 29.9818 124.619 30.6385 120.828 31.13C120.656 31.1553 120.487 31.1778 120.315 31.1975C114.928 31.8775 109.513 32.2185 104.093 32.2191C91.3122 32.2191 78.257 30.3111 65.1945 26.5401C65.0075 26.4867 64.8205 26.4332 64.6335 26.3741C62.4293 25.7325 60.2243 25.0355 58.0186 24.2832C56.6348 23.8104 55.2469 23.3161 53.8547 22.8001C53.6876 22.7382 53.5206 22.6763 53.3536 22.6116C47.4343 20.3969 41.4744 17.7891 35.4738 14.7883C35.2918 14.6982 35.1098 14.6054 34.9253 14.5125C31.3125 12.6946 27.6913 10.7359 24.0618 8.63659C23.9072 8.54935 23.7526 8.4593 23.5981 8.36643C19.3894 5.92376 15.1781 3.29629 10.9644 0.484028L11.2186 0C15.5795 2.90982 19.932 5.61796 24.2762 8.12442L24.2888 8.13004C27.7944 10.1562 31.2942 12.0492 34.7882 13.809C40.8461 16.8722 47.0375 19.5876 53.3386 21.9446C53.755 22.0994 54.1689 22.2542 54.5853 22.4005C58.1009 23.6838 61.6107 24.8291 65.1146 25.8366C65.3042 25.8929 65.4912 25.9464 65.6806 25.9998C84.0292 31.2172 102.162 32.7247 120.078 30.5221C120.25 30.5053 120.419 30.4827 120.591 30.4574C124.159 30.01 127.717 29.4115 131.263 28.662C131.874 28.5325 132.485 28.4003 133.096 28.2596C138.587 27.0214 144.015 25.446 149.355 23.5403C149.527 23.4784 149.701 23.4164 149.873 23.3517C153.232 22.1445 156.58 20.8002 159.916 19.3191C160.091 19.2403 160.265 19.1643 160.44 19.0855C165.464 16.837 170.463 14.2817 175.437 11.4198C175.59 11.3353 175.742 11.2481 175.894 11.1553C179.095 9.30637 182.285 7.32897 185.463 5.22306C185.643 5.10768 185.82 4.98948 185.997 4.86847C188.328 3.31507 190.653 1.69413 192.971 0.00564236L193.24 0.478403Z" fill="#F2F2F2"/>
<path d="M34.7883 13.8088L24.2889 8.12989L24.2764 8.12426L23.693 7.80908L23.5983 8.36628L20.7109 25.3102L35.474 14.7881L35.9603 14.442L34.7883 13.8088ZM21.419 24.1395L24.062 8.63644V8.63081L34.9304 14.5095L34.9254 14.5124L21.419 24.1395Z" fill="#F2F2F2"/>
<path d="M65.1149 25.8368L64.6338 26.3743L54.1916 37.9939L53.8549 22.8003L53.8425 22.2037L54.5855 22.4007C54.1692 22.2544 53.7552 22.0996 53.3389 21.9448L53.3538 22.6118L53.7229 39.3052L65.1948 26.5403L65.6809 26C65.4915 25.9465 65.3045 25.8931 65.1149 25.8368Z" fill="#F2F2F2"/>
<path d="M131.263 28.6622L132.44 28.5018L132.166 29.1603L125.613 44.8125L120.829 31.1302L120.592 30.4576C120.42 30.4829 120.25 30.5054 120.078 30.5223L120.315 31.1977L125.573 46.228L132.774 29.0252L133.096 28.2598C132.485 28.4005 131.874 28.5327 131.263 28.6622Z" fill="#F2F2F2"/>
<path d="M159.917 19.319L159.854 20.0057L158.545 34.5913L150.282 23.8836L149.873 23.3517C149.701 23.4164 149.527 23.4783 149.355 23.5402L149.764 24.0693L158.924 35.9421L160.378 19.7721L160.44 19.0854C160.266 19.1642 160.091 19.2402 159.917 19.319Z" fill="#F2F2F2"/>
<path d="M185.463 5.22325L185.401 5.91835L183.955 21.6494L176.238 11.6029L175.894 11.1555C175.742 11.2483 175.59 11.3356 175.438 11.42L175.782 11.8674L184.331 23.0001L185.932 5.56656L185.997 4.86865C185.82 4.98968 185.643 5.10787 185.463 5.22325Z" fill="#F2F2F2"/>
<path d="M120.51 104.717C117.45 101.799 115.591 97.1886 116.079 92.7006C116.566 88.2126 119.585 84.0868 123.501 83.1337C127.418 82.1807 131.882 84.8189 133.071 89.1365C133.726 80.8122 134.48 72.1391 138.401 65.0502C141.952 58.6313 148.102 54.0384 154.766 53.2167C161.431 52.395 168.448 55.4984 172.605 61.4357C176.762 67.373 177.779 76.0046 174.868 82.8211C172.724 87.8426 168.773 91.5797 164.633 94.62C151.256 104.361 135.212 108.323 119.453 105.775L120.51 104.717Z" fill="#F2F2F2"/>
<path d="M166.014 55.6701C160.515 60.7256 155.47 66.3799 150.952 72.5511C143.882 82.1759 138.16 92.9671 133.987 104.549C133.682 105.394 134.897 105.761 135.199 104.926C142.027 86.1034 152.928 69.5134 166.903 56.6733C167.531 56.0965 166.637 55.098 166.014 55.6701Z" fill="white"/>
<path d="M57.0751 151.364C56.4517 151.468 55.8267 151.561 55.2001 151.642C40.0285 153.591 24.7271 149.551 11.8957 140.209C7.75672 137.169 3.80476 133.432 1.66059 128.409C-1.25168 121.593 -0.231944 112.962 3.92456 107.024C5.43777 104.881 7.30268 103.087 9.41733 101.739C9.73155 101.534 10.0506 101.343 10.3747 101.16C13.893 99.1623 17.8447 98.3448 21.7619 98.8042C28.4265 99.6259 34.5777 104.221 38.1281 110.638C42.0477 117.726 42.8031 126.4 43.4564 134.724C43.5088 134.533 43.5686 134.344 43.6334 134.161C43.7714 133.769 43.9382 133.391 44.1321 133.03V146.858C44.1333 147.978 44.5277 149.05 45.2289 149.842C45.93 150.633 46.8806 151.078 47.8721 151.08H56.7908L57.0751 151.364Z" fill="#F2F2F2"/>
<path d="M10.5142 101.259C16.0135 106.315 21.0586 111.969 25.5764 118.14C30.0949 124.305 34.073 130.95 37.4547 137.982C39.3449 141.927 41.043 145.985 42.5412 150.138C42.8467 150.983 41.6311 151.351 41.3291 150.515C38.6753 143.193 35.392 136.181 31.5264 129.582C27.6795 123.006 23.2766 116.867 18.3794 111.251C15.6095 108.076 12.6871 105.075 9.62533 102.263C8.99775 101.686 9.89182 100.687 10.5142 101.259Z" fill="white"/>
<path d="M130.027 119.561H65.3252V111.541C65.3252 110.832 65.0757 110.152 64.6315 109.651C64.1873 109.149 63.5848 108.868 62.9566 108.868C62.3284 108.868 61.7259 109.149 61.2817 109.651C60.8375 110.152 60.5879 110.832 60.5879 111.541V122.235C60.5897 122.943 60.8399 123.622 61.2837 124.123C61.7275 124.624 62.3289 124.906 62.9566 124.908H130.027C130.656 124.908 131.258 124.627 131.702 124.125C132.147 123.624 132.396 122.944 132.396 122.235C132.396 121.526 132.147 120.846 131.702 120.344C131.258 119.843 130.656 119.561 130.027 119.561Z" fill="#F2F2F2"/>
<path d="M194.143 174.983H10.0612C9.98257 174.982 9.90728 174.947 9.85179 174.884C9.7963 174.821 9.76514 174.736 9.76514 174.648C9.76514 174.559 9.7963 174.474 9.85179 174.411C9.90728 174.348 9.98257 174.313 10.0612 174.312H194.143C194.222 174.313 194.297 174.348 194.352 174.411C194.408 174.474 194.439 174.559 194.439 174.648C194.439 174.736 194.408 174.821 194.352 174.884C194.297 174.947 194.222 174.982 194.143 174.983Z" fill="#3F3D56"/>
<path d="M172.289 151.08H31.9145C30.7908 151.081 29.7136 151.586 28.919 152.483C28.1245 153.38 27.6774 154.595 27.6758 155.864V170.216C27.6774 171.484 28.1245 172.7 28.919 173.597C29.7136 174.493 30.7908 174.998 31.9145 175H172.289C173.413 174.998 174.49 174.493 175.285 173.597C176.079 172.7 176.527 171.484 176.528 170.216V155.864C176.527 154.595 176.079 153.38 175.285 152.483C174.49 151.586 173.413 151.081 172.289 151.08ZM176.029 170.216C176.028 171.335 175.634 172.408 174.933 173.199C174.232 173.99 173.281 174.436 172.289 174.437H31.9145C30.9229 174.436 29.9723 173.99 29.2712 173.199C28.5701 172.408 28.1757 171.335 28.1744 170.216V155.864C28.1757 154.745 28.5701 153.672 29.2712 152.88C29.9723 152.089 30.9229 151.644 31.9145 151.642H172.289C173.281 151.644 174.232 152.089 174.933 152.88C175.634 153.672 176.028 154.745 176.029 155.864V170.216Z" fill="#3F3D56"/>
<path d="M165.433 166.276H35.6548V158.256C35.6548 157.547 35.4053 156.867 34.9611 156.366C34.5168 155.864 33.9144 155.583 33.2862 155.583C32.6579 155.583 32.0555 155.864 31.6113 156.366C31.167 156.867 30.9175 157.547 30.9175 158.256V168.95C30.9193 169.658 31.1695 170.337 31.6133 170.838C32.0571 171.339 32.6585 171.621 33.2862 171.623H165.433C166.061 171.623 166.664 171.341 167.108 170.84C167.552 170.339 167.802 169.659 167.802 168.95C167.802 168.241 167.552 167.561 167.108 167.059C166.664 166.558 166.061 166.276 165.433 166.276Z" fill="#F2F2F2"/>
<path d="M142.245 141.512H51.8614V133.491C51.8614 132.782 51.6118 132.102 51.1676 131.601C50.7234 131.1 50.1209 130.818 49.4927 130.818C48.8645 130.818 48.262 131.1 47.8178 131.601C47.3736 132.102 47.124 132.782 47.124 133.491V144.185C47.1259 144.893 47.376 145.572 47.8198 146.073C48.2636 146.574 48.865 146.856 49.4927 146.858H142.245C142.873 146.858 143.476 146.577 143.92 146.075C144.364 145.574 144.614 144.894 144.614 144.185C144.614 143.476 144.364 142.796 143.92 142.295C143.476 141.793 142.873 141.512 142.245 141.512Z" fill="#F2F2F2"/>
<path d="M151.076 160.105C131.129 154.476 88.7425 162.356 87.9945 162.356C87.264 162.356 40.8928 170.137 42.4212 151.642C42.4362 151.457 42.4561 151.271 42.4811 151.08H166.956C166.986 151.246 167.016 151.434 167.043 151.642C167.525 155.309 167.288 164.68 151.076 160.105Z" fill="#FF1616"/>
<path d="M156.582 127.723H47.872C46.7483 127.724 45.6711 128.229 44.8765 129.126C44.082 130.023 43.6349 131.238 43.6333 132.507V146.859C43.6359 148.127 44.0833 149.342 44.8776 150.238C45.672 151.135 46.7486 151.64 47.872 151.643H156.582C157.704 151.638 158.78 151.133 159.574 150.236C160.368 149.34 160.816 148.126 160.82 146.859V132.507C160.819 131.238 160.372 130.023 159.577 129.126C158.782 128.229 157.705 127.724 156.582 127.723ZM160.322 146.859C160.32 147.978 159.925 149.05 159.224 149.841C158.523 150.632 157.573 151.078 156.582 151.08H47.872C46.8807 151.078 45.9305 150.632 45.2296 149.841C44.5286 149.05 44.1339 147.978 44.132 146.859V132.507C44.1332 131.388 44.5276 130.315 45.2287 129.523C45.9299 128.732 46.8804 128.287 47.872 128.285H156.582C157.573 128.287 158.524 128.732 159.225 129.523C159.926 130.315 160.32 131.388 160.322 132.507V146.859Z" fill="#3F3D56"/>
<path d="M142.751 135.63C125.317 130.711 88.2683 137.598 87.6145 137.598C86.9759 137.598 46.4449 144.399 47.7808 128.234C47.7939 128.072 47.8114 127.909 47.8332 127.742H156.631C156.657 127.887 156.684 128.052 156.708 128.234C157.128 131.439 156.921 139.63 142.751 135.63Z" fill="#FF1616"/>
<path d="M143.118 128.004H61.0868C59.963 128.002 58.8857 127.498 58.091 126.601C57.2964 125.704 56.8494 124.488 56.8481 123.22V108.868C56.8494 107.599 57.2964 106.383 58.091 105.486C58.8857 104.589 59.963 104.085 61.0868 104.083H143.118C144.241 104.085 145.319 104.589 146.113 105.486C146.908 106.383 147.355 107.599 147.356 108.868V123.22C147.355 124.488 146.908 125.704 146.113 126.601C145.319 127.498 144.241 128.002 143.118 128.004ZM61.0868 104.646C60.0953 104.648 59.1446 105.093 58.4435 105.884C57.7423 106.675 57.3479 107.748 57.3468 108.868V123.22C57.3479 124.339 57.7423 125.412 58.4435 126.203C59.1446 126.994 60.0953 127.44 61.0868 127.441H143.118C144.109 127.44 145.06 126.994 145.761 126.203C146.462 125.412 146.857 124.339 146.858 123.22V108.868C146.857 107.748 146.462 106.675 145.761 105.884C145.06 105.093 144.109 104.648 143.118 104.646H61.0868Z" fill="#3F3D56"/>
<path d="M133.314 110.163C119.945 106.391 91.5353 111.672 91.034 111.672C90.5444 111.672 59.4647 116.887 60.4891 104.491C60.4992 104.367 60.5125 104.243 60.5292 104.114H143.957C143.977 104.226 143.997 104.352 144.015 104.491C144.338 106.949 144.179 113.23 133.314 110.163Z" fill="#FF1616"/>
<path d="M102.207 105.51C106.889 105.51 110.684 105.132 110.684 104.666C110.684 104.2 106.889 103.822 102.207 103.822C97.5249 103.822 93.7295 104.2 93.7295 104.666C93.7295 105.132 97.5249 105.51 102.207 105.51Z" fill="#3F3D56"/>
<path d="M101.728 73.3298C101.721 73.4853 101.725 73.6412 101.74 73.796L92.2688 82.7678L89.4443 81.6135L87.3438 86.197L93.5191 89.5147L103.874 76.3999C104.397 76.507 104.936 76.4318 105.42 76.1845C105.904 75.9372 106.31 75.5293 106.584 75.0153C106.858 74.5012 106.986 73.9052 106.953 73.3067C106.919 72.7081 106.725 72.1353 106.396 71.6644C106.067 71.1935 105.618 70.8468 105.11 70.6705C104.602 70.4942 104.059 70.4966 103.552 70.6774C103.045 70.8582 102.6 71.2088 102.274 71.6826C101.948 72.1564 101.758 72.7309 101.728 73.3298Z" fill="#FFB8B8"/>
<path d="M89.0251 88.3956L79.8787 84.6695C79.4626 84.5004 79.08 84.2404 78.753 83.9044C78.4259 83.5684 78.1607 83.1629 77.9726 82.7112C77.7845 82.2594 77.677 81.7702 77.6565 81.2716C77.6359 80.773 77.7026 80.2747 77.8528 79.8052C78.0029 79.3356 78.2336 78.9041 78.5316 78.5353C78.8295 78.1664 79.189 77.8674 79.5894 77.6555C79.9898 77.4435 80.4233 77.3227 80.8651 77.2999C81.3069 77.2771 81.7484 77.3528 82.1643 77.5226L91.3107 81.2488C91.4493 81.3052 91.5767 81.3919 91.6856 81.5039C91.7945 81.616 91.8827 81.7511 91.9454 81.9016C92.008 82.0521 92.0437 82.2151 92.0505 82.3812C92.0573 82.5473 92.0351 82.7133 91.9851 82.8697L90.4614 87.6344C90.36 87.95 90.1519 88.2074 89.8827 88.3501C89.6134 88.4928 89.305 88.5092 89.0251 88.3956Z" fill="#2F2E41"/>
<path d="M101.479 66.3741C101.413 66.3741 101.349 66.3444 101.303 66.2916C101.256 66.2389 101.229 66.1673 101.229 66.0927V55.6803C101.229 55.6057 101.256 55.5341 101.303 55.4814C101.349 55.4286 101.413 55.3989 101.479 55.3989C101.545 55.3989 101.608 55.4286 101.655 55.4814C101.702 55.5341 101.728 55.6057 101.728 55.6803V66.0927C101.728 66.1673 101.702 66.2389 101.655 66.2916C101.608 66.3444 101.545 66.3741 101.479 66.3741Z" fill="#3F3D56"/>
<path d="M105.717 53.4293C108.038 55.8624 105.145 61.0274 101.977 61.0274C100.456 61.0274 98.9978 60.3455 97.9223 59.1317C96.8469 57.9179 96.2427 56.2715 96.2427 54.5549C96.2427 50.9803 102.441 35.2114 101.229 38.5143C100.843 39.5686 103.06 50.6429 105.717 53.4293Z" fill="#FF6584"/>
<path d="M103.723 94.375H99.4843C99.1868 94.3746 98.9016 94.2411 98.6913 94.0037C98.4809 93.7663 98.3626 93.4444 98.3623 93.1086V64.4045C98.3626 64.0688 98.4809 63.7469 98.6913 63.5095C98.9016 63.2721 99.1868 63.1386 99.4843 63.1382H103.723C104.02 63.1385 104.306 63.2721 104.516 63.5095C104.726 63.7469 104.845 64.0688 104.845 64.4045V93.1086C104.845 93.4444 104.726 93.7663 104.516 94.0037C104.306 94.2411 104.02 94.3746 103.723 94.375Z" fill="#CCCCCC"/>
<path d="M82.3262 124.696H85.383L86.8371 111.388L82.3257 111.388L82.3262 124.696Z" fill="#FFB8B8"/>
<path d="M91.2783 127.899L81.6713 127.899L81.6711 123.71L87.5664 123.71C88.5508 123.71 89.4949 124.151 90.191 124.937C90.8872 125.722 91.2783 126.788 91.2783 127.899Z" fill="#2F2E41"/>
<path d="M74.772 120.239L77.2725 122.223L85.244 112.282L81.5534 109.353L74.772 120.239Z" fill="#FFB8B8"/>
<path d="M80.4624 128.671L72.6035 122.435L74.7384 119.008L79.5609 122.835C80.3662 123.474 80.9136 124.448 81.0827 125.542C81.2517 126.637 81.0286 127.762 80.4624 128.671Z" fill="#2F2E41"/>
<path d="M89.0152 100.724C89.0152 100.724 96.6435 99.7083 95.2743 105.295C93.9051 110.882 78.6484 115.707 78.6484 115.707L89.0152 100.724Z" fill="#FFB8B8"/>
<path d="M83.7645 72.2162C87.1467 72.2162 89.8884 69.1217 89.8884 65.3044C89.8884 61.4871 87.1467 58.3926 83.7645 58.3926C80.3824 58.3926 77.6406 61.4871 77.6406 65.3044C77.6406 69.1217 80.3824 72.2162 83.7645 72.2162Z" fill="#FFB8B8"/>
<path d="M64.235 114.563C60.7504 109.984 59.531 102.955 65.0881 97.1098C66.4605 95.7015 68.0145 94.5368 69.6969 93.6553L74.1756 79.5187C74.6408 78.0424 75.4937 76.7614 76.6207 75.8465C77.7476 74.9316 79.0949 74.4263 80.4829 74.398C81.8305 74.3323 83.1631 74.7392 84.2976 75.5627C85.4321 76.3861 86.313 77.5859 86.8191 78.9971C87.366 80.4327 87.4286 82.0447 86.995 83.5288C85.6618 88.215 83.9109 92.7364 81.7693 97.0238L82.0008 99.1148L93.3214 100.25L93.2158 100.444C93.1607 100.545 87.6202 110.073 80.5325 116.397C78.1089 118.559 75.6029 119.456 73.2376 119.455C69.651 119.455 66.3889 117.394 64.235 114.563Z" fill="#2F2E41"/>
<path d="M102.035 82.9824C101.97 83.12 101.915 83.2631 101.871 83.4104L89.9184 86.9877L87.7964 84.5879L84.1689 87.7291L88.5094 93.6947L102.821 86.7909C103.254 87.1386 103.771 87.3293 104.302 87.3377C104.833 87.346 105.354 87.1716 105.796 86.8376C106.237 86.5036 106.578 86.0259 106.773 85.4679C106.968 84.91 107.008 84.2983 106.887 83.7141C106.766 83.13 106.491 82.6011 106.098 82.1979C105.704 81.7946 105.212 81.5361 104.685 81.4567C104.158 81.3773 103.623 81.4807 103.149 81.7532C102.676 82.0258 102.287 82.4545 102.035 82.9824Z" fill="#FFB8B8"/>
<path d="M84.8632 90.5254L77.9873 82.7648C77.6744 82.4121 77.4262 81.9933 77.2568 81.5323C77.0874 81.0713 77.0001 80.5771 77 80.078C76.9999 79.5789 77.0869 79.0847 77.256 78.6236C77.4252 78.1624 77.6732 77.7435 77.9859 77.3906C78.2986 77.0376 78.6698 76.7577 79.0783 76.5668C79.4869 76.3759 79.9248 76.2777 80.367 76.2778C80.8092 76.278 81.247 76.3765 81.6555 76.5677C82.0639 76.7588 82.435 77.039 82.7475 77.3921L89.6234 85.1527C89.7276 85.2703 89.8103 85.4099 89.8666 85.5635C89.923 85.7171 89.9521 85.8818 89.9521 86.0481C89.9521 86.2144 89.923 86.379 89.8666 86.5326C89.8103 86.6863 89.7276 86.8259 89.6234 86.9434L86.4499 90.5254C86.2393 90.7625 85.954 90.8956 85.6566 90.8956C85.3591 90.8956 85.0738 90.7625 84.8632 90.5254Z" fill="#2F2E41"/>
<path d="M63.1668 67.4728C64.2502 66.0156 64.7149 64.1097 65.0888 62.2549C65.6802 59.3201 66.138 56.2854 67.4521 53.6664C68.7661 51.0474 71.181 48.8774 73.8437 49.0425C76.4912 49.2068 78.6316 51.6108 79.7677 54.3461C80.0428 54.2255 80.3373 54.1715 80.6321 54.1875C80.927 54.2036 81.2155 54.2893 81.4791 54.4393C82.2979 54.9454 82.6041 56.3839 81.9225 57.1041C82.6393 56.7188 83.42 56.5081 84.2138 56.4858C85.0075 56.4635 85.7965 56.6299 86.5295 56.9744C87.4721 57.4273 88.2857 58.1649 88.8809 59.106C89.476 60.047 89.8296 61.1552 89.9028 62.3084C89.9314 62.7765 89.8745 63.2462 89.7356 63.6885C89.5967 64.1307 89.3789 64.536 89.0956 64.8794C87.9206 66.2446 86.2588 65.7736 84.7812 65.4259C83.3855 65.0974 81.6855 65.0087 80.8993 66.5096C80.5895 67.135 80.5027 67.8703 80.6568 68.5654C80.958 70.0636 81.9408 71.1073 82.8943 72.1061L83.0503 72.433C79.6837 73.174 76.0074 70.579 75.1242 66.8382C74.2411 63.0974 76.2859 58.7818 79.5328 57.5339C79.3167 57.5415 79.1028 57.4838 78.913 57.3668C78.7233 57.2499 78.5647 57.0778 78.4535 56.8685C78.3424 56.6592 78.2828 56.4202 78.2809 56.1762C78.279 55.9322 78.3349 55.692 78.4427 55.4805C77.508 54.9531 76.5262 54.5748 75.4969 54.651C73.8197 54.7752 72.3683 56.1226 71.4955 57.7438C70.6226 59.365 70.2274 61.2467 69.827 63.0891C69.4267 64.9315 68.9934 66.8092 68.0601 68.3869C67.4137 69.4797 66.5499 70.3868 65.5377 71.0359C64.5255 71.6849 63.3929 72.058 62.2303 72.1253C61.0677 72.1926 59.9073 71.9523 58.8415 71.4235C57.7758 70.8947 56.8344 70.0921 56.0923 69.0798C57.265 69.7216 58.5918 69.912 59.8694 69.6217C61.1471 69.3315 62.3054 68.5766 63.1668 67.4728Z" fill="#2F2E41"/>
</g>
<defs>
<clipPath id="clip0_1_3810">
<rect width="194.44" height="175" fill="white"/>
</clipPath>
</defs>
</svg>
