<svg width="73" height="92" viewBox="0 0 73 92" fill="none" xmlns="http://www.w3.org/2000/svg">
<g filter="url(#filter0_d_145_956)">
<rect x="14" y="12" width="45" height="64" rx="22.5" fill="white"/>
<path d="M37.25 34C37.25 33.3096 36.6904 32.75 36 32.75C35.3096 32.75 34.75 33.3096 34.75 34L37.25 34ZM35.1161 55.8839C35.6043 56.372 36.3957 56.372 36.8839 55.8839L44.8388 47.9289C45.327 47.4408 45.327 46.6493 44.8388 46.1612C44.3507 45.673 43.5592 45.673 43.0711 46.1612L36 53.2322L28.9289 46.1612C28.4408 45.673 27.6493 45.673 27.1612 46.1612C26.673 46.6493 26.673 47.4408 27.1612 47.9289L35.1161 55.8839ZM34.75 34L34.75 55L37.25 55L37.25 34L34.75 34Z" fill="#FF1616"/>
</g>
<defs>
<filter id="filter0_d_145_956" x="0" y="0" width="73" height="92" filterUnits="userSpaceOnUse" color-interpolation-filters="sRGB">
<feFlood flood-opacity="0" result="BackgroundImageFix"/>
<feColorMatrix in="SourceAlpha" type="matrix" values="0 0 0 0 0 0 0 0 0 0 0 0 0 0 0 0 0 0 127 0" result="hardAlpha"/>
<feOffset dy="2"/>
<feGaussianBlur stdDeviation="7"/>
<feComposite in2="hardAlpha" operator="out"/>
<feColorMatrix type="matrix" values="0 0 0 0 0 0 0 0 0 0 0 0 0 0 0 0 0 0 0.25 0"/>
<feBlend mode="normal" in2="BackgroundImageFix" result="effect1_dropShadow_145_956"/>
<feBlend mode="normal" in="SourceGraphic" in2="effect1_dropShadow_145_956" result="shape"/>
</filter>
</defs>
</svg>
