<svg width="20" height="25" viewBox="0 0 20 25" fill="none" xmlns="http://www.w3.org/2000/svg">
<path d="M11.25 2C11.25 1.30964 10.6904 0.75 10 0.75C9.30964 0.75 8.75 1.30964 8.75 2L11.25 2ZM9.11612 23.8839C9.60427 24.372 10.3957 24.372 10.8839 23.8839L18.8388 15.9289C19.327 15.4408 19.327 14.6493 18.8388 14.1612C18.3507 13.673 17.5592 13.673 17.0711 14.1612L10 21.2322L2.92893 14.1612C2.44078 13.673 1.64932 13.673 1.16117 14.1612C0.67301 14.6493 0.67301 15.4408 1.16117 15.9289L9.11612 23.8839ZM8.75 2L8.75 23L11.25 23L11.25 2L8.75 2Z" fill="#FF1616"/>
</svg>
