<svg width="36" height="36" viewBox="0 0 36 36" fill="none" xmlns="http://www.w3.org/2000/svg">
<path d="M34.2205 25.4623V8.90876C34.2205 7.38216 32.9296 6.14984 31.3305 6.14984H4.33849C2.73939 6.14984 1.44855 7.38216 1.44855 8.90876V25.4623C1.44855 26.9889 2.73939 28.2212 4.33849 28.2212H31.3305C32.9296 28.2212 34.2205 26.9889 34.2205 25.4623ZM31.6966 8.70644C32.3324 9.3134 31.9856 9.93875 31.6388 10.2514L23.8167 17.0935L31.3305 24.561C31.5617 24.8185 31.7159 25.2231 31.4461 25.499C31.1957 25.7933 30.6177 25.7749 30.3672 25.591L21.9479 18.7305L17.8249 22.3171L13.7212 18.7305L5.3018 25.591C5.05134 25.7749 4.47335 25.7933 4.22289 25.499C3.95316 25.2231 4.10729 24.8185 4.33849 24.561L11.8523 17.0935L4.03023 10.2514C3.68344 9.93875 3.33664 9.3134 3.97243 8.70644C4.60822 8.09947 5.26327 8.39376 5.80273 8.83519L17.8249 18.1051L29.8663 8.83519C30.4058 8.39376 31.0608 8.09947 31.6966 8.70644Z" fill="#FF1616"/>
</svg>
