<svg width="39" height="39" viewBox="0 0 39 39" fill="none" xmlns="http://www.w3.org/2000/svg">
<path d="M19.5 13.725C17.9684 13.725 16.4995 14.3334 15.4165 15.4165C14.3334 16.4995 13.725 17.9684 13.725 19.5C13.725 21.0316 14.3334 22.5005 15.4165 23.5835C16.4995 24.6666 17.9684 25.275 19.5 25.275C21.0316 25.275 22.5005 24.6666 23.5835 23.5835C24.6666 22.5005 25.275 21.0316 25.275 19.5C25.275 17.9684 24.6666 16.4995 23.5835 15.4165C22.5005 14.3334 21.0316 13.725 19.5 13.725ZM19.5 9.875C22.0527 9.875 24.5009 10.8891 26.3059 12.6941C28.1109 14.4991 29.125 16.9473 29.125 19.5C29.125 22.0527 28.1109 24.5009 26.3059 26.3059C24.5009 28.1109 22.0527 29.125 19.5 29.125C16.9473 29.125 14.4991 28.1109 12.6941 26.3059C10.8891 24.5009 9.875 22.0527 9.875 19.5C9.875 16.9473 10.8891 14.4991 12.6941 12.6941C14.4991 10.8891 16.9473 9.875 19.5 9.875ZM32.0125 9.39375C32.0125 10.0319 31.759 10.644 31.3077 11.0952C30.8565 11.5465 30.2444 11.8 29.6062 11.8C28.9681 11.8 28.356 11.5465 27.9048 11.0952C27.4535 10.644 27.2 10.0319 27.2 9.39375C27.2 8.75557 27.4535 8.14353 27.9048 7.69227C28.356 7.24101 28.9681 6.9875 29.6062 6.9875C30.2444 6.9875 30.8565 7.24101 31.3077 7.69227C31.759 8.14353 32.0125 8.75557 32.0125 9.39375ZM19.5 4.1C14.7375 4.1 13.9599 4.11348 11.7442 4.21165C10.235 4.28288 9.22242 4.485 8.28302 4.85075C7.44757 5.17415 6.84505 5.56107 6.20402 6.20402C5.60151 6.78614 5.13825 7.49682 4.84882 8.28302C4.48307 9.22627 4.28095 10.2369 4.21165 11.7442C4.11155 13.8694 4.1 14.6124 4.1 19.5C4.1 24.2624 4.11348 25.0401 4.21165 27.2558C4.28288 28.7631 4.485 29.7776 4.84882 30.715C5.17607 31.5524 5.56108 32.1549 6.20017 32.794C6.8489 33.4408 7.45142 33.8278 8.27917 34.1473C9.23012 34.515 10.2427 34.719 11.7442 34.7883C13.8694 34.8884 14.6124 34.9 19.5 34.9C24.2624 34.9 25.0401 34.8865 27.2558 34.7883C28.7612 34.7171 29.7757 34.515 30.715 34.1512C31.5486 33.8258 32.1549 33.4389 32.794 32.7998C33.4428 32.1511 33.8297 31.5486 34.1493 30.7208C34.515 29.7718 34.719 28.7573 34.7883 27.2558C34.8884 25.1306 34.9 24.3876 34.9 19.5C34.9 14.7375 34.8865 13.9599 34.7883 11.7442C34.7171 10.2388 34.515 9.22242 34.1493 8.28302C33.8591 7.49763 33.3967 6.78722 32.796 6.20402C32.2141 5.6012 31.5034 5.1379 30.717 4.84882C29.7737 4.48307 28.7612 4.28095 27.2558 4.21165C25.1306 4.11155 24.3876 4.1 19.5 4.1ZM19.5 0.25C24.7302 0.25 25.3828 0.26925 27.4348 0.3655C29.485 0.46175 30.8806 0.783225 32.1087 1.26063C33.3792 1.74958 34.4496 2.41177 35.5199 3.48015C36.4987 4.44245 37.2561 5.60648 37.7394 6.89125C38.2149 8.11747 38.5382 9.51502 38.6345 11.5651C38.725 13.6172 38.75 14.2698 38.75 19.5C38.75 24.7302 38.7308 25.3828 38.6345 27.4348C38.5382 29.485 38.2149 30.8806 37.7394 32.1087C37.2575 33.3942 36.4999 34.5585 35.5199 35.5199C34.5573 36.4984 33.3933 37.2557 32.1087 37.7394C30.8825 38.2149 29.485 38.5382 27.4348 38.6345C25.3828 38.725 24.7302 38.75 19.5 38.75C14.2698 38.75 13.6172 38.7308 11.5651 38.6345C9.51502 38.5382 8.1194 38.2149 6.89125 37.7394C5.60598 37.2571 4.44174 36.4996 3.48015 35.5199C2.50111 34.5577 1.74367 33.3936 1.26063 32.1087C0.783225 30.8825 0.46175 29.485 0.3655 27.4348C0.275025 25.3828 0.25 24.7302 0.25 19.5C0.25 14.2698 0.26925 13.6172 0.3655 11.5651C0.46175 9.5131 0.783225 8.1194 1.26063 6.89125C1.74233 5.60569 2.49995 4.44134 3.48015 3.48015C4.44202 2.50077 5.60617 1.74328 6.89125 1.26063C8.1194 0.783225 9.5131 0.46175 11.5651 0.3655C13.6172 0.275025 14.2698 0.25 19.5 0.25Z" fill="#FF1616"/>
</svg>
