<svg width="40" height="37" viewBox="0 0 40 37" fill="none" xmlns="http://www.w3.org/2000/svg">
<path d="M8.76975 4.05513C8.76922 5.12478 8.34307 6.1504 7.58507 6.90638C6.82707 7.66236 5.7993 8.08676 4.72786 8.08622C3.65642 8.08569 2.62907 7.66026 1.87183 6.90353C1.11458 6.14679 0.689467 5.12074 0.690003 4.0511C0.690539 2.98145 1.11668 1.95583 1.87468 1.19985C2.63269 0.443872 3.66046 0.01947 4.7319 0.0200048C5.80334 0.0205396 6.83068 0.445968 7.58793 1.2027C8.34517 1.95943 8.77029 2.98548 8.76975 4.05513ZM8.89095 11.0727H0.811199V36.32H8.89095V11.0727ZM21.6569 11.0727H13.6176V36.32H21.5762V23.0712C21.5762 15.6907 31.2113 15.005 31.2113 23.0712V36.32H39.19V20.3287C39.19 7.88658 24.9292 8.35039 21.5762 14.4606L21.6569 11.0727Z" fill="#FF1616"/>
</svg>
