<svg width="36" height="36" viewBox="0 0 36 36" fill="none" xmlns="http://www.w3.org/2000/svg">
<path d="M17.6524 2.95081C24.5152 2.95081 30.1727 8.43602 30.1727 15.2225C30.1727 18.6422 28.932 21.8171 26.8898 24.5081C24.6369 27.4764 21.86 30.0627 18.7344 32.0927C18.019 32.5618 17.3734 32.5972 16.5883 32.0927C13.4449 30.0627 10.668 27.4764 8.43437 24.5081C6.39069 21.8171 5.15143 18.6422 5.15143 15.2225C5.15143 8.43602 10.809 2.95081 17.6524 2.95081ZM17.6524 11.4737C15.3832 11.4737 13.5324 13.3488 13.5324 15.6046C13.5324 17.878 15.3832 19.6661 17.6524 19.6661C19.9232 19.6661 21.7917 17.878 21.7917 15.6046C21.7917 13.3488 19.9232 11.4737 17.6524 11.4737Z" fill="#FF1616"/>
</svg>
