<svg width="500" height="531" viewBox="0 0 500 531" fill="none" xmlns="http://www.w3.org/2000/svg">
<g clip-path="url(#clip0_49_3812)">
<path d="M423.265 392.345L427.689 333.494C444.034 321.232 461.838 316.151 479.556 318.694C453.45 349.929 453.16 417.759 434.308 462.238C428.367 476.032 420.732 487.304 411.97 495.22C403.207 503.136 393.541 507.492 383.688 507.967L362.205 526.761C360.761 498.972 362.77 470.964 368.093 444.667C373.416 418.37 381.926 394.41 393.038 374.436C399.335 363.34 406.404 353.677 414.078 345.678C417.845 369.012 423.265 392.345 423.265 392.345Z" fill="#F2F2F2"/>
<path d="M375.886 34.35C377.027 29.7274 378.759 25.6264 380.947 22.3638C383.135 19.1011 385.722 16.764 388.507 15.5329C394.691 12.7122 403.746 17.009 408.394 23.1784C416.898 34.4634 418.973 73.2316 413.131 85.4827C411.969 85.4008 407.959 85.3402 406.783 85.2816L405.119 77.8975V85.2088C395.939 84.831 386.382 85.0676 376.819 85.3122C375.962 76.6382 373.92 42.6938 375.886 34.35Z" fill="#2F2E41"/>
<path d="M377.445 501.832L369.072 501.831L365.088 445.194L377.446 445.195L377.445 501.832Z" fill="#9E616A"/>
<path d="M450.743 492.7L442.64 496.404L430.639 443.361L442.598 437.896L450.743 492.7Z" fill="#9E616A"/>
<path d="M388.671 76.1323C395.995 76.1323 401.933 65.7201 401.933 52.876C401.933 40.0318 395.995 29.6196 388.671 29.6196C381.347 29.6196 375.409 40.0318 375.409 52.876C375.409 65.7201 381.347 76.1323 388.671 76.1323Z" fill="#9E616A"/>
<path d="M379.558 22.5921C382.107 19.8679 385.025 18.3943 388.009 18.3253C390.993 18.2563 393.933 19.5945 396.522 22.2C399.11 24.8054 401.251 28.5824 402.722 33.1361C404.193 37.6897 404.94 42.8527 404.883 48.0853C397.654 51.3254 389.951 52.6806 381.787 48.8657L379.921 40.8565L378.821 48.8716C376.323 51.9525 373.912 51.9469 371.589 48.8549C371.49 43.6371 372.175 38.4654 373.573 33.8566C374.972 29.2479 377.036 25.3636 379.558 22.5921Z" fill="#2F2E41"/>
<path d="M381.19 529.712H375.249L374.188 519.875L371.472 529.712H355.714C354.959 529.712 354.223 529.289 353.615 528.504C353.006 527.719 352.557 526.613 352.332 525.349C352.107 524.084 352.119 522.727 352.365 521.474C352.611 520.222 353.079 519.141 353.701 518.388L366.285 503.147V493.203L379.521 494.588L381.19 529.712Z" fill="#2F2E41"/>
<path d="M459.111 517.687L453.362 520.315L450.921 511.265L449.708 521.986L434.459 528.956C433.728 529.29 432.955 529.206 432.254 528.715C431.552 528.225 430.958 527.354 430.559 526.23C430.159 525.105 429.975 523.787 430.033 522.466C430.092 521.145 430.389 519.892 430.882 518.889L440.867 498.574L439.437 488.951L452.444 484.437L459.111 517.687Z" fill="#2F2E41"/>
<path d="M449.715 457.083C444.591 423.677 438.893 391.006 425.172 368.622L421.395 271.414C426.707 254.113 412.914 208.45 412.914 208.45L408.096 196.148L374.697 206.313C366.881 243.7 363.07 252.918 363.518 323.12C363.967 393.323 365.058 466.241 365.058 466.241H364.575C363.774 466.241 363.005 466.799 362.438 467.793C361.871 468.787 361.553 470.136 361.553 471.541C361.553 472.947 361.871 474.295 362.438 475.289C363.005 476.283 363.774 476.842 364.575 476.842H379.688C380.489 476.842 381.258 476.283 381.825 475.289C382.392 474.295 382.71 472.947 382.71 471.541C382.71 470.136 382.392 468.787 381.825 467.793C381.258 466.799 380.489 466.241 379.688 466.241H379.298C388.169 422.514 389.753 355.262 390.147 284.166L402.762 374.015L433.246 456.743C432.469 456.849 431.745 457.48 431.227 458.502C430.709 459.525 430.437 460.86 430.468 462.226C430.499 463.593 430.832 464.885 431.395 465.832C431.958 466.778 432.708 467.305 433.488 467.301H448.601C449.304 467.302 449.985 466.874 450.527 466.089C451.069 465.304 451.437 464.212 451.569 463.001C451.702 461.79 451.589 460.537 451.25 459.457C450.912 458.376 450.369 457.537 449.715 457.083Z" fill="#2F2E41"/>
<path d="M416.369 217.512C416.243 216.647 415.965 215.874 415.573 215.303C415.182 214.733 414.698 214.395 414.19 214.337C410.077 207.017 406.996 142.055 410.231 137.565L410.226 137.485L409.262 101.381C409.227 100.07 408.918 98.8269 408.394 97.8901C407.869 96.9534 407.166 96.3883 406.42 96.3026L401.329 95.7191C401.259 95.715 401.193 95.6635 401.145 95.5754C401.096 95.4873 401.069 95.3696 401.069 95.2471C401.069 94.2613 400.958 93.2851 400.743 92.3743C400.528 91.4636 400.213 90.636 399.815 89.9389C399.418 89.2419 398.946 88.6889 398.426 88.3117C397.907 87.9344 397.35 87.7402 396.788 87.7402H381.717C380.741 87.7409 379.799 88.3664 379.067 89.4992C378.335 90.632 377.864 92.1942 377.742 93.8927C377.736 94.0097 377.704 94.1179 377.654 94.1957C377.604 94.2736 377.539 94.3153 377.472 94.3127L377.47 94.3126C375.757 94.2507 374.089 95.2674 372.767 97.1782C371.446 99.0891 370.559 101.767 370.267 104.727C368.206 125.75 369.18 169.623 371.221 196.148C371.932 205.382 366.506 223.11 366.238 230.836C366.211 231.583 366.269 232.331 366.407 233.039C366.546 233.746 366.763 234.399 367.045 234.959C366.444 235.263 365.934 235.964 365.622 236.915C365.31 237.866 365.221 238.992 365.373 240.056C365.53 241.146 365.927 242.083 366.478 242.659C367.028 243.236 367.687 243.406 368.309 243.131L414.615 222.66C415.237 222.385 415.771 221.688 416.1 220.723C416.429 219.757 416.526 218.602 416.369 217.512Z" fill="#E6E6E6"/>
<path d="M316.767 128.467C317.57 127.917 318.433 127.682 319.293 127.779C320.154 127.877 320.992 128.304 321.749 129.031C322.505 129.758 323.161 130.767 323.671 131.987C324.181 133.207 324.533 134.608 324.7 136.091L371.232 153.64L364.038 167.99L319.656 148.496C318.216 148.825 316.757 148.217 315.556 146.786C314.354 145.355 313.494 143.201 313.138 140.732C312.782 138.263 312.955 135.651 313.624 133.39C314.292 131.13 315.411 129.378 316.767 128.467Z" fill="#9E616A"/>
<path d="M378.015 173.428C370.831 180.023 327.433 154.224 325.537 153.092L325.055 152.804L333.98 138.417L368.316 147.234L369.356 111.979C369.474 108.088 370.274 104.357 371.648 101.295C373.022 98.234 374.902 95.9922 377.03 94.8772C378.916 93.8941 380.918 93.8363 382.821 94.7101C384.723 95.5839 386.453 97.3559 387.821 99.8333C389.189 102.311 390.144 105.399 390.581 108.761C391.019 112.124 390.922 115.632 390.301 118.905L381.805 163.706C381.15 167.145 380.032 170.257 378.545 172.776C378.387 173.036 378.209 173.256 378.015 173.428Z" fill="#E6E6E6"/>
<path d="M338.336 529.012H69.7363L69.6698 528.641L69.6032 528.27C68.7251 523.374 67.9221 518.411 67.1993 513.415C66.4765 508.42 65.8339 503.392 65.2767 498.368C64.5193 491.545 63.9124 484.651 63.4592 477.735C63.006 470.818 62.7064 463.879 62.5635 456.966C62.3153 444.71 63.4798 432.493 65.9873 421.046C68.4947 409.599 72.2935 399.156 77.1563 390.344C82.0191 381.532 87.8458 374.531 94.2878 369.76C100.73 364.99 107.654 362.548 114.647 362.58H298.518C305.83 362.558 313.062 365.239 319.744 370.447C326.425 375.656 332.406 383.276 337.295 392.81C342.184 402.344 345.873 413.578 348.12 425.78C350.368 437.981 351.123 450.877 350.338 463.625C349.814 471.867 348.934 480.029 347.707 488.038C346.437 496.323 344.835 504.44 342.912 512.329C342.258 515.016 341.562 517.71 340.824 520.409C340.089 523.102 339.316 525.782 338.507 528.45L338.422 528.731L338.336 529.012Z" fill="#E6E6E6"/>
<path d="M300.494 395.973H107.659C103.41 395.973 99.3358 393.013 96.3316 387.745C93.3274 382.477 91.6396 375.332 91.6396 367.881C91.6396 360.431 93.3274 353.285 96.3316 348.017C99.3358 342.749 103.41 339.789 107.659 339.789H300.494C304.743 339.789 308.817 342.749 311.822 348.017C314.826 353.285 316.514 360.431 316.514 367.881C316.514 375.332 314.826 382.477 311.822 387.745C308.817 393.013 304.743 395.973 300.494 395.973Z" fill="#FF1616"/>
<path d="M302.927 376.545H106.642L106.509 375.803C103.472 358.909 101.742 341.378 101.363 323.678C101.189 314.697 102.049 305.748 103.889 297.362C105.73 288.977 108.515 281.327 112.078 274.87C115.642 268.412 119.91 263.28 124.628 259.777C129.347 256.275 134.419 254.474 139.543 254.484H273.764C279.123 254.474 284.423 256.444 289.319 260.264C294.215 264.085 298.598 269.671 302.181 276.659C305.765 283.647 308.469 291.88 310.117 300.822C311.766 309.764 312.322 319.215 311.75 328.559C310.761 344.383 307.85 360.339 303.098 375.983L302.927 376.545Z" fill="#E6E6E6"/>
<path d="M276.315 289.965H134.257C130.008 289.965 125.934 287.006 122.93 281.737C119.926 276.469 118.238 269.324 118.238 261.873C118.238 254.423 119.926 247.278 122.93 242.009C125.934 236.741 130.008 233.781 134.257 233.781H276.315C280.563 233.781 284.638 236.741 287.642 242.009C290.646 247.278 292.334 254.423 292.334 261.873C292.334 269.324 290.646 276.469 287.642 281.737C284.638 287.006 280.563 289.965 276.315 289.965Z" fill="#FF1616"/>
<path d="M285.775 191.155C282.797 185.336 279.154 180.68 275.083 177.491C271.012 174.302 266.604 172.652 262.145 172.647H151.165C146.915 172.639 142.708 174.133 138.794 177.038C134.88 179.943 131.34 184.2 128.384 189.556C125.429 194.912 123.119 201.257 121.592 208.212C120.064 215.167 119.351 222.59 119.495 230.039C119.807 244.693 121.238 259.208 123.751 273.195L123.884 273.937H286.319L286.488 273.375C290.283 261.2 292.714 247.865 293.652 234.089C294.131 226.364 293.677 218.548 292.32 211.151C290.963 203.754 288.733 196.941 285.775 191.155Z" fill="#E6E6E6"/>
<path d="M260.12 172.646H155.288C154.509 176.862 154.31 181.341 154.707 185.717C155.104 190.094 156.085 194.243 157.571 197.827C159.057 201.411 161.006 204.328 163.257 206.339C165.509 208.35 168 209.399 170.527 209.399H244.881C247.407 209.399 249.898 208.35 252.15 206.339C254.402 204.328 256.35 201.411 257.836 197.827C259.322 194.243 260.304 190.094 260.701 185.717C261.098 181.341 260.899 176.862 260.12 172.646Z" fill="#FF1616"/>
<path d="M342.356 511.914C341.051 517.278 339.59 522.624 337.974 527.953H70.1802C68.4256 518.173 66.9866 508.228 65.8701 498.165C66.3694 497.484 66.9465 497.002 67.5621 496.749C68.1777 496.497 68.8172 496.48 69.4367 496.702C70.7128 497.411 71.8157 498.852 72.568 500.794C74.8228 505.924 75.7658 512.423 76.6544 518.72C77.6035 515.009 78.5888 511.204 80.2451 508.341C80.9044 507.143 81.6981 506.198 82.5763 505.564C83.4544 504.931 84.3979 504.624 85.3471 504.663C86.018 502.558 86.9753 500.778 88.1338 499.479C89.7599 497.783 91.9785 497.55 93.4595 499.596C94.4534 501.168 95.1158 503.282 95.3395 505.596C96.1677 511.914 95.4785 518.508 94.7894 524.889C96.5364 522.197 98.3378 519.462 100.52 518.073C101.508 517.439 102.559 517.168 103.609 517.278C103.814 513.752 104.345 510.307 105.181 507.08C105.887 503.986 107.109 501.338 108.687 499.479C110.313 497.783 112.531 497.55 114.012 499.596C115.006 501.168 115.669 503.282 115.892 505.596C116.721 511.914 116.032 518.508 115.342 524.889C117.089 522.197 118.891 519.462 121.073 518.073C122.061 517.439 123.112 517.168 124.162 517.278C124.367 513.752 124.898 510.307 125.734 507.08C126.44 503.986 127.662 501.338 129.24 499.479C130.866 497.783 133.084 497.55 134.565 499.596C135.559 501.168 136.222 503.282 136.445 505.596C137.274 511.914 136.585 518.508 135.895 524.889C137.642 522.197 139.444 519.462 141.626 518.073C142.614 517.439 143.665 517.168 144.715 517.278C144.92 513.752 145.451 510.307 146.287 507.08C146.993 503.986 148.215 501.338 149.793 499.479C151.419 497.783 153.637 497.55 155.118 499.596C156.112 501.168 156.775 503.282 156.998 505.596C157.827 511.914 157.138 518.508 156.448 524.889C158.195 522.197 159.997 519.462 162.179 518.073C163.167 517.439 164.218 517.168 165.268 517.278C165.473 513.752 166.004 510.307 166.84 507.08C167.546 503.986 168.768 501.338 170.346 499.479C171.972 497.783 174.19 497.55 175.671 499.596C176.665 501.168 177.328 503.282 177.551 505.596C178.38 511.914 177.691 518.508 177.001 524.889C178.748 522.197 180.55 519.462 182.732 518.073C183.72 517.439 184.771 517.168 185.821 517.278C186.026 513.752 186.557 510.307 187.393 507.08C188.099 503.986 189.321 501.338 190.899 499.479C192.525 497.783 194.743 497.55 196.224 499.596C197.218 501.168 197.881 503.282 198.104 505.596C198.933 511.914 198.244 518.508 197.554 524.889C199.301 522.197 201.103 519.462 203.285 518.073C204.273 517.439 205.324 517.168 206.374 517.278C206.579 513.752 207.11 510.307 207.946 507.08C208.652 503.986 209.874 501.338 211.452 499.479C213.078 497.783 215.296 497.55 216.777 499.596C217.771 501.168 218.434 503.282 218.657 505.596C219.486 511.914 218.797 518.508 218.107 524.889C219.854 522.197 221.656 519.462 223.838 518.073C224.826 517.439 225.877 517.168 226.927 517.278C227.132 513.752 227.663 510.307 228.499 507.08C229.205 503.986 230.427 501.338 232.005 499.479C233.631 497.783 235.849 497.55 237.33 499.596C238.324 501.168 238.987 503.282 239.21 505.596C240.039 511.914 239.35 518.508 238.66 524.889C240.407 522.197 242.209 519.462 244.391 518.073C245.379 517.439 246.43 517.168 247.48 517.278C247.685 513.752 248.216 510.307 249.052 507.08C249.758 503.986 250.98 501.338 252.558 499.479C254.184 497.783 256.402 497.55 257.883 499.596C258.877 501.168 259.54 503.282 259.763 505.596C260.592 511.914 259.903 518.508 259.213 524.889C260.96 522.197 262.762 519.462 264.944 518.073C265.932 517.439 266.983 517.168 268.033 517.278C268.238 513.752 268.769 510.307 269.605 507.08C270.311 503.986 271.533 501.338 273.111 499.479C274.737 497.783 276.955 497.55 278.436 499.596C279.43 501.168 280.093 503.282 280.316 505.596C281.145 511.914 280.456 518.508 279.766 524.889C281.513 522.197 283.315 519.462 285.497 518.073C286.485 517.439 287.536 517.168 288.586 517.278C288.791 513.752 289.322 510.307 290.158 507.08C290.864 503.986 292.086 501.338 293.664 499.479C295.29 497.783 297.508 497.55 298.989 499.596C299.983 501.168 300.646 503.282 300.869 505.596C301.698 511.914 301.008 518.508 300.319 524.889C302.066 522.197 303.868 519.462 306.05 518.073C307.038 517.439 308.089 517.168 309.139 517.278C309.344 513.752 309.875 510.307 310.711 507.08C311.417 503.986 312.639 501.338 314.217 499.479C315.843 497.783 318.061 497.55 319.542 499.596C320.536 501.168 321.199 503.282 321.422 505.596C322.251 511.914 321.561 518.508 320.872 524.889C322.619 522.197 324.421 519.462 326.603 518.073C327.591 517.439 328.642 517.168 329.692 517.278C329.897 513.752 330.428 510.307 331.264 507.08C331.97 503.986 333.192 501.338 334.77 499.479C336.396 497.783 338.614 497.55 340.095 499.596C341.089 501.168 341.752 503.282 341.975 505.596C342.238 507.67 342.366 509.789 342.356 511.914Z" fill="#CCCCCC"/>
<path d="M123.596 207.128C127.838 203.847 132.953 205.09 136.739 209.62C140.726 214.39 142.582 222.789 142.097 231.077C141.829 235.833 140.73 240.327 138.95 243.947L139.591 243.481C137.617 243.439 136.536 239.387 136.836 236.327C137.242 232.183 139.941 230.039 142.085 229.728C145.005 229.305 147.812 231.525 150.445 233.441C153.27 235.513 156.164 237.284 159.112 238.745C165.106 241.68 171.285 243.295 177.506 243.555C180.573 243.685 183.642 243.475 186.694 242.926C189.483 242.423 192.342 241.801 194.958 239.94C197.602 238.058 199.886 234.964 201.016 230.26C201.573 228.178 201.798 225.87 201.668 223.581C201.538 221.292 201.058 219.108 200.279 217.258C200.166 217.064 200.026 216.924 199.873 216.853C199.721 216.782 199.56 216.782 199.407 216.852C199.254 216.923 199.114 217.062 199.002 217.257C198.889 217.451 198.807 217.693 198.763 217.96C198.345 221.588 198.362 225.331 198.814 228.947C199.267 232.564 200.144 235.975 201.39 238.964C202.714 242.153 204.43 244.777 206.413 246.642C208.395 248.506 210.591 249.563 212.838 249.734C217.969 250.22 222.987 246.733 227.442 242.602C232.099 238.285 236.347 232.755 241.081 228.678C245.648 224.744 250.908 221.848 255.989 224.208C260.038 226.088 264.319 232.291 262.982 240.444C262.466 243.593 261.026 246.244 259.07 246.234C257.41 246.226 255.494 244.385 255.294 241.237C255.054 237.463 257.115 234.5 258.948 233.387C261.574 231.793 264.504 232.988 267.19 233.388C271.601 234.081 276.002 231.898 279.553 227.257C282.977 222.887 285.472 216.637 286.643 209.499C286.918 207.681 287.097 205.821 287.177 203.945C287.27 201.905 285.456 201.915 285.363 203.945C285.14 207.772 284.485 211.483 283.439 214.863C282.392 218.244 280.973 221.227 279.265 223.639C277.564 226.128 275.602 228.006 273.488 229.167C271.191 230.317 268.784 230.627 266.416 230.079C263.692 229.593 260.764 228.72 258.133 230.536C256.118 231.927 254.173 234.687 253.62 238.517C252.546 245.969 257.408 251.367 261.135 248.728C265.318 245.766 265.963 235.872 263.736 229.813C261.058 222.53 255.716 219.697 250.997 220.239C239.784 221.528 231.649 237.285 221.531 243.844C216.757 246.94 211.242 248.136 206.678 243.343C204.829 241.328 203.283 238.565 202.168 235.287C201.052 232.009 200.401 228.311 200.267 224.501C200.205 222.592 200.288 220.676 200.512 218.805L198.996 219.507C200.126 222.07 200.079 225.569 199.477 228.488C198.745 231.756 197.343 234.427 195.547 235.977C193.572 237.67 191.446 238.758 189.262 239.193C186.841 239.809 184.402 240.186 181.957 240.324C172.119 240.956 162.309 238.097 153.116 231.918C148.973 229.128 144.583 224.822 140.022 227.196C136.584 228.985 133.948 234.752 135.386 241.123C135.649 242.453 136.098 243.646 136.693 244.592C137.288 245.537 138.009 246.205 138.79 246.533C139.204 246.751 139.647 246.72 140.049 246.444C140.417 245.94 140.729 245.321 140.968 244.617C141.578 243.215 142.098 241.701 142.52 240.101C144.126 233.976 144.423 227.043 143.358 220.566C140.832 205.527 130.723 198.16 122.681 204.382C121.615 205.207 122.537 207.948 123.596 207.128Z" fill="#3F3D56"/>
<path d="M103.762 301.868C106.358 312.836 110.311 322.654 115.336 330.615C120.36 338.575 126.33 344.479 132.815 347.899C135.024 349.076 137.29 349.9 139.584 350.363C141.769 350.776 144.166 350.535 145.975 348.104C148.58 344.604 148.524 334.596 144.398 334.669C142.359 334.706 140.652 337.982 140.398 341.385C140.102 345.357 141.51 349.069 143.198 351.469C146.9 356.735 151.979 357.385 156.493 355.737C161.676 353.844 166.218 348.706 170.763 344.203C175.968 339.046 182.152 333.868 188.273 336.631C192.916 338.726 197.149 347.271 195.635 355.995L196.967 355.045C194.952 353.443 194.462 349.014 195.254 345.626C196.244 341.385 199.14 339.801 201.543 339.804C204.71 339.808 207.636 342.386 210.447 344.658C213.035 346.793 215.723 348.531 218.481 349.851C229.361 354.81 240.884 353.017 251.096 344.777C253.603 342.788 255.988 340.36 258.217 337.53C259.98 335.25 262.017 331.26 260.596 327.256C260.334 326.476 259.967 325.82 259.528 325.347C259.088 324.874 258.588 324.598 258.073 324.544C256.832 324.532 256.288 326.044 255.9 327.889C255.135 331.815 255.127 336.074 255.877 340.01C257.451 348.732 261.647 354.751 266.623 356.949C272.126 359.379 278.052 357.722 283.373 354.719C293.546 348.92 302.31 337.283 308.251 321.682C308.993 319.722 309.68 317.701 310.32 315.635C310.878 313.836 309.313 312.229 308.755 314.029C303.874 329.631 296.175 341.945 286.868 349.034C278.327 355.54 264.186 360.329 258.6 343.055C257.444 339.649 256.954 335.673 257.208 331.734C257.309 330.487 257.537 326.878 258.58 328.056C259.762 329.39 259.12 331.746 258.368 333.154C256.675 336.328 254.114 338.557 251.932 340.531C249.592 342.64 247.151 344.384 244.637 345.742C234.451 351.315 223.481 350.567 213.573 343.623C208.315 339.847 202.314 333.145 196.614 338.685C195.581 339.642 194.711 341.061 194.092 342.799C193.473 344.536 193.128 346.529 193.09 348.577C193.027 352.333 194.037 356.189 196.052 357.791C196.173 357.908 196.307 357.977 196.445 357.991C196.582 358.006 196.72 357.966 196.848 357.875C196.976 357.784 197.09 357.643 197.183 357.464C197.276 357.285 197.345 357.072 197.384 356.84C198.519 350.302 196.948 343.46 194.196 338.902C190.959 333.542 186.552 332.007 182.231 333.053C172.416 335.429 165.3 349.544 155.693 352.782C151.548 354.179 146.435 353.395 143.453 347.522C142.121 344.898 141.369 339.584 143.859 338.039C145.686 336.905 146.258 340.705 145.851 343.043C144.592 350.266 137.636 346.848 134.75 345.539C130.781 343.726 126.98 340.925 123.463 337.221C115.417 328.85 109.122 316.158 105.511 301.023C105.076 299.153 103.32 299.971 103.762 301.868Z" fill="#CCCCCC"/>
<path d="M64.9806 436.75C78.8828 432.156 95.9758 427.528 106.404 448.705C108.473 452.817 109.902 457.795 110.554 463.158C110.83 465.569 111.176 468.245 109.78 469.735C109.243 470.279 108.635 470.576 108.015 470.599C107.394 470.622 106.781 470.369 106.231 469.865C103.185 466.901 104.882 459.018 107.174 456.435C110.296 452.918 114.313 454.42 117.517 456.709C120.993 459.194 124.281 462.368 127.798 464.709C131.123 466.919 134.532 468.718 138 470.093C145.184 472.947 152.56 474.029 159.915 473.307C167.047 472.736 174.09 470.306 180.814 466.096C183.387 464.413 186.065 461.982 187.632 457.869C188.352 456.041 188.721 453.857 188.686 451.636C188.651 449.414 188.213 447.27 187.435 445.515C186.617 443.588 185.44 442.224 184.108 441.663C182.776 441.102 181.374 441.378 180.146 442.443C179.01 443.519 178.087 445.174 177.499 447.189C177.016 448.849 176.387 452.131 177.003 453.88C177.316 454.768 178.082 455.121 178.583 455.552C179.422 456.274 180.268 456.971 181.121 457.643C182.613 458.818 184.123 459.921 185.651 460.952C188.995 463.204 192.415 465.092 195.892 466.604C209.572 472.535 223.848 472.845 237.608 467.51C241.029 466.18 244.401 464.488 247.706 462.443C250.83 460.507 254.128 458.437 257.001 455.505C259.266 453.194 261.92 449.224 261.707 444.14C261.622 442.282 261.126 440.556 260.326 439.329C259.526 438.102 258.484 437.471 257.423 437.57C256.333 437.575 255.265 438.113 254.34 439.122C253.414 440.132 252.667 441.573 252.182 443.285C250.951 448.18 252.183 453.755 253.978 457.662C257.855 466.1 264.469 469.131 270.403 469.028C277.279 468.908 283.798 465.099 290.176 460.957C297.318 456.319 304.775 451.17 312.534 451.992C319.527 452.734 326.115 459.988 333.216 458.482C339.379 457.175 342.997 448.526 344.595 438.678C345.318 433.877 345.812 428.979 346.072 424.035C346.202 422.004 344.387 422.02 344.259 424.035C343.642 433.701 342.705 445.961 337.831 452.099C331.92 459.543 324.224 452.983 318.029 450.339C310.882 447.288 303.867 449.368 296.978 453.326C290.191 457.225 283.657 462.555 276.588 464.78C270.447 466.713 263.651 466.498 258.295 460.224C255.664 457.14 252.526 451.08 253.736 445.008C254.428 441.54 258.031 438.702 259.494 442.341C261.649 447.7 256.232 452.779 254.151 454.458C250.965 457.021 247.689 459.226 244.344 461.061C222.449 473.038 198.76 469.685 178.243 451.704L178.693 453.077C178.344 447.586 181.525 442.433 184.562 445.322C187.454 448.074 187.435 454.114 185.277 457.902C183.151 461.633 180.103 463.294 177.298 464.772C174.202 466.402 171.05 467.681 167.86 468.601C154.466 472.428 140.733 469.974 128.054 461.49C122.375 457.674 116.495 449.924 110.129 451.367C107.59 451.943 105.134 454.104 103.814 458.083C102.651 461.591 102.401 466.201 103.637 469.752C105.611 475.42 112.522 475.159 112.641 467.208C112.777 458.152 109.518 449.109 105.878 443.174C94.5398 424.691 78.3631 429.102 64.4984 433.684C63.3529 434.062 63.8381 437.128 64.9806 436.75Z" fill="#CCCCCC"/>
<path d="M240.786 128.039C245.196 126.719 247.087 117.388 246.051 110.518C245.377 106.051 243.796 102.217 242.04 98.8562C240.001 94.9568 237.74 91.3958 235.568 87.7294C232.913 83.2461 230.257 78.7628 227.601 74.2796C227.488 74.0865 227.348 73.9481 227.196 73.8778C227.043 73.8075 226.882 73.8077 226.73 73.8783C226.577 73.9489 226.438 74.0876 226.325 74.2809C226.212 74.4742 226.129 74.7154 226.085 74.9812C224.937 88.1062 226.738 101.501 231.111 112.342C232.228 115.05 233.486 117.571 234.868 119.871C236.217 122.145 237.664 124.409 238.502 127.401L240.941 130.537C240.86 129.696 240.739 128.869 240.579 128.064C240.648 128.068 240.718 128.059 240.786 128.039Z" fill="#FD6584"/>
<path d="M240.649 127.244H238.836C239.788 130.644 239.399 135.817 239.267 139.502C239.119 143.622 238.916 147.738 238.738 151.854C238.338 161.11 237.938 170.366 237.539 179.622C237.451 181.663 239.265 181.653 239.352 179.622L240.416 154.997C240.597 150.806 240.778 146.614 240.959 142.423C241.105 137.357 241.002 132.278 240.649 127.244Z" fill="#3F3D56"/>
<path d="M240.777 127.604C241.16 125.623 241.297 123.521 241.178 121.44C241.059 119.359 240.688 117.347 240.09 115.538C239.964 115.189 239.766 114.939 239.538 114.841C239.309 114.743 239.068 114.805 238.865 115.013C238.661 115.222 238.512 115.56 238.449 115.957C238.385 116.355 238.412 116.78 238.524 117.143C239.003 118.584 239.297 120.191 239.384 121.852C239.471 123.514 239.35 125.188 239.029 126.758C238.965 127.165 238.996 127.599 239.115 127.965C239.234 128.332 239.431 128.601 239.662 128.713C239.894 128.825 240.141 128.771 240.351 128.563C240.56 128.355 240.713 128.01 240.777 127.604Z" fill="#3F3D56"/>
<path d="M170.06 124.859C174.47 123.539 176.361 114.208 175.325 107.338C174.651 102.871 173.07 99.0367 171.314 95.676C169.275 91.7766 167.014 88.2157 164.842 84.5492C162.186 80.0659 159.531 75.5827 156.875 71.0994C156.762 70.9064 156.622 70.768 156.469 70.6976C156.317 70.6273 156.156 70.6275 156.004 70.6981C155.851 70.7688 155.712 70.9075 155.599 71.1007C155.486 71.294 155.403 71.5353 155.359 71.801C154.211 84.9261 156.012 98.3205 160.385 109.162C161.502 111.87 162.76 114.39 164.142 116.691C165.491 118.965 166.938 121.229 167.776 124.221L170.215 127.357C170.134 126.516 170.013 125.689 169.853 124.884C169.922 124.888 169.992 124.879 170.06 124.859Z" fill="#FD6584"/>
<path d="M169.923 124.063H168.109C169.062 127.464 168.672 132.637 168.54 136.322C168.392 140.442 168.189 144.557 168.011 148.674C167.612 157.93 167.212 167.186 166.812 176.442C166.724 178.483 168.538 178.473 168.626 176.442L169.689 151.817C169.87 147.626 170.051 143.434 170.232 139.243C170.379 134.177 170.275 129.098 169.923 124.063Z" fill="#3F3D56"/>
<path d="M170.051 124.424C170.433 122.443 170.57 120.341 170.451 118.26C170.333 116.179 169.962 114.166 169.363 112.357C169.238 112.009 169.04 111.759 168.811 111.661C168.582 111.563 168.341 111.625 168.138 111.833C167.935 112.041 167.786 112.38 167.722 112.777C167.659 113.174 167.686 113.599 167.797 113.963C168.277 115.403 168.571 117.011 168.658 118.672C168.745 120.334 168.624 122.008 168.302 123.578C168.238 123.985 168.269 124.419 168.388 124.785C168.507 125.152 168.704 125.42 168.936 125.532C169.167 125.644 169.415 125.591 169.624 125.383C169.833 125.175 169.987 124.83 170.051 124.424Z" fill="#3F3D56"/>
<path d="M203.307 119.558C207.717 118.238 209.608 108.908 208.572 102.037C207.898 97.5698 206.317 93.736 204.561 90.3753C202.522 86.4759 200.261 82.9149 198.089 79.2484C195.433 74.7651 192.778 70.2819 190.122 65.7986C190.009 65.6056 189.869 65.4672 189.716 65.3969C189.564 65.3265 189.403 65.3267 189.251 65.3973C189.098 65.468 188.959 65.6067 188.846 65.8C188.733 65.9932 188.65 66.2345 188.606 66.5003C187.458 79.6253 189.259 93.0197 193.632 103.861C194.749 106.569 196.007 109.09 197.389 111.391C198.738 113.664 200.185 115.928 201.023 118.92L203.462 122.056C203.381 121.216 203.26 120.388 203.1 119.583C203.169 119.587 203.239 119.579 203.307 119.558Z" fill="#FD6584"/>
<path d="M203.17 118.763H201.357C202.309 122.163 201.92 127.336 201.788 131.021C201.64 135.141 201.437 139.257 201.259 143.373C200.859 152.629 200.459 161.885 200.06 171.141C199.972 173.182 201.786 173.172 201.873 171.141L202.937 146.516C203.118 142.325 203.299 138.134 203.48 133.942C203.626 128.876 203.523 123.797 203.17 118.763Z" fill="#3F3D56"/>
<path d="M203.298 119.123C203.681 117.142 203.818 115.041 203.699 112.96C203.58 110.879 203.209 108.866 202.611 107.057C202.485 106.708 202.287 106.459 202.059 106.361C201.83 106.263 201.589 106.325 201.386 106.533C201.182 106.741 201.033 107.08 200.97 107.477C200.906 107.874 200.933 108.299 201.045 108.662C201.524 110.103 201.818 111.711 201.905 113.372C201.992 115.033 201.871 116.708 201.55 118.278C201.486 118.684 201.517 119.119 201.636 119.485C201.755 119.851 201.952 120.12 202.183 120.232C202.415 120.344 202.662 120.29 202.872 120.082C203.081 119.875 203.234 119.53 203.298 119.123Z" fill="#3F3D56"/>
<path d="M228.814 308.766C228.367 305.772 226.659 303.243 224.922 303.796C223.526 304.24 222.498 306.484 222.112 308.878C221.812 311.315 221.773 313.829 221.996 316.292C220.439 313.42 218.819 310.469 216.734 308.937C216.001 308.305 215.167 308.126 214.368 308.429C213.825 308.776 213.352 309.397 213.008 310.214C212.664 311.03 212.465 312.005 212.436 313.019C212.399 315.054 212.712 317.063 213.334 318.782C214.204 321.416 215.398 323.675 216.829 325.397C218.26 327.119 219.892 328.259 221.606 328.734L221.044 327.449C223.898 325.704 226.301 322.227 227.821 317.647C228.703 314.965 229.262 311.76 228.814 308.766Z" fill="#FF1616"/>
<path d="M146.602 433.855C146.155 430.861 144.447 428.332 142.71 428.885C141.314 429.329 140.286 431.573 139.9 433.967C139.6 436.404 139.561 438.918 139.785 441.381C138.227 438.508 136.607 435.558 134.522 434.026C133.789 433.394 132.955 433.214 132.156 433.517C131.613 433.865 131.14 434.486 130.796 435.302C130.452 436.119 130.253 437.094 130.224 438.108C130.187 440.143 130.5 442.151 131.122 443.871C131.992 446.504 133.186 448.764 134.617 450.486C136.048 452.207 137.68 453.348 139.394 453.823L138.832 452.537C141.686 450.792 144.089 447.316 145.609 442.735C146.491 440.054 147.05 436.849 146.602 433.855Z" fill="#FF1616"/>
<path d="M161.11 247.282C160.663 244.287 158.955 241.759 157.218 242.312C155.822 242.756 154.794 245 154.408 247.394C154.108 249.831 154.069 252.345 154.292 254.808C152.735 251.935 151.115 248.985 149.03 247.453C148.297 246.821 147.463 246.641 146.664 246.944C146.121 247.292 145.648 247.913 145.304 248.729C144.96 249.545 144.761 250.521 144.731 251.534C144.694 253.57 145.007 255.578 145.63 257.298C146.5 259.931 147.694 262.191 149.125 263.913C150.556 265.634 152.188 266.774 153.902 267.25L153.34 265.964C156.194 264.219 158.597 260.743 160.117 256.162C160.999 253.481 161.558 250.276 161.11 247.282Z" fill="#FF1616"/>
<path d="M288.88 72.1423C287.384 83.665 286.673 96.7285 290.662 107.04C292.358 111.464 294.846 114.769 297.734 116.434C300.656 117.954 303.738 118.286 306.745 117.405C313.549 115.752 319.596 109.537 326.287 107.124C329.24 106.059 332.374 105.707 335.216 107.756C337.346 109.292 339.59 112.379 339.6 116.783C339.611 121.305 337.371 124.306 335.144 125.696C332.171 127.552 329.083 126.834 326 126.6C322.68 126.348 319.294 126.874 316.536 130.44C314.164 133.687 312.344 138.013 311.276 142.946C309.889 148.847 309.327 155.19 308.44 161.347C307.648 166.882 306.527 172.256 305.096 177.381C302.288 187.427 298.352 196.374 293.524 203.686C291.142 207.28 288.249 210.942 284.997 211.271C282.488 211.525 279.439 209.676 278.472 205.221C278.113 203.297 278.148 201.214 278.572 199.331C278.995 197.448 279.78 195.883 280.792 194.907C282.941 193.005 285.282 195.719 285.977 199.443C286.159 200.302 286.222 201.224 286.162 202.134C286.103 203.044 285.921 203.916 285.632 204.679C284.98 206.384 286.55 207.977 287.198 206.284C288.701 202.353 287.915 197.066 286.074 193.918C285.176 192.312 283.975 191.334 282.696 191.167C281.417 191 280.147 191.655 279.123 193.009C278.059 194.43 277.255 196.364 276.809 198.575C276.363 200.785 276.295 203.176 276.612 205.454C277.386 210.348 280.128 213.461 282.866 214.232C286.248 215.184 289.502 212.854 292.232 209.487C294.971 206.02 297.461 201.986 299.649 197.473C304.096 188.503 307.44 178.02 309.47 166.679C311.466 155.462 311.611 140.644 317.542 133.069C320.594 129.171 324.334 129.603 327.912 129.961C331.071 130.277 334.153 130.219 337.051 127.711C339.443 125.641 341.374 121.818 341.414 116.949C341.454 112.033 339.464 108.08 337.119 105.841C330.924 99.9244 323.485 104.696 317.399 108.649C311.279 112.624 304.291 117.289 297.787 113.106C294.785 111.06 292.368 107.011 291.066 101.845C289.491 95.9878 289.267 89.3419 289.631 82.9853C289.846 79.6199 290.179 76.281 290.628 72.9878C290.887 70.9951 289.139 70.1443 288.88 72.1423Z" fill="#3F3D56"/>
<path d="M299.996 39.8184C298.202 50.3184 295.499 60.2722 291.98 69.3309C291.109 71.5571 290.195 73.7267 289.235 75.8398C288.49 73.4639 287.587 71.2507 286.545 69.2461C282.888 62.1966 277.986 57.5853 273.228 52.9633C268.471 48.3414 263.641 43.3803 260.28 35.8855C258.772 32.5118 257.692 28.612 257.112 24.4473C256.351 18.7971 256.641 12.9031 258.521 8.18571C261.253 1.32702 266.7 -1.08994 271.33 0.892399C275.967 2.87474 279.848 8.52494 282.858 15.0126C281.873 7.04083 286.666 -0.655316 291.303 0.0443341C295.939 0.754585 299.657 7.85709 300.89 15.7229C302.129 23.578 301.325 31.995 299.996 39.8184Z" fill="#FF1616"/>
<g opacity="0.2">
<path d="M291.98 69.3309C291.109 71.5571 290.195 73.7267 289.235 75.8398C288.49 73.4638 287.587 71.2506 286.545 69.2461C282.888 62.1966 277.986 57.5853 273.228 52.9633C268.471 48.3414 263.641 43.3802 260.28 35.8855C258.772 32.5117 257.692 28.612 257.112 24.4473C267.807 27.0473 277.634 36.1895 284.859 50.2601C287.751 55.9724 290.151 62.3977 291.98 69.3309Z" fill="black"/>
</g>
<path d="M402.883 219.692C403.745 219.651 404.591 219.279 405.363 218.602C406.134 217.925 406.812 216.96 407.347 215.775C407.883 214.589 408.264 213.212 408.463 211.74C408.663 210.269 408.676 208.738 408.501 207.257L425.901 187.8L416.092 179.485L401.103 199.269C399.703 199.947 398.494 201.503 397.705 203.64C396.915 205.778 396.601 208.349 396.82 210.866C397.039 213.384 397.778 215.673 398.895 217.299C400.012 218.926 401.431 219.777 402.883 219.692Z" fill="#9E616A"/>
<path d="M406.43 125.007C406.43 125.007 396.216 110.523 400.269 100.247C404.322 89.9709 414.672 101.161 414.672 101.161L444.8 161.217C444.8 161.217 412.797 212.156 413.79 204.591C414.782 197.026 407.359 191.112 407.359 191.112L421.64 162.945L418.507 160.282L419.786 158.992L418.442 153.47L406.43 125.007Z" fill="#E6E6E6"/>
<path d="M500 529.41C500 529.576 499.982 529.74 499.946 529.893C499.91 530.047 499.857 530.186 499.79 530.303C499.723 530.42 499.644 530.513 499.556 530.576C499.469 530.64 499.375 530.672 499.281 530.671L363.25 530.703L353.747 530.714L347.479 530.724H340.545L336.761 530.735L326.255 530.746L160.948 530.894L159.691 530.905L85.7483 530.947H84.5272L21.5867 530.989H20.3656L0.719356 531C0.528572 531 0.345608 530.867 0.210702 530.631C0.0757972 530.394 0 530.073 0 529.738C0 529.404 0.0757972 529.083 0.210702 528.847C0.345608 528.61 0.528572 528.477 0.719356 528.477L20.5711 528.466H21.7922L84.7146 528.424H85.9357L159.304 528.382H160.555L223.073 528.339H223.895L325.106 528.233L335.594 528.223L340.394 528.212L347.98 528.201H354.461L364.671 528.191L499.281 528.148C499.375 528.148 499.469 528.18 499.556 528.243C499.644 528.307 499.723 528.4 499.79 528.517C499.857 528.634 499.91 528.773 499.946 528.927C499.982 529.08 500 529.244 500 529.41Z" fill="#CACACA"/>
<path d="M415.763 24.9005C414.452 21.3763 413.007 17.6521 410.782 16.0774C408.558 14.5027 405.403 16.3857 405.1 20.5593C404.874 23.6792 406.232 26.359 407.254 28.9433C408.275 31.5277 408.94 35.4285 407.605 37.5287L406.854 38.2079C407.572 39.8341 408.497 41.1425 409.556 42.0282C410.614 42.9138 411.776 43.352 412.948 43.3076C415.282 43.0486 417.531 40.0111 417.925 35.9691C418.309 32.0278 417.008 28.2497 415.763 24.9005Z" fill="#2F2E41"/>
</g>
<defs>
<clipPath id="clip0_49_3812">
<rect width="500" height="531" fill="white"/>
</clipPath>
</defs>
</svg>
