<svg width="250" height="225" viewBox="0 0 250 225" fill="none" xmlns="http://www.w3.org/2000/svg">
<g clip-path="url(#clip0_49_3855)">
<path d="M232.039 19.0469H34.8386C27.6046 19.0469 21.7222 23.4268 21.7222 28.8132V129.434C21.7222 134.821 27.6046 139.201 34.8386 139.201H232.039C239.273 139.201 245.156 134.821 245.156 129.434V28.8132C245.156 23.4268 239.273 19.0469 232.039 19.0469Z" fill="#F2F2F2"/>
<path d="M210.645 26.7974H13.444C6.21003 26.7974 0.327637 31.1773 0.327637 36.5637V137.185C0.327637 142.571 6.21003 146.951 13.444 146.951H210.645C217.879 146.951 223.761 142.571 223.761 137.185V36.5637C223.761 31.1773 217.879 26.7974 210.645 26.7974ZM222.382 107.569C222.382 128.752 199.32 145.924 170.871 145.924H13.444C6.96177 145.924 1.70686 142.012 1.70686 137.185V36.5637C1.70686 31.7371 6.96175 27.8243 13.444 27.8243H210.645C217.127 27.8243 222.382 31.7371 222.382 36.5637V107.569Z" fill="#3F3D56"/>
<path d="M28.4957 125.145L27.3286 124.598C28.0873 123.7 28.8701 122.83 29.6547 122.011L30.7773 122.608C30.0079 123.41 29.2405 124.264 28.4957 125.145Z" fill="#CCCCCC"/>
<path d="M36.1006 117.826L35.1133 117.109C37.2178 115.503 39.4328 114.125 41.6962 113.012L42.4565 113.869C40.2749 114.941 38.1364 116.273 36.1006 117.826ZM70.509 111.344C68.8621 111.344 67.3616 111.187 66.2383 111.05L66.4612 110.037C67.5994 110.176 68.9702 110.317 70.509 110.317C71.868 110.317 73.2038 110.206 74.5924 109.977L74.8901 110.98C73.4025 111.225 71.9694 111.344 70.509 111.344ZM49.8715 111.208L49.4567 110.229C50.9383 109.881 52.4731 109.62 54.0183 109.454C55.3453 109.311 56.6141 109.241 57.8967 109.241H57.9815V110.268H57.8967C56.6808 110.268 55.477 110.334 54.216 110.47C52.7441 110.629 51.2821 110.877 49.8715 111.208ZM82.7462 108.241L81.8647 107.451C83.7678 106.274 85.1319 104.85 86.5764 103.343L87.1526 102.744L88.2718 103.344L87.6991 103.94C86.2013 105.502 84.7864 106.979 82.7462 108.241ZM93.8069 98.8244L92.9584 98.0146C94.8174 96.9345 96.9179 96.0592 99.3793 95.3389C99.7986 95.216 100.199 95.1065 100.584 95.0089L101.029 95.9807C100.663 96.0738 100.283 96.1778 99.8841 96.2947C97.5476 96.9784 95.5599 97.8057 93.8069 98.8244ZM110.458 95.2574C109.994 95.2574 109.553 95.2542 109.131 95.2506L109.147 94.2237C109.579 94.2274 110.03 94.2282 110.508 94.2305C112.131 94.2305 114.391 94.1961 117.492 93.9288L117.651 94.9488C114.448 95.2251 112.152 95.2539 110.458 95.2574ZM126.04 93.9125L125.767 92.9061C128.244 92.5331 131.126 92.089 133.979 91.541L134.324 92.5353C131.438 93.0897 128.535 93.537 126.04 93.9125ZM142.448 90.5885L141.932 89.636C144.698 88.8058 147.099 87.8696 149.274 86.7735L150.047 87.6239C147.791 88.7612 145.305 89.731 142.448 90.5885ZM156.384 83.2503L155.264 82.6501C155.649 82.2525 155.982 81.8646 156.303 81.4895C157.253 80.3823 158.235 79.2373 160.574 77.8317L160.737 77.7342L161.592 78.54L161.44 78.6305C159.276 79.9313 158.397 80.9567 157.466 82.0424C157.134 82.4292 156.791 82.8294 156.384 83.2503ZM168.757 75.5482L168.253 74.5919C170.712 73.8744 173.488 73.297 176.505 72.8755L176.76 73.8849C173.827 74.2946 171.134 74.8542 168.757 75.5482Z" fill="#CCCCCC"/>
<path d="M185.19 73.131L185.104 72.106C186.444 72.0436 187.845 72.0025 189.269 71.9834L189.294 73.0104C187.89 73.0289 186.51 73.0695 185.19 73.131Z" fill="#CCCCCC"/>
<path d="M43.8752 37.9253H24.5247C23.5524 37.9253 22.7593 38.5158 22.7593 39.2398C22.7593 39.9689 23.5523 40.5594 24.5247 40.5594H43.8752C44.8475 40.5594 45.6406 39.9689 45.6406 39.2398C45.6406 38.5158 44.8475 37.9253 43.8752 37.9253Z" fill="#E6E6E6"/>
<path d="M76.2868 37.9253H56.9363C55.964 37.9253 55.1709 38.5158 55.1709 39.2398C55.1709 39.9689 55.964 40.5594 56.9363 40.5594H76.2868C77.2591 40.5594 78.0522 39.9689 78.0522 39.2398C78.0522 38.5158 77.2591 37.9253 76.2868 37.9253Z" fill="#E6E6E6"/>
<path d="M108.698 37.9253H89.3479C88.3756 37.9253 87.5825 38.5158 87.5825 39.2398C87.5825 39.9689 88.3756 40.5594 89.3479 40.5594H108.698C109.671 40.5594 110.464 39.9689 110.464 39.2398C110.464 38.5158 109.671 37.9253 108.698 37.9253Z" fill="#E6E6E6"/>
<path d="M198.591 124.358H22.7402V125.385H198.591V124.358Z" fill="#E6E6E6"/>
<path d="M189.302 49.3902C176.785 49.6315 167.448 52.3735 161.531 57.5289C159.345 59.439 158.456 60.9435 157.518 62.5353C156.587 64.1065 155.635 65.724 153.421 67.8344V66.0885C154.794 64.5892 155.532 63.3363 156.256 62.1194C157.235 60.4557 158.166 58.8844 160.483 56.8665C166.662 51.475 176.344 48.6149 189.26 48.3633L189.302 49.3902Z" fill="#CCCCCC"/>
<path d="M157.518 62.5354C156.587 64.1067 155.635 65.7241 153.421 67.8345C153.159 68.0861 152.877 68.348 152.573 68.6202C144.587 75.6907 133.919 78.0117 125.34 79.8807C124.802 79.9988 124.278 80.1067 123.768 80.2093C116.141 81.7498 111.962 81.6933 108.852 81.6573C105.728 81.6163 103.666 81.5906 99.9765 83.1618C93.2114 86.0322 90.4392 90.2324 87.7566 94.2941C84.9913 98.4737 82.3846 102.422 75.7367 104.276C71.1232 105.56 67.8821 104.923 64.4547 104.256C61.51 103.675 56.203 89.3934 51.5038 87.3107C41.801 88.8255 35.9049 112.435 28.5467 125.077L27.2778 124.666C34.8291 111.706 41.0493 87.8961 51.2142 86.3043C55.7449 85.5957 61.7101 102.653 64.8064 103.259C68.02 103.891 71.0474 104.481 75.254 103.311C81.3915 101.606 83.7638 98.0065 86.5153 93.8422C89.1634 89.837 92.1632 85.2979 99.2869 82.2684C103.307 80.5585 105.645 80.5893 108.872 80.6304C111.948 80.6715 116.1 80.7228 123.768 79.1465C124.154 79.0643 124.547 78.9821 124.954 78.8948C133.354 77.0668 143.801 74.7921 151.511 67.9629C152.27 67.2902 152.897 66.6689 153.421 66.0887C154.794 64.5893 155.531 63.3364 156.256 62.1195C157.235 60.4558 158.455 60.9436 157.518 62.5354Z" fill="#FF1616"/>
<path d="M83.9777 180.009C83.4318 178.593 82.497 177.386 81.384 176.525L77.3404 162.8L68.5264 164.408L73.5772 178.157C73.2451 179.321 73.3115 180.709 73.8574 182.125C75.1045 185.358 78.381 187.506 81.1756 186.921C83.9703 186.337 85.2248 183.242 83.9777 180.009Z" fill="#FFB6B6"/>
<path d="M82.7586 89.9752C82.7586 89.9752 68.8393 89.763 65.2999 97.3105C62.0784 104.18 58.2594 123.054 60.3239 124.145L69.1114 170.607L81.6422 169.325L78.4262 113.577L82.7586 89.9752Z" fill="#FF1616"/>
<path d="M147.214 176.219L144.746 225H111.989L110.665 203.141L104.845 225H69.7368L74.1158 187.424L78.6397 179.521L81.7015 174.166L147.214 176.219Z" fill="#2F2E41"/>
<path d="M121.01 80.7125L98.2526 79.6855L90.6669 86.8742L74.1162 91.4955L81.7019 146.438L78.2539 179.3C78.2539 179.3 126.527 208.055 147.215 176.219L141.698 137.709L143.077 93.036L127.216 87.9012L121.01 80.7125Z" fill="#FF1616"/>
<path d="M164.821 68.2153C165.068 69.9955 164.754 71.6696 164.032 73.0119L167.823 89.8601L157.003 90.9687L154.323 73.7585C153.248 72.5544 152.481 70.9633 152.234 69.1831C151.67 65.1163 154.03 61.6028 157.506 61.3355C160.982 61.0682 164.257 64.1484 164.821 68.2153Z" fill="#FFB6B6"/>
<path d="M145.975 94.9651C142.245 90.2181 132.993 89.7706 128.849 94.3232C127.716 95.5678 128.031 96.9668 127.761 98.6476C126.613 105.783 144.977 126.868 157.683 129.296C159.351 129.615 160.3 130.954 161.983 131.223C166.969 132.021 171.611 129.075 171.342 125.283L167.89 76.6523L153.39 80.335L154.318 105.583L145.975 94.9651Z" fill="#FF1616"/>
<path d="M111.993 78.3567C123.063 78.3567 132.038 71.6742 132.038 63.431C132.038 55.1878 123.063 48.5054 111.993 48.5054C100.922 48.5054 91.9473 55.1878 91.9473 63.431C91.9473 71.6742 100.922 78.3567 111.993 78.3567Z" fill="#FFB6B6"/>
<path d="M130.664 52.4711C130.492 52.502 133.303 50.4618 133.423 50.4172C136.181 49.3902 133.347 59.4287 131.354 59.1463C126.451 58.4531 124.334 57.077 122.43 60.5122C121.899 61.4672 121.568 62.5456 120.534 63.2285C119.113 64.1579 116.755 64.0808 115.596 65.1899C114.665 66.0834 114.934 67.3979 115.624 68.4043C116.313 69.4159 117.362 70.2734 117.989 71.3055C118.693 72.466 115.693 76.1579 114.548 78.2323V78.2374L114.541 78.2496C114.237 78.7937 113.514 77.2263 112.751 77.0698C111.838 76.8826 110.493 78.4881 109.038 78.1964C109.031 78.1964 109.024 78.1912 109.017 78.1912C107.631 77.9037 106.087 77.5956 104.556 77.2875H104.549C100.239 76.4146 99.1491 77.6675 98.9422 77.6315L96.2665 75.5468C95.3483 75.049 95.452 73.4419 94.8045 73.0102C94.275 72.6572 92.9549 73.4729 92.5658 73.1336C90.6581 71.47 90.2192 69.8057 89.0946 66.5199C88.067 63.516 85.9362 54.525 90.3152 54.1194C94.4459 53.7342 91.4254 49.4519 95.5838 49.611C95.3356 48.8305 95.7976 47.9936 96.5493 47.4185C97.294 46.8382 98.2871 46.4788 99.287 46.1707C104.218 44.6714 103.397 43.3826 108.597 44.2555C109.114 43.7163 116.624 44.0757 117.562 44.2555C117.631 44.2657 115.238 44.6919 118.941 44.2555C118.803 44.8871 121.148 45.1643 121.01 45.7959C121.527 45.2773 127.085 48.2554 127.216 48.8768C127.389 49.6521 125.816 49.2567 126.864 49.3748C127.485 49.4467 128.547 50.3864 128.444 50.8536C128.892 50.4018 129.34 49.9551 129.795 49.5032C129.878 49.5083 129.954 49.5186 130.037 49.5289C132.133 49.8267 129.73 54.9296 129.816 53.3389C129.975 50.4172 132.754 52.1271 130.664 52.4711Z" fill="#2F2E41"/>
<path d="M207.459 131.912C207.614 132.195 208.147 132.195 208.301 131.912C209.378 129.935 210.911 127.722 212.578 126.03C212.845 125.759 212.477 125.398 212.053 125.512L208.479 126.475V109.999H207.282V126.475L203.706 125.512C203.282 125.397 202.914 125.759 203.181 126.03C204.848 127.722 206.382 129.935 207.459 131.912Z" fill="#3F3D56"/>
<path d="M230.899 148.876C230.783 149.17 231.201 149.416 231.558 149.266C234.053 148.217 237.102 147.193 239.821 146.641C240.256 146.552 240.27 146.098 239.842 145.992L236.239 145.09L250 132.188L249.063 131.634L235.302 144.536L233.306 142.126C233.069 141.84 232.479 141.953 232.462 142.289C232.354 144.386 231.706 146.829 230.899 148.876Z" fill="#3F3D56"/>
<path d="M219.705 159.871H196.45C195.006 159.871 193.832 158.996 193.832 157.921C190.757 151.23 190.818 144.673 193.832 138.243C193.832 137.168 195.006 136.293 196.45 136.293H219.705C221.148 136.293 222.323 137.168 222.323 138.243V157.921C222.323 158.996 221.148 159.871 219.705 159.871Z" fill="#E6E6E6"/>
<path d="M201.433 136.875C197.666 136.875 194.612 139.148 194.612 141.953V157.504C194.612 158.49 195.686 159.29 197.011 159.29H209.871C216.317 159.29 221.543 155.399 221.543 150.599V138.661C221.543 137.674 220.469 136.875 219.144 136.875H201.433Z" fill="white"/>
<path d="M213.493 142.593H202.605C202.331 142.593 202.107 142.427 202.107 142.222C202.107 142.018 202.331 141.852 202.605 141.852H213.493C213.767 141.852 213.99 142.018 213.99 142.222C213.99 142.427 213.767 142.593 213.493 142.593Z" fill="#E6E6E6"/>
<path d="M213.493 150.497H202.605C202.331 150.497 202.107 150.33 202.107 150.126C202.107 149.922 202.331 149.755 202.605 149.755H213.493C213.767 149.755 213.99 149.922 213.99 150.126C213.99 150.33 213.767 150.497 213.493 150.497Z" fill="#E6E6E6"/>
<path d="M219.335 146.547H196.763C196.488 146.547 196.265 146.381 196.265 146.177C196.265 145.972 196.488 145.806 196.763 145.806H219.335C219.61 145.806 219.833 145.972 219.833 146.177C219.833 146.381 219.61 146.547 219.335 146.547Z" fill="#E6E6E6"/>
<path d="M219.601 153.711H210.183C209.908 153.711 209.685 153.544 209.685 153.34C209.685 153.135 209.908 152.969 210.183 152.969H219.601C219.876 152.969 220.099 153.135 220.099 153.34C220.099 153.544 219.876 153.711 219.601 153.711Z" fill="#E6E6E6"/>
<path d="M8.5948 12.6946C13.3416 12.6946 17.1896 9.88978 17.1896 6.42983C17.1896 2.96988 13.3416 0.165039 8.5948 0.165039C3.84802 0.165039 0 2.96988 0 6.42983C0 9.88978 3.84802 12.6946 8.5948 12.6946Z" fill="#FF1616"/>
<path d="M77.4958 4.28643H31.2334C29.6463 4.28643 28.355 3.32495 28.355 2.14322C28.355 0.961483 29.6463 0 31.2334 0H77.4958C79.0829 0 80.3742 0.961483 80.3742 2.14322C80.3742 3.32495 79.0829 4.28643 77.4958 4.28643Z" fill="#F2F2F2"/>
<path d="M113.599 11.5403H31.2334C29.6463 11.5403 28.355 10.5789 28.355 9.39712C28.355 8.21539 29.6463 7.25391 31.2334 7.25391H113.599C115.186 7.25391 116.478 8.21539 116.478 9.39712C116.478 10.5789 115.186 11.5403 113.599 11.5403Z" fill="#F2F2F2"/>
</g>
<defs>
<clipPath id="clip0_49_3855">
<rect width="250" height="225" fill="white"/>
</clipPath>
</defs>
</svg>
