<svg width="250" height="225" viewBox="0 0 250 225" fill="none" xmlns="http://www.w3.org/2000/svg">
<g clip-path="url(#clip0_50_3937)">
<path d="M235.389 183.338C234.896 182.688 232.767 183.384 232.376 182.794C231.986 182.207 233.964 181.311 235.094 179.266C235.298 178.897 236.582 176.572 235.632 175.855C233.829 174.495 225.582 180.106 222.695 178.27C222.062 177.867 221.619 177.063 219.702 175.756C218.94 175.237 218.479 175.002 218.032 175.09C217.399 175.213 217.349 175.877 216.67 177.182C215.651 179.139 215.049 179.021 214.455 180.583C214.015 181.742 214.116 182.416 213.597 182.547C212.864 182.733 212.189 181.503 211.259 181.613C210.31 181.726 209.737 183.157 209.556 184.229C209.216 186.24 210.159 187.568 210.682 188.963C211.25 190.48 211.587 192.786 210.275 196.051L197.289 224.704C200.156 218.824 208.457 202.707 211.945 196.718C212.952 194.989 214.064 193.236 216.347 192.544C218.545 191.877 221.564 192.275 225.412 191.549C225.862 191.464 227.109 191.216 227.266 190.641C227.396 190.166 226.662 189.901 226.775 189.456C226.926 188.86 228.369 188.852 230.142 188.164C231.392 187.679 232.171 187.101 232.84 186.605C233.042 186.455 236.044 184.203 235.389 183.338Z" fill="#F2F2F2"/>
<path d="M184.295 198.422C183.746 198.423 183.567 199.442 183.085 199.423C182.604 199.403 182.614 198.384 181.658 197.36C181.485 197.175 180.399 196.011 179.675 196.169C178.303 196.469 179.44 201.258 177.456 201.838C177.021 201.965 176.389 201.903 175.017 202.263C174.471 202.406 174.191 202.516 174.117 202.712C174.012 202.991 174.414 203.202 175.036 203.84C175.969 204.796 175.721 204.993 176.528 205.672C177.128 206.176 177.579 206.331 177.512 206.569C177.417 206.904 176.451 206.809 176.252 207.198C176.049 207.595 176.78 208.228 177.4 208.607C178.562 209.318 179.667 209.339 180.692 209.54C181.807 209.759 183.35 210.295 185.017 211.742L199.229 225C196.371 222.202 188.665 214.361 185.917 211.292C185.124 210.406 184.346 209.473 184.571 208.396C184.787 207.359 185.908 206.314 186.563 204.625C186.64 204.428 186.844 203.877 186.529 203.651C186.269 203.464 185.891 203.669 185.645 203.497C185.314 203.267 185.726 202.711 185.806 201.831C185.863 201.21 185.725 200.744 185.608 200.344C185.572 200.223 185.026 198.419 184.295 198.422Z" fill="#F2F2F2"/>
<path d="M195.254 200.348L194.923 198.035L195.075 197.859C195.774 197.048 196.131 196.256 196.135 195.504C196.136 195.385 196.129 195.265 196.122 195.144C196.093 194.661 196.057 194.061 196.457 193.362C196.681 192.972 197.31 192.069 198.256 192.181C198.511 192.209 198.703 192.301 198.849 192.408C198.871 192.381 198.893 192.354 198.916 192.325C199.211 191.973 199.444 191.822 199.669 191.677C199.842 191.565 200.02 191.45 200.3 191.178C200.422 191.058 200.518 190.953 200.598 190.865C200.843 190.598 201.163 190.28 201.726 190.285C202.328 190.308 202.643 190.697 202.852 190.955C203.226 191.416 203.395 191.748 203.507 191.968C203.547 192.048 203.594 192.139 203.617 192.166C203.811 192.39 205.388 192.181 205.982 192.105C207.317 191.931 208.472 191.78 208.948 192.439C209.289 192.91 209.035 193.534 208.172 194.342C207.903 194.593 207.617 194.784 207.363 194.934C207.574 195.032 207.762 195.183 207.839 195.42C208.018 195.98 207.403 196.542 206.01 197.092C205.664 197.229 205.198 197.413 204.545 197.501C204.238 197.542 203.961 197.552 203.724 197.558C203.719 197.665 203.687 197.781 203.604 197.901C203.359 198.253 202.85 198.42 202.082 198.38C201.238 198.345 200.542 198.219 199.929 198.109C199.393 198.012 198.931 197.931 198.569 197.95C197.897 197.992 197.379 198.413 196.772 198.96L195.254 200.348Z" fill="#F2F2F2"/>
<path d="M196.79 186.573L194.016 187.411L193.761 187.341C192.581 187.016 191.512 186.947 190.583 187.134C190.435 187.164 190.289 187.2 190.14 187.236C189.552 187.38 188.82 187.559 187.854 187.434C187.316 187.363 186.041 187.116 185.939 186.371C185.909 186.171 185.974 186.002 186.069 185.864C186.03 185.855 185.992 185.845 185.95 185.834C185.44 185.7 185.195 185.562 184.959 185.429C184.777 185.326 184.589 185.22 184.182 185.078C184.003 185.015 183.849 184.969 183.72 184.931C183.328 184.813 182.853 184.652 182.717 184.223C182.592 183.762 182.994 183.424 183.26 183.2C183.734 182.801 184.101 182.589 184.344 182.448C184.433 182.397 184.533 182.339 184.562 182.314C184.788 182.11 184.13 180.969 183.886 180.538C183.332 179.571 182.853 178.735 183.546 178.207C184.042 177.829 184.876 177.863 186.093 178.312C186.472 178.452 186.78 178.62 187.03 178.774C187.098 178.59 187.236 178.409 187.509 178.291C188.156 178.013 189.007 178.337 190.039 179.252C190.297 179.48 190.641 179.786 190.916 180.258C191.045 180.48 191.127 180.687 191.194 180.865C191.328 180.842 191.48 180.837 191.648 180.87C192.145 180.966 192.481 181.309 192.626 181.901C192.798 182.549 192.818 183.108 192.837 183.601C192.854 184.031 192.871 184.401 192.986 184.671C193.209 185.169 193.861 185.454 194.69 185.776L196.79 186.573Z" fill="#F2F2F2"/>
<path d="M195.254 179.757L194.923 177.443L195.075 177.268C195.774 176.457 196.131 175.665 196.135 174.913C196.136 174.794 196.129 174.674 196.122 174.552C196.093 174.07 196.057 173.47 196.457 172.77C196.681 172.381 197.31 171.478 198.256 171.59C198.511 171.618 198.703 171.709 198.849 171.816C198.871 171.79 198.893 171.763 198.916 171.734C199.211 171.382 199.444 171.231 199.669 171.086C199.842 170.974 200.02 170.859 200.3 170.587C200.422 170.467 200.518 170.362 200.598 170.274C200.843 170.007 201.163 169.688 201.726 169.694C202.328 169.716 202.643 170.106 202.852 170.364C203.226 170.824 203.395 171.156 203.507 171.376C203.547 171.457 203.594 171.547 203.617 171.575C203.811 171.799 205.388 171.59 205.982 171.514C207.317 171.339 208.472 171.189 208.948 171.848C209.289 172.319 209.035 172.943 208.172 173.75C207.903 174.002 207.617 174.193 207.363 174.342C207.574 174.441 207.762 174.591 207.839 174.828C208.018 175.389 207.403 175.951 206.01 176.501C205.664 176.638 205.198 176.821 204.545 176.909C204.238 176.951 203.961 176.961 203.724 176.966C203.719 177.074 203.687 177.19 203.604 177.309C203.359 177.661 202.85 177.829 202.082 177.789C201.238 177.754 200.542 177.628 199.929 177.517C199.393 177.421 198.931 177.34 198.569 177.359C197.897 177.401 197.379 177.822 196.772 178.368L195.254 179.757Z" fill="#F2F2F2"/>
<path d="M198.278 224.666L197.658 224.362L196.937 224.427C196.925 224.375 196.886 224.254 196.827 224.065C196.504 223.031 195.519 219.883 194.697 214.925C194.123 211.464 193.799 207.906 193.732 204.348C193.665 200.784 193.88 198.086 194.053 195.918C194.183 194.282 194.342 192.725 194.497 191.208C194.911 187.155 195.301 183.327 195.011 179.088C194.946 178.142 194.812 176.172 193.342 174.077C192.49 172.861 191.316 171.782 189.852 170.871L190.762 169.975C192.378 170.982 193.677 172.178 194.623 173.527C196.253 175.851 196.4 177.997 196.47 179.028C196.765 183.341 196.371 187.206 195.953 191.298C195.799 192.81 195.641 194.361 195.511 195.989C195.34 198.138 195.126 200.812 195.193 204.33C195.258 207.845 195.579 211.36 196.145 214.777C196.957 219.673 197.927 222.774 198.246 223.793C198.416 224.337 198.452 224.451 198.278 224.666Z" fill="#F2F2F2"/>
<path d="M187.173 172.688C187.113 172.688 187.052 172.687 186.991 172.683C185.747 172.631 184.595 172.048 183.566 170.951C183.084 170.435 182.837 169.846 182.345 168.672C182.269 168.491 181.898 167.573 181.673 166.309C181.525 165.483 181.543 165.138 181.752 164.833C181.984 164.494 182.359 164.257 182.782 164.097C182.763 163.988 182.778 163.875 182.839 163.76C183.088 163.283 183.75 163.345 184.108 163.375C184.289 163.393 184.515 163.417 184.759 163.407C185.143 163.392 185.349 163.303 185.661 163.169C185.96 163.04 186.332 162.881 186.883 162.792C187.97 162.615 188.881 162.856 189.182 162.935C190.762 163.348 191.54 164.309 192.442 165.423C192.622 165.647 193.239 166.46 193.646 167.575C193.94 168.379 193.899 168.737 193.81 169.002C193.63 169.549 193.206 169.862 192.128 170.552C191.003 171.275 190.438 171.637 189.953 171.857C188.823 172.367 188.114 172.688 187.173 172.688Z" fill="#F2F2F2"/>
<path d="M140.211 64.0992C144.163 62.5521 146.347 59.7011 145.09 57.7317C143.832 55.7622 139.609 55.4203 135.655 56.9684C134.065 57.5698 132.682 58.4607 131.622 59.5665L114.982 66.2873L119.176 72.3348L135.135 65.0672C136.901 65.0666 138.642 64.7347 140.211 64.0992Z" fill="#FFB6B6"/>
<path d="M45.9313 220.439L53.8521 220.438L57.6201 196.514L45.9297 196.514L45.9313 220.439Z" fill="#FFB6B6"/>
<path d="M73.0689 220.298C73.3155 220.623 73.4457 221.673 73.4457 222.051C73.4457 223.214 72.2421 224.156 70.7573 224.156H46.2273C45.2144 224.156 44.3933 223.513 44.3933 222.72V221.92C44.3933 221.92 43.1798 219.517 45.6781 216.554C45.6781 216.554 48.7832 218.874 53.423 215.241L54.7913 213.3L64.6954 218.972L70.1851 219.501C71.3862 219.617 72.4511 219.483 73.0689 220.298Z" fill="#2F2E41"/>
<path d="M58.3691 194.133L65.4036 196.984L82.7965 177.095L72.4145 172.886L58.3691 194.133Z" fill="#FFB6B6"/>
<path d="M82.5511 203.778C82.5791 204.156 82.0783 205.135 81.8562 205.471C81.1736 206.503 79.5514 206.907 78.2328 206.372L56.4492 197.541C55.5497 197.176 55.198 196.31 55.6637 195.605L56.1333 194.895C56.1333 194.895 56.4669 192.324 60.4249 190.592C60.4249 190.592 61.8203 193.77 68.0739 192.214L70.4285 190.983L75.8936 199.586L80.458 202.032C81.4566 202.567 82.4808 202.832 82.5511 203.778Z" fill="#2F2E41"/>
<path d="M37.8872 30.543H58.6596L58.2063 35.8467L71.7524 69.6581L74.2923 92.199L48.8934 95.5139L37.0405 53.7469L39.5804 34.5208L37.8872 30.543Z" fill="#FF1616"/>
<path d="M39.157 34.8525L17.1445 43.4711L30.6907 79.2714L28.1508 115.735C28.1508 115.735 62.8627 124.353 61.1694 99.8235C59.4761 75.2936 59.4762 71.3158 59.4762 71.3158L39.157 34.8525Z" fill="#2F2E41"/>
<path d="M74.292 39.3181C74.292 39.3181 79.7951 36.1781 82.335 40.8189C84.8749 45.4597 101.384 68.9951 101.384 68.9951L127.207 60.045L131.44 67.3377C131.44 67.3377 110.274 83.2489 97.5744 81.26C84.8749 79.2711 74.7153 62.0339 74.7153 62.0339L74.292 39.3181Z" fill="#2F2E41"/>
<path d="M30.6907 109.105C30.6907 109.105 29.844 119.712 31.5373 128.331C33.2306 136.949 44.6601 210.207 44.6601 210.207L59.0528 209.544L60.3228 123.69L80.642 148.883L62.8627 186.672L75.1389 190.981L100.961 149.546L83.1819 102.475L78.1021 90.5415L40.0036 93.8563L30.6907 109.105Z" fill="#2F2E41"/>
<path d="M87.415 111.757C87.415 111.757 64.5559 117.061 59.4761 71.3158L58.3271 34.4316L79.7953 38.8303L77.2554 71.9788L87.415 111.757Z" fill="#2F2E41"/>
<path d="M48.4698 26.2336C56.8863 26.2336 63.7092 20.8908 63.7092 14.3001C63.7092 7.70948 56.8863 2.3667 48.4698 2.3667C40.0534 2.3667 33.2305 7.70948 33.2305 14.3001C33.2305 20.8908 40.0534 26.2336 48.4698 26.2336Z" fill="#FFB6B6"/>
<path d="M38.7337 25.9023C38.7337 25.9023 31.9606 19.9356 31.114 17.2837C30.2673 14.6318 30.2673 7.33919 31.114 6.67622C31.9606 6.01325 41.2736 -0.616434 44.6601 0.0465315C48.0466 0.709497 54.7595 4.02434 60.7461 4.02434C62.4394 4.02434 63.286 10.654 63.286 10.654L56.5129 11.317C56.5129 11.317 48.0466 8.00215 48.8933 11.317C49.7399 14.6318 42.9668 14.6318 42.9668 14.6318L43.8135 17.2837L41.2736 17.9467L39.5803 15.2948C39.5803 15.2948 40.4269 21.2615 42.9668 23.9134C45.5067 26.5653 38.7337 25.9023 38.7337 25.9023Z" fill="#2F2E41"/>
<path d="M31.9861 121.358C34.3096 124.301 38.1321 125.748 40.5238 124.59C42.9154 123.432 42.9701 120.107 40.6453 117.164C39.7372 115.978 38.4797 114.979 36.9779 114.252L26.9322 101.879L19.6182 105.695L30.298 117.487C30.4578 118.864 31.0366 120.192 31.9861 121.358Z" fill="#FFB6B6"/>
<path d="M20.5311 43.4712H16.2979C16.2979 43.4712 -0.634754 73.3048 0.211875 79.2715C0.211875 79.2715 0.211875 84.5752 4.44504 88.553C8.6782 92.5309 26.4575 115.072 26.4575 115.072L34.0772 110.431L18.8378 82.5863L28.1507 53.4157L20.5311 43.4712Z" fill="#2F2E41"/>
<path d="M249.529 224.146C249.529 224.357 249.31 224.529 249.039 224.529H0.489701C0.21925 224.529 0 224.357 0 224.146C0 223.934 0.219244 223.762 0.489701 223.762H249.039C249.31 223.762 249.529 223.934 249.529 224.146Z" fill="#E6E6E6"/>
<path d="M157.911 84.9673C155.912 84.9673 154.006 84.3276 152.635 83.1864C143.807 75.8379 138.946 66.2357 138.946 56.1487C138.946 47.743 142.276 39.7179 148.576 32.9404C149.821 31.6015 151.753 30.7612 153.877 30.6352C156.034 30.5051 158.144 31.1238 159.665 32.327L185.264 52.575C187.826 54.6014 188.088 57.8365 185.873 60.1L163.751 82.7111C162.436 84.0548 160.443 84.8744 158.283 84.96C158.159 84.9649 158.035 84.9673 157.911 84.9673Z" fill="#FF1616"/>
<path d="M198.699 96.7767C190.806 96.7767 183.232 95.4068 176.188 92.7053C173.63 91.7241 171.788 89.9155 171.136 87.7427C170.484 85.5699 171.104 83.3084 172.837 81.5377L191.272 62.6949C194.626 59.2672 194.229 54.3679 190.35 51.2988L171.478 36.3723C168.75 34.2146 167.513 31.2555 168.085 28.2535C168.659 25.2359 170.96 22.6728 174.397 21.2217C182.147 17.9498 190.928 16.2939 199.793 16.4428C226.509 16.8793 248.53 33.572 249.927 54.4452C250.672 65.5968 245.697 76.1828 235.916 84.253C226.129 92.329 212.911 96.7767 198.699 96.7767ZM198.718 17.8034C190.508 17.8034 192.472 23.9014 185.291 26.9332C182.344 28.1775 170.307 25.8687 169.815 28.4554C169.325 31.0263 170.385 33.5609 172.721 35.4089L191.593 50.3354C196.084 53.8882 196.543 59.5596 192.661 63.5276L174.226 82.3704C172.812 83.8144 172.307 85.6582 172.839 87.4298C173.37 89.2009 174.872 90.6756 176.957 91.4758C183.76 94.0846 191.075 84.9079 198.699 84.9079C212.427 84.9079 225.194 91.1111 234.647 83.3106C244.095 75.5152 248.901 65.2894 248.18 54.517C246.832 34.3564 225.561 18.2336 199.757 17.8119C199.41 17.8063 199.063 17.8034 198.718 17.8034Z" fill="#E6E6E6"/>
<path d="M202.061 56.7708C201.064 55.8587 200.566 54.5238 200.566 52.7651C200.566 51.0234 201.064 49.696 202.061 48.7839C203.058 47.8721 204.438 47.416 206.201 47.416C207.984 47.416 209.38 47.8721 210.388 48.7839C211.395 49.696 211.899 51.0234 211.899 52.7651C211.899 54.5238 211.395 55.8587 210.388 56.7708C209.38 57.6829 207.984 58.1389 206.201 58.1389C204.438 58.1389 203.058 57.6829 202.061 56.7708ZM207.995 55.3534C208.373 54.8276 208.562 53.965 208.562 52.7651C208.562 51.5985 208.368 50.7481 207.979 50.2138C207.591 49.68 206.998 49.4127 206.201 49.4127C205.424 49.4127 204.847 49.68 204.469 50.2138C204.092 50.7481 203.903 51.5985 203.903 52.7651C203.903 53.9482 204.092 54.8073 204.469 55.3411C204.847 55.8754 205.424 56.1422 206.201 56.1422C207.019 56.1422 207.617 55.8796 207.995 55.3534ZM207.715 62.8667L218.95 47.6623C220.501 47.6623 221.469 48.9784 220.691 50.029L209.443 65.2137C207.905 65.2137 206.944 63.9092 207.715 62.8667ZM218.021 64.0181C217.024 63.106 216.526 61.7626 216.526 59.9876C216.526 58.2459 217.024 56.923 218.021 56.0189C219.018 55.1153 220.408 54.6633 222.193 54.6633C223.976 54.6633 225.367 55.1153 226.363 56.0189C227.36 56.923 227.859 58.2542 227.859 60.0124C227.859 61.771 227.36 63.106 226.363 64.0181C225.367 64.9302 223.976 65.3862 222.193 65.3862C220.408 65.3862 219.018 64.9302 218.021 64.0181ZM223.955 62.5884C224.333 62.0546 224.522 61.1957 224.522 60.0124C224.522 58.8457 224.328 57.9954 223.94 57.4611C223.551 56.9273 222.969 56.66 222.193 56.66C221.395 56.66 220.807 56.9273 220.43 57.4611C220.052 57.9954 219.863 58.8457 219.863 60.0124C219.863 61.1957 220.052 62.0546 220.43 62.5884C220.807 63.1227 221.395 63.3895 222.193 63.3895C222.99 63.3895 223.578 63.1227 223.955 62.5884Z" fill="black"/>
</g>
<defs>
<clipPath id="clip0_50_3937">
<rect width="250" height="225" fill="white"/>
</clipPath>
</defs>
</svg>
