<svg width="250" height="225" viewBox="0 0 250 225" fill="none" xmlns="http://www.w3.org/2000/svg">
<g clip-path="url(#clip0_50_3895)">
<mask id="mask0_50_3895" style="mask-type:luminance" maskUnits="userSpaceOnUse" x="0" y="0" width="250" height="225">
<path d="M250 0H0V225H250V0Z" fill="white"/>
</mask>
<g mask="url(#mask0_50_3895)">
<path d="M120.44 83.6315C121.808 81.8555 124.066 82.3745 125.569 83.6281C127.503 85.2413 128.056 88.1875 128.341 90.799C128.824 95.2199 128.967 101.469 133.219 103.318C135.183 104.172 137.432 103.466 139.091 102.08C140.904 100.565 142.034 98.2356 142.791 95.821C143.708 92.8977 144.239 89.7706 144.689 86.707C145.149 83.5741 145.45 80.4075 145.585 77.2319C145.718 74.1252 145.632 71.0388 145.527 67.9341C145.445 65.51 145.414 62.9645 146.108 60.6466C146.81 58.3055 148.441 56.5248 150.585 56.29C152.666 56.062 154.81 57.0968 156.316 58.767C159.929 62.7744 160.099 69.3165 160.906 74.6896C161.331 77.5126 161.951 80.3693 163.251 82.8254C164.32 84.8454 165.806 86.5389 167.518 87.7953C170.97 90.3294 175.37 91.0689 179.201 89.3279C182.941 87.6282 185.952 83.9124 187.255 79.4462C187.576 78.3433 187.775 77.2039 187.876 76.0446C187.923 75.5056 187.208 75.5095 187.161 76.0446C186.733 80.9714 184.051 85.4333 180.375 87.77C176.593 90.1744 172.013 89.8694 168.318 87.3767C166.501 86.1512 164.921 84.4228 163.823 82.3149C162.492 79.7586 161.921 76.779 161.506 73.8535C160.757 68.5697 160.417 62.503 157.059 58.4461C154.454 55.2997 149.661 54.0371 146.861 57.5417C143.979 61.1504 144.843 66.9635 144.935 71.4431C145.07 78.0038 144.496 84.5797 143.224 90.9688C142.671 93.7499 142.034 96.6178 140.645 99.0025C139.375 101.182 137.3 102.871 134.989 102.844C132.685 102.817 131.066 100.821 130.248 98.4398C129.385 95.9281 129.328 93.2156 129.03 90.5643C128.755 88.1305 128.256 85.4372 126.708 83.656C125.504 82.2709 123.718 81.3793 122.024 81.6978C121.21 81.8509 120.488 82.3173 119.935 83.0356C119.626 83.4364 120.13 84.0341 120.44 83.6315Z" fill="#FF1616"/>
<path d="M223.731 173.726C223.329 172.926 221.588 173.783 221.268 173.057C220.95 172.334 222.567 171.232 223.49 168.714C223.657 168.26 224.707 165.399 223.93 164.516C222.457 162.843 215.715 169.748 213.356 167.489C212.838 166.993 212.477 166.003 210.91 164.395C210.286 163.756 209.909 163.467 209.544 163.575C209.027 163.727 208.986 164.544 208.431 166.15C207.598 168.559 207.106 168.413 206.621 170.335C206.261 171.762 206.343 172.591 205.92 172.752C205.32 172.981 204.768 171.468 204.008 171.603C203.233 171.742 202.764 173.504 202.616 174.823C202.338 177.298 203.109 178.931 203.537 180.649C204.001 182.516 204.277 185.354 203.204 189.373L192.589 224.635C194.933 217.399 201.718 197.564 204.569 190.193C205.392 188.065 206.301 185.907 208.167 185.055C209.964 184.235 212.431 184.725 215.577 183.831C215.944 183.727 216.964 183.421 217.092 182.714C217.198 182.13 216.598 181.803 216.691 181.256C216.814 180.522 217.993 180.513 219.442 179.666C220.464 179.068 221.101 178.358 221.648 177.747C221.813 177.563 224.267 174.791 223.731 173.726Z" fill="#F2F2F2"/>
<path d="M181.969 192.29C181.52 192.292 181.374 193.546 180.98 193.522C180.587 193.498 180.595 192.244 179.813 190.983C179.672 190.755 178.784 189.322 178.193 189.517C177.071 189.887 178 195.781 176.379 196.494C176.023 196.65 175.507 196.574 174.386 197.017C173.94 197.193 173.711 197.328 173.65 197.57C173.564 197.914 173.892 198.173 174.401 198.958C175.163 200.135 174.961 200.378 175.621 201.213C176.111 201.833 176.48 202.024 176.425 202.316C176.347 202.729 175.558 202.612 175.395 203.091C175.229 203.579 175.827 204.359 176.333 204.825C177.283 205.7 178.186 205.725 179.024 205.973C179.935 206.243 181.196 206.903 182.56 208.683L194.176 225C191.84 221.556 185.541 211.906 183.295 208.13C182.647 207.039 182.011 205.891 182.194 204.565C182.371 203.289 183.287 202.002 183.823 199.924C183.885 199.681 184.052 199.003 183.795 198.725C183.582 198.495 183.273 198.748 183.072 198.537C182.802 198.253 183.139 197.568 183.204 196.485C183.25 195.721 183.138 195.148 183.042 194.655C183.013 194.506 182.567 192.287 181.969 192.29Z" fill="#F2F2F2"/>
<path d="M190.927 194.661L190.656 191.813L190.78 191.597C191.352 190.599 191.644 189.624 191.647 188.699C191.648 188.552 191.642 188.405 191.636 188.255C191.613 187.661 191.584 186.923 191.91 186.062C192.093 185.582 192.607 184.471 193.38 184.609C193.589 184.643 193.746 184.756 193.866 184.888C193.883 184.855 193.901 184.822 193.92 184.786C194.161 184.353 194.352 184.168 194.535 183.989C194.677 183.851 194.822 183.71 195.051 183.374C195.151 183.227 195.229 183.098 195.295 182.989C195.495 182.661 195.756 182.269 196.217 182.276C196.709 182.303 196.967 182.783 197.138 183.101C197.442 183.667 197.581 184.075 197.672 184.346C197.705 184.445 197.743 184.557 197.763 184.591C197.921 184.866 199.21 184.609 199.696 184.515C200.787 184.301 201.731 184.115 202.12 184.926C202.398 185.507 202.191 186.274 201.486 187.268C201.266 187.577 201.032 187.812 200.825 187.997C200.997 188.118 201.151 188.303 201.213 188.595C201.36 189.285 200.857 189.976 199.718 190.653C199.435 190.822 199.055 191.047 198.521 191.156C198.27 191.207 198.044 191.219 197.85 191.226C197.846 191.358 197.82 191.501 197.751 191.648C197.551 192.081 197.135 192.288 196.508 192.238C195.818 192.195 195.249 192.04 194.748 191.904C194.31 191.786 193.933 191.685 193.636 191.709C193.087 191.761 192.664 192.279 192.167 192.952L190.927 194.661Z" fill="#F2F2F2"/>
<path d="M192.182 177.707L189.915 178.738L189.706 178.652C188.742 178.253 187.868 178.168 187.108 178.398C186.988 178.435 186.868 178.479 186.747 178.524C186.266 178.701 185.667 178.921 184.878 178.767C184.438 178.68 183.397 178.375 183.313 177.459C183.289 177.213 183.341 177.005 183.419 176.835C183.388 176.823 183.356 176.811 183.322 176.798C182.905 176.633 182.705 176.463 182.512 176.299C182.363 176.173 182.21 176.042 181.877 175.867C181.73 175.79 181.605 175.734 181.499 175.686C181.179 175.541 180.791 175.343 180.68 174.816C180.577 174.247 180.906 173.832 181.123 173.556C181.51 173.065 181.81 172.804 182.009 172.631C182.082 172.568 182.164 172.496 182.187 172.466C182.372 172.215 181.835 170.81 181.635 170.28C181.182 169.09 180.79 168.061 181.357 167.411C181.762 166.946 182.444 166.988 183.439 167.54C183.748 167.712 184 167.919 184.204 168.109C184.26 167.883 184.373 167.66 184.596 167.515C185.125 167.172 185.82 167.571 186.664 168.698C186.875 168.977 187.156 169.354 187.381 169.935C187.486 170.209 187.554 170.464 187.608 170.683C187.718 170.654 187.842 170.648 187.98 170.688C188.386 170.806 188.66 171.229 188.779 171.957C188.919 172.755 188.936 173.443 188.951 174.049C188.965 174.579 188.979 175.034 189.073 175.366C189.255 175.979 189.788 176.33 190.465 176.726L192.182 177.707Z" fill="#F2F2F2"/>
<path d="M190.927 169.319L190.656 166.472L190.78 166.256C191.352 165.258 191.644 164.283 191.647 163.358C191.648 163.21 191.642 163.063 191.636 162.913C191.613 162.32 191.584 161.581 191.91 160.721C192.093 160.241 192.607 159.13 193.38 159.267C193.589 159.302 193.746 159.414 193.866 159.546C193.883 159.513 193.901 159.48 193.92 159.445C194.161 159.012 194.352 158.826 194.535 158.647C194.677 158.51 194.822 158.368 195.051 158.033C195.151 157.886 195.229 157.756 195.295 157.648C195.495 157.319 195.756 156.927 196.217 156.934C196.709 156.962 196.967 157.441 197.138 157.759C197.442 158.326 197.581 158.734 197.672 159.005C197.705 159.104 197.743 159.215 197.763 159.249C197.921 159.524 199.21 159.267 199.696 159.174C200.787 158.959 201.731 158.774 202.12 159.585C202.398 160.165 202.191 160.932 201.486 161.926C201.266 162.236 201.032 162.471 200.825 162.655C200.997 162.776 201.151 162.962 201.213 163.253C201.36 163.943 200.857 164.635 199.718 165.311C199.435 165.48 199.055 165.706 198.521 165.814C198.27 165.865 198.044 165.878 197.85 165.885C197.846 166.017 197.82 166.16 197.751 166.307C197.551 166.74 197.135 166.946 196.508 166.896C195.818 166.854 195.249 166.698 194.748 166.562C194.31 166.444 193.933 166.344 193.636 166.367C193.087 166.419 192.664 166.938 192.167 167.61L190.927 169.319Z" fill="#F2F2F2"/>
<path d="M193.398 224.589L192.892 224.215L192.302 224.294C192.292 224.23 192.26 224.081 192.212 223.849C191.948 222.576 191.143 218.701 190.471 212.6C190.002 208.34 189.737 203.961 189.682 199.583C189.627 195.197 189.803 191.876 189.944 189.208C190.051 187.195 190.181 185.278 190.308 183.411C190.646 178.423 190.965 173.712 190.727 168.495C190.675 167.331 190.565 164.907 189.364 162.328C188.667 160.832 187.707 159.504 186.511 158.382L187.255 157.279C188.576 158.519 189.637 159.991 190.411 161.651C191.743 164.511 191.863 167.152 191.92 168.421C192.162 173.73 191.839 178.487 191.498 183.523C191.372 185.383 191.242 187.291 191.136 189.296C190.996 191.94 190.822 195.231 190.876 199.561C190.93 203.887 191.192 208.213 191.655 212.418C192.318 218.443 193.112 222.26 193.372 223.513C193.511 224.183 193.54 224.323 193.398 224.589Z" fill="#F2F2F2"/>
<path d="M184.321 160.619C184.272 160.619 184.223 160.618 184.172 160.613C183.156 160.549 182.214 159.831 181.373 158.481C180.979 157.846 180.777 157.121 180.375 155.676C180.313 155.454 180.01 154.323 179.825 152.768C179.705 151.752 179.72 151.328 179.891 150.952C180.08 150.534 180.387 150.243 180.732 150.046C180.717 149.911 180.729 149.773 180.779 149.631C180.982 149.044 181.523 149.121 181.816 149.158C181.964 149.18 182.149 149.209 182.348 149.197C182.662 149.179 182.83 149.069 183.086 148.904C183.33 148.746 183.634 148.549 184.084 148.44C184.973 148.222 185.718 148.519 185.963 148.616C187.254 149.124 187.891 150.307 188.628 151.678C188.775 151.953 189.279 152.954 189.612 154.326C189.852 155.316 189.819 155.756 189.746 156.083C189.599 156.756 189.252 157.14 188.371 157.99C187.451 158.88 186.99 159.325 186.593 159.596C185.67 160.224 185.091 160.619 184.321 160.619Z" fill="#F2F2F2"/>
<path d="M159.057 49.0661H142.751C142.34 49.0661 142.006 48.6717 142.006 48.187C142.006 47.7023 142.34 47.3081 142.751 47.3081H159.057C159.468 47.3081 159.803 47.7023 159.803 48.187C159.803 48.6717 159.468 49.0661 159.057 49.0661Z" fill="#E6E6E6"/>
<path d="M184.311 100.191H168.006C167.594 100.191 167.26 99.7962 167.26 99.3115C167.26 98.8268 167.594 98.4326 168.006 98.4326H184.311C184.722 98.4326 185.057 98.8268 185.057 99.3115C185.057 99.7962 184.722 100.191 184.311 100.191Z" fill="#E6E6E6"/>
<path d="M197.653 135.023H181.347C180.936 135.023 180.602 134.628 180.602 134.144C180.602 133.659 180.936 133.265 181.347 133.265H197.653C198.064 133.265 198.398 133.659 198.398 134.144C198.398 134.628 198.064 135.023 197.653 135.023Z" fill="#E6E6E6"/>
<path d="M123.321 29.9645H107.015C106.604 29.9645 106.269 29.5701 106.269 29.0854C106.269 28.6007 106.604 28.2065 107.015 28.2065H123.321C123.732 28.2065 124.066 28.6007 124.066 29.0854C124.066 29.5701 123.732 29.9645 123.321 29.9645Z" fill="#E6E6E6"/>
<path d="M0 223.934C0 224.305 0.252554 224.603 0.567052 224.603H249.433C249.747 224.603 250 224.305 250 223.934C250 223.564 249.747 223.266 249.433 223.266H0.567052C0.252554 223.266 0 223.564 0 223.934Z" fill="#CCCCCC"/>
<path d="M189.285 124.823H115.381C115.118 124.823 114.905 124.571 114.905 124.261V41.1131C114.905 40.8026 115.118 40.5513 115.381 40.5513C115.644 40.5513 115.858 40.8026 115.858 41.1131V75.0398C115.858 101.914 134.335 123.699 157.127 123.699H189.285C189.548 123.699 189.761 123.95 189.761 124.261C189.761 124.572 189.548 124.823 189.285 124.823Z" fill="#E6E6E6"/>
<path d="M130.944 91.4059H114.639C114.228 91.4059 113.893 91.0115 113.893 90.5268C113.893 90.0421 114.228 89.6479 114.639 89.6479H130.944C131.355 89.6479 131.69 90.0421 131.69 90.5268C131.69 91.0115 131.355 91.4059 130.944 91.4059Z" fill="#E6E6E6"/>
<path d="M114.777 93.9074C117.363 92.9005 119.018 90.511 118.474 88.5707C117.931 86.6304 115.394 85.8742 112.807 86.8819C111.769 87.2677 110.824 87.941 110.052 88.8455L99.1411 93.275L101.013 99.2679L111.571 94.2649C112.649 94.4493 113.748 94.3267 114.777 93.9074Z" fill="#FFB6B6"/>
<path d="M58.6878 128.255C58.7761 131.464 60.2521 134.012 61.9843 133.946C63.7166 133.879 65.0488 131.224 64.9601 128.013C64.9396 126.73 64.6588 125.472 64.1412 124.343L63.6215 110.75L58.2168 111.174L59.303 124.529C58.8484 125.695 58.6375 126.973 58.6878 128.255Z" fill="#FFB6B6"/>
<path d="M71.1651 219.843L75.9893 219.842L77.2253 197.757L71.1641 197.903L71.1651 219.843Z" fill="#FFB6B6"/>
<path d="M87.6936 219.714C87.8439 220.012 87.9231 220.975 87.9231 221.321C87.9231 222.388 87.1901 223.252 86.2858 223.252H71.3458C70.7289 223.252 70.2288 222.662 70.2288 221.935V221.202C70.2288 221.202 69.4897 218.997 71.0113 216.281C71.0113 216.281 72.9025 218.408 75.7283 215.076L76.5617 213.296L82.5938 218.498L85.9373 218.983C86.6688 219.089 87.3174 218.966 87.6936 219.714Z" fill="#2F2E41"/>
<path d="M82.6011 219.843L87.4253 219.842L88.6613 197.757L82.6001 197.903L82.6011 219.843Z" fill="#FFB6B6"/>
<path d="M99.1296 219.714C99.2798 220.012 99.3591 220.975 99.3591 221.321C99.3591 222.388 98.6261 223.252 97.7218 223.252H82.7818C82.1649 223.252 81.6648 222.662 81.6648 221.935V221.202C81.6648 221.202 80.9257 218.997 82.4473 216.281C82.4473 216.281 84.3385 218.408 87.1643 215.076L87.9976 213.296L94.0298 218.498L97.3733 218.983C98.1048 219.089 98.7534 218.966 99.1296 219.714Z" fill="#2F2E41"/>
<path d="M73.9725 55.3466C77.8918 55.3466 81.069 51.6005 81.069 46.9795C81.069 42.3584 77.8918 38.6123 73.9725 38.6123C70.0532 38.6123 66.876 42.3584 66.876 46.9795C66.876 51.6005 70.0532 55.3466 73.9725 55.3466Z" fill="#FFB6B6"/>
<path d="M64.1538 116.575L67.4892 172.756L69.3952 210.398L78.4485 209.836L77.4955 168.824L79.4014 143.542L82.2604 209.836H89.4659L92.2667 117.137L76.7807 114.609L64.1538 116.575Z" fill="#2F2E41"/>
<path d="M76.5423 53.653C74.5239 55.9438 69.8595 54.4249 67.489 53.653C66.1842 53.2282 65.3967 52.7903 65.1065 51.9676C64.9048 51.3957 65.0194 50.8535 64.63 49.7204C64.402 49.0566 64.2817 49.0071 64.1535 48.5967C63.7963 47.4528 64.2925 46.4335 64.63 45.2259C65.3343 42.706 64.4934 42.4231 65.1065 40.7314C66.0282 38.1882 68.5354 37.1534 69.3949 36.7987C70.9997 36.1365 72.338 36.2065 72.7304 36.2369C75.2441 36.432 76.9246 37.9529 77.4953 38.4842C78.652 39.5611 79.2194 40.7003 80.3542 42.9786C81.3417 44.9612 81.4137 45.7221 81.3072 46.3495C81.1449 47.3056 80.6773 47.3091 80.3542 48.5967C79.9875 50.0583 80.4046 50.7929 79.8777 51.4058C79.5215 51.8201 79.1905 51.6477 78.4482 51.9676C77.4266 52.4078 76.9223 53.2217 76.5423 53.653Z" fill="#2F2E41"/>
<path d="M82.2602 62.08C82.2602 62.08 75.1128 51.4056 66.0595 55.3383L63.1274 62.08L62.1478 63.1734C58.0385 67.7597 56.1266 74.4509 57.0444 81.0341L61.2946 111.519C61.2946 111.519 60.8181 123.317 64.1536 126.688C64.1536 126.688 68.9185 116.014 80.3542 121.07C91.79 126.126 94.1724 123.317 94.1724 123.317L90.3605 91.2942L82.2602 62.08Z" fill="#2F2E41"/>
<path d="M79.878 63.7654L77.4956 69.9453L86.5489 105.901L111.326 95.2268L107.991 88.485L96.0787 92.4177C96.0787 92.4177 87.0254 60.9563 79.878 63.7654Z" fill="#2F2E41"/>
<path d="M62.9624 120.227H57.721L56.7681 75.2827L62.9624 90.4515V120.227Z" fill="#2F2E41"/>
<path d="M120.38 85.9567C121.564 85.9567 122.524 84.8248 122.524 83.4286C122.524 82.0323 121.564 80.9004 120.38 80.9004C119.195 80.9004 118.235 82.0323 118.235 83.4286C118.235 84.8248 119.195 85.9567 120.38 85.9567Z" fill="#3F3D56"/>
<path d="M134.674 105.62C135.858 105.62 136.818 104.488 136.818 103.092C136.818 101.696 135.858 100.564 134.674 100.564C133.49 100.564 132.53 101.696 132.53 103.092C132.53 104.488 133.49 105.62 134.674 105.62Z" fill="#3F3D56"/>
<path d="M150.875 58.4284C152.059 58.4284 153.019 57.2965 153.019 55.9002C153.019 54.504 152.059 53.3721 150.875 53.3721C149.691 53.3721 148.731 54.504 148.731 55.9002C148.731 57.2965 149.691 58.4284 150.875 58.4284Z" fill="#3F3D56"/>
<path d="M174.699 92.1369C175.884 92.1369 176.844 91.005 176.844 89.6087C176.844 88.2125 175.884 87.0806 174.699 87.0806C173.515 87.0806 172.555 88.2125 172.555 89.6087C172.555 91.005 173.515 92.1369 174.699 92.1369Z" fill="#3F3D56"/>
<path d="M188.518 78.6535C189.702 78.6535 190.662 77.5216 190.662 76.1253C190.662 74.7291 189.702 73.5972 188.518 73.5972C187.334 73.5972 186.374 74.7291 186.374 76.1253C186.374 77.5216 187.334 78.6535 188.518 78.6535Z" fill="#3F3D56"/>
<path d="M184.433 22.4862L188.354 24.6764C186.746 22.0298 185.36 17.8965 184.618 14.6074C183.362 17.6712 181.336 21.4199 179.332 23.6592L183.476 22.4021C180.922 37.1597 171.317 47.7542 160.317 47.7542L160.161 48.2872C171.651 48.2872 181.825 37.8396 184.433 22.4862Z" fill="#3F3D56"/>
<path d="M172.578 0H197.356C198.406 0 199.262 1.00813 199.262 2.24724C199.262 3.48635 198.406 4.49448 197.356 4.49448H172.578C171.527 4.49448 170.672 3.48635 170.672 2.24724C170.672 1.00813 171.527 0 172.578 0Z" fill="#FF1616"/>
<path d="M189.317 129.421C189.056 129.421 188.792 129.352 188.541 129.214C187.922 128.871 187.533 128.185 187.502 127.379L187.245 120.848C187.212 120.009 187.583 119.246 188.214 118.857C188.845 118.467 189.589 118.543 190.154 119.052L193.927 122.454C194.381 122.863 194.64 123.484 194.638 124.157C194.636 124.83 194.374 125.449 193.918 125.855L190.402 128.985C190.078 129.273 189.7 129.421 189.317 129.421Z" fill="#E6E6E6"/>
<path d="M119.763 41.6577C119.763 41.9658 119.705 42.2766 119.587 42.5726C119.297 43.3026 118.715 43.761 118.032 43.7983L112.492 44.1011C111.781 44.1401 111.134 43.7023 110.803 42.9583C110.473 42.2146 110.537 41.3379 110.969 40.671L113.855 36.2226C114.201 35.6877 114.728 35.3821 115.298 35.3843C115.87 35.3862 116.394 35.6956 116.739 36.233L119.393 40.3786C119.638 40.7613 119.763 41.2065 119.763 41.6577Z" fill="#E6E6E6"/>
<path d="M150.699 35.8732C147.878 35.0765 144.864 35.7976 142.453 37.6757C139.924 39.6452 138.25 42.7989 137.683 46.2927C136.514 53.5008 140.086 60.7016 145.731 63.5705C151.665 66.5864 158.725 64.5628 163.035 58.9654C165.171 56.191 166.506 52.6812 166.907 48.9695C167.303 45.313 166.852 41.0943 164.974 38.0426C163.111 35.0156 160.01 33.9998 157.014 33.5037C154.108 33.0224 150.252 32.8132 148.68 36.4404C148.381 37.132 148.24 37.8773 148.273 38.6529C148.296 39.1926 149.011 39.1959 148.988 38.6529C148.915 36.957 149.874 35.5399 151.103 34.7777C152.528 33.8943 154.246 33.9691 155.8 34.166C158.604 34.5214 161.789 35.1555 163.811 37.6954C165.826 40.2254 166.43 44.0809 166.305 47.4393C166.175 50.9448 165.15 54.395 163.355 57.1985C159.813 62.7308 153.616 65.3629 147.915 63.5757C142.36 61.8343 142.287 57.9473 142.379 51.0637C142.428 47.3914 139.486 41.6112 141.888 39.2181C144.239 36.8751 147.499 35.8357 150.509 36.6858C150.956 36.8121 151.147 35.9997 150.699 35.8732Z" fill="#FF1616"/>
</g>
</g>
<defs>
<clipPath id="clip0_50_3895">
<rect width="250" height="225" fill="white"/>
</clipPath>
</defs>
</svg>
