<svg width="121" height="103" viewBox="0 0 121 103" fill="none" xmlns="http://www.w3.org/2000/svg">
<path opacity="0.2" d="M0.866781 67.0922C0.866781 57.4872 3.00122 48.5493 7.27009 40.2783C11.539 31.7406 17.1418 24.0032 24.0788 17.0663C31.2825 10.1294 39.2866 4.52653 48.0912 0.257667L56.0953 10.2628C49.4252 15.8657 43.5555 22.0022 38.4862 28.6723C33.6837 35.0756 31.2825 41.6123 31.2825 48.2825C31.2825 52.0177 32.0829 54.5524 33.6837 55.8864C35.2845 57.2204 37.1522 58.6878 39.2866 60.2886C42.2215 61.8895 44.8895 64.2907 47.2907 67.4924C49.692 70.694 50.8926 74.9629 50.8926 80.299C50.8926 86.7023 48.7582 92.0384 44.4893 96.3072C40.4872 100.576 35.1511 102.711 28.481 102.711C20.7437 102.711 14.207 99.6423 8.87091 93.5058C3.53482 87.3693 0.866781 78.5647 0.866781 67.0922ZM65.3 67.0922C65.3 57.4872 67.4345 48.5493 71.7033 40.2783C75.9722 31.7406 81.5751 24.0032 88.512 17.0663C95.7157 10.1294 103.72 4.52653 112.524 0.257667L120.529 10.2628C113.858 15.8657 107.989 22.0022 102.919 28.6723C98.117 35.0756 95.7157 41.6123 95.7157 48.2825C95.7157 52.0177 96.5162 54.5524 98.117 55.8864C99.7178 57.2204 101.585 58.6878 103.72 60.2886C106.655 61.8895 109.323 64.2907 111.724 67.4924C114.125 70.694 115.326 74.9629 115.326 80.299C115.326 86.7023 113.191 92.0384 108.923 96.3072C104.92 100.576 99.5844 102.711 92.9143 102.711C85.177 102.711 78.6403 99.6423 73.3042 93.5058C67.9681 87.3693 65.3 78.5647 65.3 67.0922Z" fill="#3D3D3D"/>
</svg>
