<svg width="25" height="25" viewBox="0 0 25 25" fill="none" xmlns="http://www.w3.org/2000/svg">
<path d="M6.99601 14.7493L5.46167 21.3933C5.41416 21.5945 5.42842 21.8053 5.5026 21.9982C5.57677 22.1912 5.70741 22.3573 5.87745 22.4748C6.0475 22.5924 6.24904 22.6559 6.45575 22.6572C6.66247 22.6584 6.86475 22.5973 7.03617 22.4817L12.6432 18.7437L18.2503 22.4817C18.4257 22.5982 18.6325 22.6581 18.843 22.6535C19.0535 22.6489 19.2576 22.58 19.4277 22.4559C19.5978 22.3319 19.7259 22.1587 19.7947 21.9597C19.8635 21.7607 19.8697 21.5454 19.8124 21.3428L17.929 14.7523L22.6 10.5489C22.7496 10.4141 22.8564 10.2385 22.9073 10.0438C22.9582 9.84899 22.9508 9.64357 22.8862 9.45292C22.8215 9.26227 22.7024 9.09475 22.5436 8.97108C22.3847 8.8474 22.1931 8.773 21.9924 8.75707L16.1218 8.28955L13.5813 2.66602C13.5003 2.48495 13.3687 2.33118 13.2022 2.22329C13.0357 2.11539 12.8416 2.05798 12.6432 2.05798C12.4449 2.05798 12.2507 2.11539 12.0843 2.22329C11.9178 2.33118 11.7861 2.48495 11.7051 2.66602L9.16469 8.28955L3.29402 8.75604C3.09677 8.77166 2.90821 8.84378 2.75088 8.96377C2.59355 9.08376 2.47412 9.24653 2.40687 9.43262C2.33963 9.61871 2.32742 9.82023 2.37171 10.0131C2.41599 10.2059 2.5149 10.3819 2.6566 10.52L6.99601 14.7493ZM9.93392 10.2945C10.1177 10.28 10.2943 10.2164 10.445 10.1102C10.5957 10.004 10.7151 9.85925 10.7907 9.69106L12.6432 5.59158L14.4958 9.69106C14.5713 9.85925 14.6907 10.004 14.8415 10.1102C14.9922 10.2164 15.1687 10.28 15.3525 10.2945L19.4427 10.6189L16.0744 13.6505C15.7819 13.9141 15.6656 14.3198 15.7727 14.6988L17.063 19.2143L13.2158 16.6492C13.0469 16.5358 12.8481 16.4753 12.6448 16.4753C12.4414 16.4753 12.2426 16.5358 12.0738 16.6492L8.05358 19.3296L9.13483 14.6483C9.17447 14.4762 9.16915 14.2967 9.11938 14.1272C9.0696 13.9576 8.97705 13.8038 8.85061 13.6804L5.7222 10.6302L9.93392 10.2945Z" fill="#FF1616"/>
</svg>
