<svg width="550" height="461" viewBox="0 0 550 461" fill="none" xmlns="http://www.w3.org/2000/svg">
<g clip-path="url(#clip0_14_883)">
<path d="M484.787 27.9802H0.760171C0.557025 27.9757 0.363722 27.8919 0.221644 27.7466C0.079565 27.6013 0 27.4062 0 27.203C0 26.9998 0.079565 26.8047 0.221644 26.6594C0.363722 26.5142 0.557025 26.4303 0.760171 26.4258H484.787C484.99 26.4303 485.184 26.5142 485.326 26.6594C485.468 26.8047 485.547 26.9998 485.547 27.203C485.547 27.4062 485.468 27.6013 485.326 27.7466C485.184 27.8919 484.99 27.9757 484.787 27.9802Z" fill="#CACACA"/>
<path d="M17.8723 17.0989C22.4911 17.0989 26.2354 13.2712 26.2354 8.54943C26.2354 3.82771 22.4911 0 17.8723 0C13.2535 0 9.50928 3.82771 9.50928 8.54943C9.50928 13.2712 13.2535 17.0989 17.8723 17.0989Z" fill="#3F3D56"/>
<path d="M46.763 17.0989C51.3818 17.0989 55.126 13.2712 55.126 8.54943C55.126 3.82771 51.3818 0 46.763 0C42.1442 0 38.3999 3.82771 38.3999 8.54943C38.3999 13.2712 42.1442 17.0989 46.763 17.0989Z" fill="#3F3D56"/>
<path d="M75.6536 17.0989C80.2724 17.0989 84.0167 13.2712 84.0167 8.54943C84.0167 3.82771 80.2724 0 75.6536 0C71.0348 0 67.2905 3.82771 67.2905 8.54943C67.2905 13.2712 71.0348 17.0989 75.6536 17.0989Z" fill="#3F3D56"/>
<path d="M467.474 2.11914H446.952C446.545 2.12722 446.158 2.29448 445.873 2.58502C445.588 2.87555 445.429 3.26619 445.429 3.67305C445.429 4.07991 445.588 4.47055 445.873 4.76109C446.158 5.05162 446.545 5.21889 446.952 5.22696H467.474C467.881 5.21889 468.269 5.05162 468.553 4.76109C468.838 4.47055 468.998 4.07991 468.998 3.67305C468.998 3.26619 468.838 2.87555 468.553 2.58502C468.269 2.29448 467.881 2.12722 467.474 2.11914Z" fill="#3F3D56"/>
<path d="M467.474 7.95215H446.952C446.545 7.96022 446.158 8.12749 445.873 8.41803C445.588 8.70856 445.429 9.09921 445.429 9.50607C445.429 9.91293 445.588 10.3036 445.873 10.5941C446.158 10.8846 446.545 11.0519 446.952 11.06H467.474C467.881 11.0519 468.269 10.8846 468.553 10.5941C468.838 10.3036 468.998 9.91293 468.998 9.50607C468.998 9.09921 468.838 8.70856 468.553 8.41803C468.269 8.12749 467.881 7.96022 467.474 7.95215Z" fill="#3F3D56"/>
<path d="M467.474 13.7773H446.952C446.545 13.7854 446.158 13.9527 445.873 14.2432C445.588 14.5338 445.429 14.9244 445.429 15.3313C445.429 15.7381 445.588 16.1288 445.873 16.4193C446.158 16.7098 446.545 16.8771 446.952 16.8852H467.474C467.881 16.8771 468.269 16.7098 468.553 16.4193C468.838 16.1288 468.998 15.7381 468.998 15.3313C468.998 14.9244 468.838 14.5338 468.553 14.2432C468.269 13.9527 467.881 13.7854 467.474 13.7773Z" fill="#3F3D56"/>
<path d="M459.811 54.2231H18.944C16.5028 54.2268 14.1627 55.1982 12.4365 56.9243C10.7103 58.6505 9.739 60.9906 9.73535 63.4318V64.9168C9.739 67.358 10.7103 69.6981 12.4365 71.4243C14.1627 73.1504 16.5028 74.1218 18.944 74.1255H459.811C462.252 74.1218 464.592 73.1504 466.319 71.4243C468.045 69.6981 469.016 67.358 469.02 64.9168V63.4318C469.016 60.9906 468.045 58.6505 466.319 56.9243C464.592 55.1982 462.252 54.2268 459.811 54.2231Z" fill="#F0F0F0"/>
<path d="M72.1486 67.8486H30.1831C29.2441 67.8473 28.3441 67.4733 27.6806 66.8089C27.0172 66.1444 26.6445 65.2439 26.6445 64.3049C26.6445 63.3659 27.0172 62.4654 27.6806 61.8009C28.3441 61.1365 29.2441 60.7625 30.1831 60.7612H72.1486C76.7186 60.6974 76.7643 67.913 72.1486 67.8486Z" fill="white"/>
<path d="M197.686 67.8486H155.721C154.782 67.8473 153.882 67.4733 153.218 66.8089C152.555 66.1444 152.182 65.2439 152.182 64.3049C152.182 63.3659 152.555 62.4654 153.218 61.8009C153.882 61.1365 154.782 60.7625 155.721 60.7612H197.686C202.256 60.6974 202.302 67.913 197.686 67.8486Z" fill="white"/>
<path d="M323.224 67.8486H281.259C280.32 67.8473 279.42 67.4733 278.756 66.8089C278.093 66.1444 277.72 65.2439 277.72 64.3049C277.72 63.3659 278.093 62.4654 278.756 61.8009C279.42 61.1365 280.32 60.7625 281.259 60.7612H323.224C327.794 60.6974 327.84 67.913 323.224 67.8486Z" fill="white"/>
<path d="M442.255 68.2314H400.29C399.35 68.2314 398.449 67.8581 397.784 67.1935C397.119 66.5289 396.746 65.6276 396.746 64.6877C396.746 63.7479 397.119 62.8465 397.784 62.1819C398.449 61.5173 399.35 61.144 400.29 61.144H442.255C446.825 61.0802 446.871 68.2958 442.255 68.2314Z" fill="#FF1616"/>
<path d="M376.78 54.2231H375.249V74.1255H376.78V54.2231Z" fill="white"/>
<path d="M218.362 348.787H38.4347C36.8315 348.785 35.2945 348.147 34.1609 347.014C33.0272 345.88 32.3895 344.343 32.3877 342.74V316.388C32.3895 314.785 33.0272 313.248 34.1609 312.114C35.2945 310.981 36.8315 310.343 38.4347 310.341H218.362C219.965 310.343 221.502 310.981 222.636 312.114C223.769 313.248 224.407 314.785 224.409 316.388V342.74C224.407 344.343 223.769 345.88 222.636 347.014C221.502 348.147 219.965 348.785 218.362 348.787Z" fill="#F0F0F0"/>
<path d="M200.879 344.708H42.5142C40.9111 344.706 39.3741 344.069 38.2405 342.935C37.1068 341.801 36.4691 340.264 36.4673 338.661V320.47C36.4691 318.867 37.1068 317.33 38.2405 316.196C39.3741 315.063 40.9111 314.425 42.5142 314.423H214.283C215.886 314.425 217.423 315.063 218.557 316.196C219.69 317.33 220.328 318.867 220.33 320.47V325.258C220.324 330.415 218.273 335.359 214.626 339.005C210.98 342.651 206.036 344.702 200.879 344.708Z" fill="white"/>
<path d="M146.252 327.69H73.9355C73.5219 327.69 73.1252 327.526 72.8327 327.233C72.5403 326.941 72.376 326.544 72.376 326.13C72.376 325.717 72.5403 325.32 72.8327 325.028C73.1252 324.735 73.5219 324.571 73.9355 324.571H146.252C146.666 324.571 147.063 324.735 147.355 325.028C147.648 325.32 147.812 325.717 147.812 326.13C147.812 326.544 147.648 326.941 147.355 327.233C147.063 327.526 146.666 327.69 146.252 327.69Z" fill="#E6E6E6"/>
<path d="M182.861 334.068H73.9355C73.7304 334.069 73.5273 334.029 73.3377 333.951C73.1481 333.872 72.9757 333.758 72.8305 333.613C72.6854 333.468 72.5702 333.296 72.4916 333.106C72.413 332.917 72.3726 332.714 72.3726 332.509C72.3726 332.304 72.413 332.101 72.4916 331.911C72.5702 331.722 72.6854 331.55 72.8305 331.405C72.9757 331.26 73.1481 331.145 73.3377 331.067C73.5273 330.989 73.7304 330.949 73.9355 330.949H182.861C183.274 330.95 183.669 331.115 183.961 331.407C184.253 331.7 184.417 332.096 184.417 332.509C184.417 332.922 184.253 333.318 183.961 333.61C183.669 333.903 183.274 334.067 182.861 334.068Z" fill="#E6E6E6"/>
<path d="M229.855 280.191H24.7005C23.0634 280.189 21.494 279.538 20.3364 278.381C19.1789 277.223 18.5277 275.654 18.5259 274.017V117.196C18.5278 115.559 19.1789 113.989 20.3365 112.832C21.494 111.674 23.0635 111.023 24.7005 111.021H229.855C231.492 111.023 233.062 111.674 234.219 112.832C235.377 113.989 236.028 115.559 236.03 117.196V274.017C236.028 275.654 235.377 277.223 234.219 278.381C233.062 279.538 231.492 280.189 229.855 280.191Z" fill="white"/>
<path d="M229.855 280.957H24.7004C22.8604 280.954 21.0964 280.223 19.7953 278.922C18.4943 277.62 17.7624 275.856 17.7603 274.016V117.196C17.7624 115.356 18.4943 113.592 19.7954 112.291C21.0964 110.99 22.8604 110.258 24.7004 110.256H229.855C231.695 110.258 233.459 110.99 234.76 112.291C236.061 113.592 236.793 115.356 236.795 117.196V274.016C236.793 275.856 236.061 277.62 234.76 278.922C233.459 280.223 231.695 280.954 229.855 280.957ZM24.7004 111.787C23.2663 111.788 21.8915 112.359 20.8774 113.373C19.8633 114.387 19.2929 115.762 19.2912 117.196V274.016C19.2928 275.451 19.8632 276.826 20.8773 277.84C21.8913 278.854 23.2663 279.424 24.7004 279.426H229.855C231.289 279.424 232.664 278.854 233.678 277.84C234.692 276.826 235.262 275.451 235.264 274.016V117.196C235.262 115.762 234.692 114.387 233.678 113.373C232.664 112.359 231.289 111.788 229.855 111.787L24.7004 111.787Z" fill="#F0F0F0"/>
<path d="M18.9995 250.338V274.017C19.0018 275.528 19.6031 276.977 20.6717 278.045C21.7403 279.114 23.1889 279.715 24.7001 279.718H229.855C231.366 279.715 232.815 279.114 233.884 278.045C234.952 276.977 235.554 275.528 235.556 274.017V250.338H18.9995Z" fill="#F0F0F0"/>
<path d="M20.9327 112.02L20.1074 113.31L235.143 250.982L235.968 249.693L20.9327 112.02Z" fill="#F0F0F0"/>
<path d="M235.75 112.02L20.7148 249.693L21.5402 250.982L236.576 113.309L235.75 112.02Z" fill="#F0F0F0"/>
<path d="M417.462 449.937L407.978 449.936L403.465 413.354L417.464 413.355L417.462 449.937Z" fill="#A0616A"/>
<path d="M417.209 446.837L407.089 442.727L406.791 442.604L401.203 446.837C398.136 446.837 395.188 448.02 392.973 450.141C390.758 452.262 389.448 455.156 389.315 458.22C389.3 458.388 389.3 458.564 389.3 458.74V459.131H419.88V446.837H417.209Z" fill="#2F2E41"/>
<path d="M395.251 441.111L386.304 444.258L369.906 411.247L383.111 406.602L395.251 441.111Z" fill="#A0616A"/>
<path d="M393.984 438.27L383.074 437.752L382.752 437.735L378.886 443.583C375.993 444.6 373.605 446.696 372.219 449.431C370.834 452.167 370.558 455.332 371.45 458.266C371.491 458.43 371.55 458.596 371.608 458.762L371.738 459.13L400.585 448.98L396.504 437.384L393.984 438.27Z" fill="#2F2E41"/>
<path d="M420.813 292.204C429.49 291.868 418.742 361.012 418.742 361.012C418.742 361.012 421.886 421.719 421.219 424.904C420.553 428.09 421.135 436.682 421.135 436.682C419.435 433.588 401.897 435.923 401.897 435.923L399.511 374.398L387.33 325.102L370.442 358.146L386.628 408.866C386.628 408.866 393.183 414.932 392.486 417.329C391.789 419.726 374.619 425.132 371.464 425.254C368.309 425.376 369.734 421.371 369.581 417.427C369.428 413.483 354.581 376.93 349.359 364.493C344.136 352.056 348.196 334.519 350.862 321.776C353.528 309.033 367.552 285.118 367.552 285.118C384.96 265.484 412.136 292.541 420.813 292.204Z" fill="#2F2E41"/>
<path d="M315.072 236.326C315.548 237.234 316.216 238.027 317.031 238.648C317.846 239.27 318.787 239.706 319.788 239.924C320.79 240.143 321.827 240.139 322.827 239.914C323.826 239.688 324.765 239.246 325.575 238.619L346.441 252.232L346.377 239.286L326.573 228.343C325.428 227.052 323.85 226.224 322.137 226.019C320.424 225.813 318.694 226.243 317.277 227.227C315.859 228.211 314.852 229.68 314.446 231.357C314.039 233.034 314.262 234.802 315.072 236.326Z" fill="#A0616A"/>
<path d="M416.307 303.289C394.79 303.29 382.932 298.982 376.635 295.136C368.935 290.434 367.618 285.474 367.566 285.265L367.55 285.205L368.3 275.774L368.627 275.04C370.138 271.66 370.338 267.839 369.19 264.319L369.166 264.246L369.172 264.171L374.203 198.918L392.008 193.086L397.188 187.881L420.25 187.547L423.463 194.061L441.644 200.906L432.712 254.073L428.43 261.453L430.153 269.493L430.141 269.565L424.523 303.093L424.214 303.107C421.444 303.231 418.808 303.291 416.307 303.289Z" fill="#3F3D56"/>
<path d="M360.64 262.58L352.199 257.575L351.67 256.811C350.595 255.265 349.173 253.992 347.517 253.095C345.862 252.198 344.019 251.701 342.136 251.645L342.038 251.642L330.412 244.807L335.231 230.689L353.457 236.074L366.164 204.502C366.861 202.768 368.026 201.261 369.529 200.15C371.032 199.039 372.814 198.366 374.676 198.207C376.538 198.048 378.408 198.408 380.078 199.249C381.748 200.089 383.152 201.376 384.133 202.966C385.139 204.628 385.661 206.539 385.639 208.481V229.139L385.563 229.242L360.64 262.58Z" fill="#3F3D56"/>
<path d="M417.076 291.146C417.257 290.137 417.656 289.18 418.247 288.342C418.837 287.505 419.604 286.806 420.493 286.297C421.383 285.788 422.373 285.48 423.394 285.394C424.416 285.309 425.443 285.449 426.405 285.804L442.217 266.551L446.045 278.918L430.443 295.305C429.74 296.881 428.483 298.144 426.911 298.855C425.339 299.566 423.56 299.675 421.913 299.163C420.265 298.65 418.863 297.551 417.971 296.073C417.08 294.596 416.761 292.843 417.076 291.146Z" fill="#A0616A"/>
<path d="M440.717 288.714L430.218 278.213L436.902 261.928L446.588 248.702C436.266 243.677 428.518 231.773 422.904 221.919L422.841 221.809L424.239 210.86C424.566 208.299 425.592 205.877 427.204 203.861C428.606 202.107 430.408 200.715 432.458 199.8C434.508 198.885 436.748 198.475 438.989 198.603C441.231 198.731 443.409 199.394 445.342 200.536C447.274 201.679 448.906 203.267 450.099 205.169L468.923 247.016L468.711 247.332L453.57 273.143L449.437 275.823L440.717 288.714Z" fill="#3F3D56"/>
<path d="M425.277 165.597C424.584 170.643 421.917 175.207 417.862 178.288C413.806 181.368 408.693 182.713 403.646 182.026C398.6 181.339 394.033 178.677 390.948 174.625C387.863 170.572 386.512 165.461 387.194 160.414L387.231 160.141C388.027 155.161 390.749 150.694 394.809 147.703C398.869 144.712 403.943 143.437 408.935 144.153C413.927 144.869 418.437 147.518 421.493 151.53C424.549 155.541 425.906 160.593 425.271 165.596L425.277 165.597Z" fill="#A0616A"/>
<path d="M420.386 175.495C421.373 173.491 422.387 171.339 422.109 169.121C421.832 166.904 419.658 164.785 417.523 165.444C416.246 165.838 415.281 167.099 413.946 167.163C412.11 167.252 411.057 165.15 410.486 163.403L408.158 156.287C405.923 158.029 403.33 159.256 400.566 159.881C397.802 160.505 394.934 160.512 392.166 159.901C390.005 159.406 387.822 158.443 386.554 156.624C385.286 154.805 385.294 151.984 387.032 150.609C387.885 149.934 389.02 149.678 389.835 148.959C390.34 148.512 390.689 147.915 390.828 147.255C390.968 146.595 390.891 145.908 390.61 145.295C390.329 144.682 389.858 144.176 389.267 143.852C388.675 143.527 387.995 143.402 387.327 143.494L393.189 142.762L391.442 139.603C392.106 140.055 392.857 140.363 393.647 140.508C394.436 140.653 395.248 140.631 396.029 140.445C397.606 140.161 399.091 139.511 400.633 139.078C404.373 138.124 408.321 138.415 411.88 139.909C415.438 141.404 418.411 144.018 420.348 147.357C421.79 146.875 423.345 146.843 424.806 147.265C426.267 147.687 427.565 148.543 428.528 149.719C430.097 151.71 430.524 154.368 430.585 156.902C430.699 161.9 429.609 166.851 427.408 171.339C426.777 172.765 425.869 174.051 424.739 175.125C424.17 175.658 423.491 176.059 422.75 176.301C422.01 176.543 421.225 176.621 420.451 176.527" fill="#2F2E41"/>
<path d="M108.983 155.723C109.297 160.198 110.615 164.546 112.841 168.442C117.531 176.679 125.574 182.643 134.237 186.188C145.06 190.617 157.125 190.753 168.611 189.766C179.279 188.848 189.839 186.722 200.546 186.284C208.827 186.019 217.116 186.217 225.374 186.876C241.397 188.014 257.353 190.124 273.206 192.682C277.5 193.366 281.784 194.101 286.06 194.887C286.464 194.923 286.863 194.997 287.253 195.109C287.331 195.141 287.456 195.116 287.527 195.161C287.656 195.242 287.005 194.955 287.399 195.281C287.95 195.858 288.44 196.489 288.863 197.165L294.718 204.699C296.397 206.86 297.956 209.485 300.126 211.188C301.656 212.371 303.502 213.073 305.43 213.207C307.359 213.342 309.285 212.902 310.964 211.944C312.718 210.835 314.117 209.246 314.995 207.366C316.341 204.896 317.948 202.576 319.787 200.448C326.753 192.321 336.434 187.323 344.531 180.486C348.453 177.31 351.801 173.483 354.427 169.174C356.668 165.274 358.061 160.945 358.516 156.471C359.486 147.384 356.697 138.117 352.007 130.386C346.906 122.081 339.577 115.373 330.854 111.024C321.055 106.032 310.211 103.6 299.341 102.388C287.8 101.101 276.126 101.105 264.529 101.235C251.514 101.38 238.522 101.953 225.555 102.952C212.569 103.957 199.635 105.386 186.752 107.238C174.39 109.016 161.877 110.868 149.776 114.013C139.087 116.791 128.427 121.134 120.445 129.002C113.347 135.997 108.411 145.571 108.983 155.723Z" fill="#FF1616"/>
<path d="M168.736 158.614C168.208 158.59 167.69 158.457 167.215 158.223C166.741 157.989 166.32 157.66 165.979 157.256C165.638 156.851 165.384 156.38 165.234 155.873C165.083 155.366 165.04 154.833 165.106 154.308L165.38 152.146C165.433 151.731 165.384 151.31 165.237 150.918C165.091 150.527 164.852 150.176 164.54 149.898L162.916 148.446C162.384 147.971 161.996 147.357 161.795 146.672C161.594 145.988 161.589 145.261 161.779 144.574C161.97 143.887 162.349 143.267 162.874 142.784C163.399 142.301 164.049 141.975 164.749 141.842L166.89 141.435C167.301 141.357 167.686 141.18 168.013 140.921C168.341 140.661 168.6 140.325 168.768 139.943L169.647 137.947C169.935 137.295 170.399 136.736 170.988 136.333C171.577 135.931 172.267 135.701 172.979 135.671C173.691 135.64 174.398 135.809 175.02 136.159C175.641 136.508 176.152 137.025 176.495 137.65L177.543 139.561C177.744 139.928 178.031 140.24 178.38 140.471C178.729 140.702 179.128 140.845 179.544 140.887L181.712 141.106C182.422 141.178 183.097 141.447 183.662 141.882C184.227 142.318 184.658 142.903 184.908 143.571C185.157 144.239 185.215 144.964 185.074 145.663C184.933 146.362 184.6 147.008 184.111 147.527L182.618 149.114C182.332 149.418 182.123 149.788 182.012 150.19C181.9 150.593 181.888 151.017 181.976 151.425L182.437 153.557C182.588 154.254 182.54 154.979 182.301 155.65C182.061 156.322 181.638 156.913 181.08 157.356C180.522 157.8 179.851 158.079 179.142 158.161C178.434 158.243 177.717 158.126 177.072 157.822L175.101 156.893C174.723 156.714 174.307 156.63 173.889 156.647C173.471 156.665 173.064 156.785 172.703 156.996L170.82 158.093C170.189 158.462 169.466 158.642 168.736 158.614Z" fill="white"/>
<path d="M199.428 157.722C198.456 157.677 197.536 157.267 196.854 156.573C196.441 156.136 196.134 155.611 195.954 155.038C195.774 154.464 195.728 153.858 195.817 153.264L196.069 151.28C196.123 150.857 196.073 150.428 195.924 150.029C195.775 149.63 195.531 149.273 195.214 148.99L193.707 147.643C193.263 147.264 192.908 146.791 192.67 146.257C192.432 145.724 192.316 145.144 192.33 144.56C192.363 143.695 192.688 142.866 193.254 142.21C193.819 141.555 194.59 141.11 195.441 140.95L197.558 140.548C197.976 140.469 198.369 140.289 198.702 140.024C199.036 139.758 199.3 139.416 199.471 139.026L200.26 137.235C200.542 136.555 201.006 135.967 201.601 135.534C202.196 135.101 202.899 134.84 203.633 134.781C204.352 134.74 205.068 134.904 205.697 135.255C206.326 135.605 206.843 136.126 207.188 136.759L208.223 138.647C208.428 139.021 208.721 139.339 209.076 139.575C209.432 139.81 209.839 139.955 210.263 139.998L212.272 140.201C212.855 140.247 213.42 140.422 213.927 140.714C214.433 141.006 214.868 141.407 215.2 141.888C215.681 142.607 215.904 143.469 215.832 144.331C215.76 145.194 215.397 146.006 214.803 146.636L213.328 148.205C213.036 148.515 212.824 148.891 212.71 149.301C212.596 149.711 212.584 150.142 212.674 150.558L213.099 152.526C213.235 153.094 213.244 153.685 213.124 154.257C213.004 154.829 212.759 155.367 212.406 155.832C211.872 156.516 211.122 156.997 210.278 157.197C209.434 157.396 208.547 157.302 207.764 156.93L205.813 156.011C205.428 155.83 205.005 155.745 204.58 155.763C204.155 155.782 203.741 155.903 203.373 156.117L201.512 157.201C200.881 157.57 200.158 157.751 199.428 157.722Z" fill="white"/>
<path d="M230.199 157.592C229.671 157.568 229.153 157.435 228.679 157.202C228.204 156.968 227.783 156.638 227.442 156.234C227.101 155.83 226.847 155.359 226.697 154.852C226.547 154.345 226.503 153.812 226.569 153.287L226.844 151.124C226.896 150.71 226.847 150.288 226.701 149.897C226.554 149.505 226.315 149.155 226.003 148.876L224.379 147.425C223.847 146.95 223.459 146.335 223.258 145.651C223.057 144.967 223.052 144.24 223.243 143.553C223.433 142.865 223.813 142.245 224.338 141.762C224.862 141.279 225.512 140.953 226.213 140.82L228.354 140.413C228.764 140.335 229.15 140.159 229.477 139.899C229.804 139.639 230.063 139.304 230.232 138.921L231.11 136.925C231.398 136.273 231.863 135.714 232.452 135.312C233.04 134.91 233.73 134.68 234.442 134.649C235.155 134.618 235.862 134.787 236.483 135.137C237.105 135.487 237.616 136.003 237.959 136.629L239.007 138.539C239.208 138.906 239.495 139.218 239.843 139.45C240.192 139.681 240.592 139.823 241.008 139.865L243.176 140.084C243.885 140.156 244.56 140.425 245.125 140.861C245.69 141.296 246.121 141.881 246.371 142.549C246.621 143.217 246.678 143.942 246.538 144.641C246.397 145.34 246.063 145.986 245.574 146.506L244.082 148.093C243.795 148.397 243.587 148.766 243.475 149.169C243.363 149.572 243.351 149.995 243.44 150.404L243.9 152.535C244.051 153.232 244.004 153.957 243.764 154.629C243.524 155.3 243.101 155.891 242.543 156.335C241.985 156.778 241.314 157.057 240.606 157.139C239.897 157.222 239.18 157.104 238.535 156.8L236.564 155.871C236.186 155.692 235.77 155.608 235.353 155.626C234.935 155.644 234.528 155.763 234.166 155.974L232.283 157.071C231.652 157.44 230.929 157.621 230.199 157.592Z" fill="white"/>
<path opacity="0.2" d="M260.13 156.78C259.602 156.756 259.084 156.623 258.609 156.39C258.135 156.156 257.714 155.826 257.373 155.422C257.032 155.018 256.778 154.547 256.628 154.04C256.478 153.533 256.434 153 256.5 152.475L256.774 150.312C256.827 149.898 256.778 149.476 256.631 149.085C256.485 148.693 256.246 148.343 255.934 148.064L254.31 146.613C253.778 146.138 253.39 145.523 253.189 144.839C252.988 144.155 252.983 143.428 253.173 142.741C253.364 142.053 253.743 141.433 254.268 140.95C254.793 140.467 255.443 140.141 256.143 140.008L258.284 139.601C258.695 139.523 259.08 139.347 259.407 139.087C259.735 138.827 259.994 138.492 260.162 138.109L261.041 136.113C261.329 135.461 261.793 134.902 262.382 134.5C262.971 134.098 263.661 133.868 264.373 133.837C265.085 133.806 265.792 133.975 266.414 134.325C267.035 134.675 267.546 135.191 267.889 135.817L268.937 137.727C269.138 138.094 269.425 138.406 269.774 138.638C270.123 138.869 270.522 139.011 270.939 139.053L273.106 139.272C273.816 139.344 274.491 139.613 275.056 140.049C275.621 140.484 276.052 141.069 276.302 141.737C276.551 142.405 276.609 143.13 276.468 143.829C276.327 144.528 275.994 145.174 275.505 145.694L274.012 147.281C273.726 147.585 273.517 147.954 273.406 148.357C273.294 148.76 273.282 149.183 273.37 149.592L273.831 151.723C273.982 152.42 273.934 153.145 273.695 153.817C273.455 154.488 273.032 155.079 272.474 155.523C271.916 155.966 271.245 156.245 270.536 156.327C269.828 156.41 269.111 156.292 268.466 155.988L266.495 155.059C266.117 154.88 265.701 154.796 265.283 154.814C264.865 154.832 264.458 154.951 264.097 155.162L262.214 156.259C261.583 156.628 260.86 156.809 260.13 156.78Z" fill="black"/>
<path opacity="0.2" d="M290.061 155.968C289.532 155.944 289.015 155.811 288.54 155.578C288.065 155.344 287.644 155.014 287.303 154.61C286.962 154.206 286.709 153.735 286.558 153.228C286.408 152.72 286.365 152.188 286.43 151.663L286.705 149.5C286.758 149.086 286.708 148.664 286.562 148.273C286.416 147.881 286.176 147.531 285.865 147.252L284.241 145.801C283.709 145.326 283.32 144.711 283.12 144.027C282.919 143.343 282.913 142.616 283.104 141.929C283.295 141.241 283.674 140.621 284.199 140.138C284.724 139.655 285.373 139.329 286.074 139.196L288.215 138.789C288.626 138.711 289.011 138.535 289.338 138.275C289.665 138.015 289.924 137.68 290.093 137.297L290.972 135.301C291.26 134.649 291.724 134.09 292.313 133.688C292.902 133.286 293.591 133.056 294.304 133.025C295.016 132.994 295.723 133.163 296.344 133.513C296.966 133.863 297.477 134.379 297.82 135.005L298.868 136.915C299.069 137.282 299.356 137.594 299.705 137.826C300.053 138.057 300.453 138.199 300.869 138.241L303.037 138.46C303.746 138.532 304.422 138.801 304.986 139.237C305.551 139.672 305.983 140.257 306.232 140.925C306.482 141.593 306.54 142.318 306.399 143.017C306.258 143.716 305.924 144.362 305.436 144.882L303.943 146.469C303.656 146.773 303.448 147.142 303.336 147.545C303.224 147.948 303.212 148.371 303.301 148.78L303.762 150.911C303.912 151.608 303.865 152.333 303.625 153.005C303.385 153.676 302.963 154.267 302.404 154.711C301.846 155.154 301.175 155.433 300.467 155.515C299.759 155.598 299.042 155.48 298.397 155.176L296.425 154.247C296.047 154.068 295.632 153.984 295.214 154.002C294.796 154.02 294.389 154.139 294.028 154.35L292.144 155.447C291.514 155.816 290.791 155.997 290.061 155.968Z" fill="black"/>
<path d="M480.75 411.342L481.625 391.655C490.753 386.776 500.934 384.199 511.283 384.147C497.039 395.793 498.819 418.242 489.162 433.903C486.112 438.764 482.008 442.877 477.153 445.937C472.298 448.996 466.817 450.924 461.115 451.577L449.195 458.875C447.56 449.757 447.92 440.392 450.252 431.427C452.584 422.461 456.832 414.107 462.704 406.942C466.037 402.954 469.86 399.402 474.081 396.37C476.936 403.898 480.75 411.342 480.75 411.342Z" fill="#F2F2F2"/>
<path d="M549.089 460.6H229.594C229.352 460.6 229.12 460.504 228.949 460.333C228.778 460.162 228.682 459.93 228.682 459.688C228.682 459.447 228.778 459.215 228.949 459.044C229.12 458.873 229.352 458.777 229.594 458.777H549.089C549.33 458.777 549.562 458.873 549.733 459.044C549.904 459.215 550 459.447 550 459.688C550 459.93 549.904 460.162 549.733 460.333C549.562 460.504 549.33 460.6 549.089 460.6Z" fill="#CACACA"/>
</g>
<defs>
<clipPath id="clip0_14_883">
<rect width="550" height="460.6" fill="white"/>
</clipPath>
</defs>
</svg>
