<svg width="39" height="32" viewBox="0 0 39 32" fill="none" xmlns="http://www.w3.org/2000/svg">
<path d="M38.7081 3.84771C37.2662 4.49097 35.7371 4.91342 34.1714 5.1011C35.8217 4.10569 37.0568 2.5391 37.6467 0.693273C36.0979 1.62284 34.3999 2.2743 32.6302 2.6267C31.4414 1.34393 29.8657 0.493193 28.1481 0.206744C26.4305 -0.0797047 24.6672 0.214185 23.1322 1.04272C21.5973 1.87126 20.3768 3.18803 19.6604 4.78831C18.9441 6.3886 18.772 8.18274 19.171 9.89181C16.0303 9.73305 12.9577 8.9099 10.1529 7.47582C7.34801 6.04173 4.87355 4.02876 2.89014 1.5676C2.18808 2.78375 1.81914 4.16625 1.82111 5.57351C1.82111 8.33554 3.215 10.7757 5.33416 12.2043C4.08006 12.1645 2.85356 11.8229 1.7569 11.2081V11.3071C1.75728 13.1466 2.38843 14.9294 3.54335 16.3532C4.69828 17.777 6.30588 18.7541 8.09361 19.1189C6.92942 19.4371 5.70871 19.484 4.5239 19.2561C5.02794 20.8394 6.01034 22.2242 7.33356 23.2165C8.65678 24.2087 10.2546 24.7588 11.9032 24.7897C10.2647 26.0875 8.38859 27.0469 6.38219 27.613C4.37579 28.1791 2.27843 28.3408 0.210022 28.0889C3.82071 30.4308 8.02391 31.674 12.3168 31.67C26.8469 31.67 34.7928 19.5304 34.7928 9.00224C34.7928 8.65937 34.7833 8.31269 34.7682 7.97362C36.3148 6.84627 37.6497 5.44973 38.71 3.84962L38.7081 3.84771Z" fill="#FF1616"/>
</svg>
